%TF.GenerationSoftware,KiCad,Pcbnew,(6.0.2)*%
%TF.CreationDate,2022-08-27T15:51:37-07:00*%
%TF.ProjectId,TxBoard,5478426f-6172-4642-9e6b-696361645f70,5*%
%TF.SameCoordinates,Original*%
%TF.FileFunction,Soldermask,Top*%
%TF.FilePolarity,Negative*%
%FSLAX46Y46*%
G04 Gerber Fmt 4.6, Leading zero omitted, Abs format (unit mm)*
G04 Created by KiCad (PCBNEW (6.0.2)) date 2022-08-27 15:51:37*
%MOMM*%
%LPD*%
G01*
G04 APERTURE LIST*
G04 Aperture macros list*
%AMRoundRect*
0 Rectangle with rounded corners*
0 $1 Rounding radius*
0 $2 $3 $4 $5 $6 $7 $8 $9 X,Y pos of 4 corners*
0 Add a 4 corners polygon primitive as box body*
4,1,4,$2,$3,$4,$5,$6,$7,$8,$9,$2,$3,0*
0 Add four circle primitives for the rounded corners*
1,1,$1+$1,$2,$3*
1,1,$1+$1,$4,$5*
1,1,$1+$1,$6,$7*
1,1,$1+$1,$8,$9*
0 Add four rect primitives between the rounded corners*
20,1,$1+$1,$2,$3,$4,$5,0*
20,1,$1+$1,$4,$5,$6,$7,0*
20,1,$1+$1,$6,$7,$8,$9,0*
20,1,$1+$1,$8,$9,$2,$3,0*%
G04 Aperture macros list end*
%ADD10RoundRect,0.218750X0.218750X0.256250X-0.218750X0.256250X-0.218750X-0.256250X0.218750X-0.256250X0*%
%ADD11C,7.000000*%
%ADD12R,2.700000X1.000000*%
%ADD13O,2.717800X1.501800*%
%ADD14O,1.501800X2.717800*%
%ADD15C,1.755000*%
G04 APERTURE END LIST*
G36*
X124949873Y-86146948D02*
G01*
X125012308Y-86201481D01*
X125026676Y-86287482D01*
X125021999Y-86306510D01*
X124971278Y-86363997D01*
X124889648Y-86386883D01*
X124814630Y-86365928D01*
X124807207Y-86359390D01*
X124779769Y-86288052D01*
X124797392Y-86205144D01*
X124850838Y-86148188D01*
X124860087Y-86144598D01*
X124949873Y-86146948D01*
G37*
G36*
X126928744Y-82391497D02*
G01*
X126939505Y-82445218D01*
X126942119Y-82553608D01*
X126942173Y-82596929D01*
X126942173Y-82833646D01*
X127161770Y-82833646D01*
X127284419Y-82836316D01*
X127350692Y-82848049D01*
X127377329Y-82874423D01*
X127381366Y-82906844D01*
X127373354Y-82947728D01*
X127338156Y-82969819D01*
X127259033Y-82978698D01*
X127161770Y-82980043D01*
X126942173Y-82980043D01*
X126942173Y-83620533D01*
X126942746Y-83853284D01*
X126945238Y-84024141D01*
X126950808Y-84144404D01*
X126960614Y-84225374D01*
X126975817Y-84278353D01*
X126997574Y-84314641D01*
X127015372Y-84334222D01*
X127094868Y-84393185D01*
X127181578Y-84402388D01*
X127287485Y-84371727D01*
X127355291Y-84353275D01*
X127379249Y-84377090D01*
X127381366Y-84409233D01*
X127349419Y-84482799D01*
X127265471Y-84529803D01*
X127147362Y-84545598D01*
X127012932Y-84525540D01*
X126978336Y-84514184D01*
X126912448Y-84484270D01*
X126862500Y-84442927D01*
X126826061Y-84380262D01*
X126800699Y-84286384D01*
X126783983Y-84151400D01*
X126773480Y-83965417D01*
X126766760Y-83718545D01*
X126765419Y-83647983D01*
X126753363Y-82980043D01*
X126609872Y-82980043D01*
X126515258Y-82973636D01*
X126473965Y-82947867D01*
X126466381Y-82906844D01*
X126478834Y-82858720D01*
X126529012Y-82837617D01*
X126610952Y-82833646D01*
X126755523Y-82833646D01*
X126766500Y-82627228D01*
X126777297Y-82505099D01*
X126798449Y-82436038D01*
X126837874Y-82399952D01*
X126859825Y-82390511D01*
X126904098Y-82378058D01*
X126928744Y-82391497D01*
G37*
G36*
X123822363Y-83784102D02*
G01*
X123949325Y-83660416D01*
X123957166Y-83655179D01*
X124034097Y-83621625D01*
X124159609Y-83584121D01*
X124309889Y-83549536D01*
X124350100Y-83541865D01*
X124501961Y-83514088D01*
X124634836Y-83489539D01*
X124725387Y-83472537D01*
X124739669Y-83469777D01*
X124796254Y-83449018D01*
X124810160Y-83402189D01*
X124799310Y-83335535D01*
X124745738Y-83163889D01*
X124667114Y-83051111D01*
X124553971Y-82984550D01*
X124531091Y-82977061D01*
X124351300Y-82960282D01*
X124160222Y-83009934D01*
X124008570Y-83094922D01*
X123924359Y-83148705D01*
X123882558Y-83153748D01*
X123868747Y-83107442D01*
X123867822Y-83069484D01*
X123901404Y-82987581D01*
X123991173Y-82917997D01*
X124120665Y-82864120D01*
X124273416Y-82829340D01*
X124432959Y-82817045D01*
X124582832Y-82830624D01*
X124706569Y-82873467D01*
X124734259Y-82891146D01*
X124811262Y-82954612D01*
X124869249Y-83024321D01*
X124910842Y-83111338D01*
X124938666Y-83226726D01*
X124955342Y-83381550D01*
X124963493Y-83586872D01*
X124965743Y-83853756D01*
X124965748Y-83867579D01*
X124965413Y-84099925D01*
X124963610Y-84269080D01*
X124959213Y-84385050D01*
X124951095Y-84457842D01*
X124938130Y-84497463D01*
X124919190Y-84513920D01*
X124893149Y-84517219D01*
X124892606Y-84517219D01*
X124845787Y-84505681D01*
X124824232Y-84458461D01*
X124819001Y-84361672D01*
X124818595Y-84206124D01*
X124728168Y-84320832D01*
X124607829Y-84427598D01*
X124448657Y-84509710D01*
X124284527Y-84550982D01*
X124242225Y-84553015D01*
X124145482Y-84537208D01*
X124026924Y-84498793D01*
X123993143Y-84484459D01*
X123853854Y-84385987D01*
X123766447Y-84250958D01*
X123731608Y-84095130D01*
X123738313Y-84036536D01*
X123904421Y-84036536D01*
X123933346Y-84191036D01*
X124012596Y-84313149D01*
X124100484Y-84372788D01*
X124213993Y-84392412D01*
X124355941Y-84380005D01*
X124491509Y-84340363D01*
X124546843Y-84311291D01*
X124669380Y-84190845D01*
X124759538Y-84019538D01*
X124807545Y-83816133D01*
X124808259Y-83809467D01*
X124828559Y-83612784D01*
X124503738Y-83661617D01*
X124356832Y-83683398D01*
X124238542Y-83700365D01*
X124166710Y-83709984D01*
X124154275Y-83711241D01*
X124113098Y-83733268D01*
X124040862Y-83787161D01*
X124017028Y-83806784D01*
X123936457Y-83893740D01*
X123906347Y-83990824D01*
X123904421Y-84036536D01*
X123738313Y-84036536D01*
X123750018Y-83934259D01*
X123822363Y-83784102D01*
G37*
G36*
X133111182Y-83916772D02*
G01*
X133176195Y-83779889D01*
X133292064Y-83674060D01*
X133464936Y-83594422D01*
X133700958Y-83536112D01*
X133813719Y-83517773D01*
X134133960Y-83471404D01*
X134130616Y-83314709D01*
X134097809Y-83157650D01*
X134013715Y-83043903D01*
X133888456Y-82976942D01*
X133732150Y-82960240D01*
X133554920Y-82997269D01*
X133407281Y-83066496D01*
X133237274Y-83166126D01*
X133237274Y-83057812D01*
X133245720Y-82989469D01*
X133282827Y-82942891D01*
X133366247Y-82900269D01*
X133411121Y-82882422D01*
X133583090Y-82835801D01*
X133766534Y-82817947D01*
X133936948Y-82828915D01*
X134069829Y-82868756D01*
X134090868Y-82880925D01*
X134164592Y-82936218D01*
X134220706Y-82999875D01*
X134261816Y-83082496D01*
X134290531Y-83194682D01*
X134309457Y-83347033D01*
X134321200Y-83550151D01*
X134328368Y-83814635D01*
X134329014Y-83849280D01*
X134341070Y-84517219D01*
X134246665Y-84517219D01*
X134184155Y-84508797D01*
X134157643Y-84469331D01*
X134152260Y-84381942D01*
X134152260Y-84246664D01*
X134030939Y-84364253D01*
X133858431Y-84486492D01*
X133666457Y-84544855D01*
X133469125Y-84536439D01*
X133362268Y-84501796D01*
X133212295Y-84400691D01*
X133120159Y-84256868D01*
X133093644Y-84105387D01*
X133249976Y-84105387D01*
X133297588Y-84229260D01*
X133390232Y-84323689D01*
X133514586Y-84381381D01*
X133657329Y-84395044D01*
X133805139Y-84357384D01*
X133892944Y-84305466D01*
X134029317Y-84175740D01*
X134109537Y-84023547D01*
X134144748Y-83827705D01*
X134144818Y-83826737D01*
X134160419Y-83611065D01*
X133837330Y-83662802D01*
X133611248Y-83707571D01*
X133448733Y-83761539D01*
X133340276Y-83829595D01*
X133276371Y-83916628D01*
X133260717Y-83959363D01*
X133249976Y-84105387D01*
X133093644Y-84105387D01*
X133090876Y-84089572D01*
X133111182Y-83916772D01*
G37*
G36*
X116495779Y-84514701D02*
G01*
X116551073Y-84566526D01*
X116607115Y-84661120D01*
X116667000Y-84805207D01*
X116733821Y-85005509D01*
X116810674Y-85268750D01*
X116838014Y-85367825D01*
X116915661Y-85641449D01*
X116983226Y-85852403D01*
X117044907Y-86009811D01*
X117104901Y-86122796D01*
X117167404Y-86200481D01*
X117236613Y-86251989D01*
X117247444Y-86257821D01*
X117342123Y-86294703D01*
X117424757Y-86287780D01*
X117468080Y-86271855D01*
X117549496Y-86220330D01*
X117624599Y-86131742D01*
X117697131Y-85998427D01*
X117770835Y-85812720D01*
X117849454Y-85566959D01*
X117901237Y-85384966D01*
X117984246Y-85090883D01*
X118053008Y-84864671D01*
X118108817Y-84702669D01*
X118152972Y-84601219D01*
X118186770Y-84556661D01*
X118195852Y-84553819D01*
X118225759Y-84588343D01*
X118253238Y-84683619D01*
X118276516Y-84827205D01*
X118293822Y-85006656D01*
X118303385Y-85209530D01*
X118304709Y-85318353D01*
X118270184Y-85771135D01*
X118169422Y-86200175D01*
X118006641Y-86600026D01*
X117786062Y-86965241D01*
X117511904Y-87290372D01*
X117188387Y-87569972D01*
X116819730Y-87798594D01*
X116410152Y-87970790D01*
X116203538Y-88030978D01*
X115927332Y-88080059D01*
X115612874Y-88102516D01*
X115288772Y-88098386D01*
X114983636Y-88067708D01*
X114791165Y-88029055D01*
X114365476Y-87883155D01*
X113978630Y-87678277D01*
X113634887Y-87419954D01*
X113338507Y-87113722D01*
X113093750Y-86765115D01*
X112904873Y-86379668D01*
X112776139Y-85962916D01*
X112711805Y-85520394D01*
X112704998Y-85318353D01*
X112709913Y-85108308D01*
X112723479Y-84915319D01*
X112743923Y-84751829D01*
X112769474Y-84630282D01*
X112798360Y-84563121D01*
X112813855Y-84553819D01*
X112844858Y-84580986D01*
X112885985Y-84664815D01*
X112938478Y-84808797D01*
X113003577Y-85016424D01*
X113082522Y-85291187D01*
X113106030Y-85376094D01*
X113183938Y-85648435D01*
X113251753Y-85858150D01*
X113313713Y-86014395D01*
X113374058Y-86126325D01*
X113437027Y-86203096D01*
X113506859Y-86253864D01*
X113514302Y-86257821D01*
X113608982Y-86294703D01*
X113691616Y-86287780D01*
X113734939Y-86271855D01*
X113815996Y-86220693D01*
X113890672Y-86132909D01*
X113962691Y-86000828D01*
X114035779Y-85816773D01*
X114113659Y-85573067D01*
X114169253Y-85376698D01*
X114250251Y-85090583D01*
X114320071Y-84869524D01*
X114381801Y-84706781D01*
X114438532Y-84595615D01*
X114493351Y-84529288D01*
X114549347Y-84501059D01*
X114571568Y-84498919D01*
X114629208Y-84514701D01*
X114684502Y-84566526D01*
X114740544Y-84661120D01*
X114800429Y-84805207D01*
X114867251Y-85005509D01*
X114944104Y-85268750D01*
X114971443Y-85367825D01*
X115049090Y-85641449D01*
X115116656Y-85852403D01*
X115178337Y-86009811D01*
X115238330Y-86122796D01*
X115300833Y-86200481D01*
X115370043Y-86251989D01*
X115380873Y-86257821D01*
X115475552Y-86294703D01*
X115558187Y-86287780D01*
X115601509Y-86271855D01*
X115682567Y-86220693D01*
X115757243Y-86132909D01*
X115829262Y-86000828D01*
X115902349Y-85816773D01*
X115980229Y-85573067D01*
X116035823Y-85376698D01*
X116116821Y-85090583D01*
X116186641Y-84869524D01*
X116248372Y-84706781D01*
X116305102Y-84595615D01*
X116359921Y-84529288D01*
X116415917Y-84501059D01*
X116438139Y-84498919D01*
X116495779Y-84514701D01*
G37*
G36*
X119547120Y-83033914D02*
G01*
X119599148Y-82825754D01*
X119620599Y-82770437D01*
X119727952Y-82590143D01*
X119880606Y-82418655D01*
X120055011Y-82279801D01*
X120164340Y-82220287D01*
X120322337Y-82176843D01*
X120520652Y-82157976D01*
X120730805Y-82163268D01*
X120924315Y-82192300D01*
X121050077Y-82233287D01*
X121272210Y-82375407D01*
X121453153Y-82576406D01*
X121557989Y-82760224D01*
X121602995Y-82867495D01*
X121630966Y-82968588D01*
X121645729Y-83086731D01*
X121651111Y-83245151D01*
X121651495Y-83327738D01*
X121649081Y-83507379D01*
X121639080Y-83637793D01*
X121617348Y-83742869D01*
X121579743Y-83846498D01*
X121549964Y-83913329D01*
X121473881Y-84054294D01*
X121383350Y-84189175D01*
X121320563Y-84264293D01*
X121192692Y-84395661D01*
X121450574Y-84591713D01*
X121565248Y-84680061D01*
X121653711Y-84750437D01*
X121702760Y-84792236D01*
X121708456Y-84798890D01*
X121676004Y-84805944D01*
X121595218Y-84809781D01*
X121566263Y-84810015D01*
X121472294Y-84799523D01*
X121381306Y-84760791D01*
X121270568Y-84682935D01*
X121226377Y-84647263D01*
X121028684Y-84484511D01*
X120787053Y-84525901D01*
X120501449Y-84542183D01*
X120236996Y-84493962D01*
X120001809Y-84386441D01*
X119804002Y-84224827D01*
X119651692Y-84014325D01*
X119552993Y-83760141D01*
X119545735Y-83729636D01*
X119518128Y-83515127D01*
X119519120Y-83319314D01*
X119700457Y-83319314D01*
X119702933Y-83454128D01*
X119746912Y-83729387D01*
X119842010Y-83964317D01*
X119983887Y-84152149D01*
X120168200Y-84286119D01*
X120262778Y-84326662D01*
X120412753Y-84357718D01*
X120597408Y-84366135D01*
X120781722Y-84351632D01*
X120878409Y-84331582D01*
X121072975Y-84241045D01*
X121234198Y-84091484D01*
X121356886Y-83891445D01*
X121435850Y-83649471D01*
X121465897Y-83374107D01*
X121465997Y-83364337D01*
X121455041Y-83109622D01*
X121414816Y-82907155D01*
X121340306Y-82740123D01*
X121239844Y-82606254D01*
X121058032Y-82447801D01*
X120852524Y-82354919D01*
X120611100Y-82322225D01*
X120594579Y-82322057D01*
X120345065Y-82353523D01*
X120129974Y-82446217D01*
X119953637Y-82594642D01*
X119820385Y-82793298D01*
X119734548Y-83036688D01*
X119700457Y-83319314D01*
X119519120Y-83319314D01*
X119519352Y-83273463D01*
X119547120Y-83033914D01*
G37*
G36*
X133027419Y-82182438D02*
G01*
X133042829Y-82216929D01*
X133032486Y-82257205D01*
X133015727Y-82312030D01*
X132981106Y-82427722D01*
X132931400Y-82594921D01*
X132869383Y-82804263D01*
X132797833Y-83046387D01*
X132719525Y-83311931D01*
X132687924Y-83419236D01*
X132596899Y-83726809D01*
X132523219Y-83971105D01*
X132464297Y-84159279D01*
X132417549Y-84298487D01*
X132380387Y-84395885D01*
X132350227Y-84458628D01*
X132324481Y-84493872D01*
X132300565Y-84508774D01*
X132293627Y-84510308D01*
X132234553Y-84501160D01*
X132195816Y-84440891D01*
X132182874Y-84400510D01*
X132124059Y-84195448D01*
X132058064Y-83969975D01*
X131988179Y-83734849D01*
X131917697Y-83500827D01*
X131849910Y-83278665D01*
X131788109Y-83079120D01*
X131735587Y-82912949D01*
X131695635Y-82790910D01*
X131671545Y-82723758D01*
X131666894Y-82714450D01*
X131649544Y-82740314D01*
X131613873Y-82827375D01*
X131562992Y-82966837D01*
X131500008Y-83149904D01*
X131428030Y-83367780D01*
X131353211Y-83601986D01*
X131262646Y-83887304D01*
X131189964Y-84109398D01*
X131132460Y-84275288D01*
X131087429Y-84391995D01*
X131052167Y-84466538D01*
X131023969Y-84505938D01*
X131000604Y-84517219D01*
X130936800Y-84503687D01*
X130919535Y-84489770D01*
X130905544Y-84449488D01*
X130873873Y-84349418D01*
X130827650Y-84199949D01*
X130770001Y-84011473D01*
X130704053Y-83794380D01*
X130632931Y-83559062D01*
X130559763Y-83315910D01*
X130487675Y-83075313D01*
X130419794Y-82847663D01*
X130359245Y-82643351D01*
X130309155Y-82472767D01*
X130272651Y-82346303D01*
X130252859Y-82274349D01*
X130252426Y-82272621D01*
X130240632Y-82200261D01*
X130267991Y-82177413D01*
X130328601Y-82181122D01*
X130358922Y-82186437D01*
X130385269Y-82199687D01*
X130410630Y-82228637D01*
X130437994Y-82281050D01*
X130470350Y-82364688D01*
X130510687Y-82487315D01*
X130561991Y-82656694D01*
X130627253Y-82880588D01*
X130709459Y-83166761D01*
X130713637Y-83181340D01*
X130787252Y-83433750D01*
X130855295Y-83658541D01*
X130915062Y-83847443D01*
X130963844Y-83992190D01*
X130998937Y-84084512D01*
X131017634Y-84116141D01*
X131019102Y-84114625D01*
X131035509Y-84066079D01*
X131070341Y-83957355D01*
X131120524Y-83798248D01*
X131182982Y-83598551D01*
X131254640Y-83368057D01*
X131329375Y-83126441D01*
X131423694Y-82826524D01*
X131505308Y-82578830D01*
X131572722Y-82387524D01*
X131624440Y-82256771D01*
X131658968Y-82190736D01*
X131667877Y-82183322D01*
X131690345Y-82202134D01*
X131722600Y-82268665D01*
X131766189Y-82387493D01*
X131822659Y-82563200D01*
X131893555Y-82800362D01*
X131980425Y-83103561D01*
X131989266Y-83134907D01*
X132061354Y-83388771D01*
X132127949Y-83619497D01*
X132186257Y-83817697D01*
X132233480Y-83973983D01*
X132266822Y-84078968D01*
X132283487Y-84123265D01*
X132283818Y-84123702D01*
X132299227Y-84097127D01*
X132330997Y-84008491D01*
X132376466Y-83866413D01*
X132432974Y-83679517D01*
X132497860Y-83456425D01*
X132568463Y-83205757D01*
X132580241Y-83163201D01*
X132852980Y-82175324D01*
X132956095Y-82175090D01*
X133027419Y-82182438D01*
G37*
G36*
X131348960Y-86774167D02*
G01*
X131400317Y-86836949D01*
X131407303Y-86883085D01*
X131399541Y-86944889D01*
X131363011Y-86946838D01*
X131331958Y-86931632D01*
X131212381Y-86905123D01*
X131087804Y-86940468D01*
X130969883Y-87028244D01*
X130870269Y-87159027D01*
X130800619Y-87323392D01*
X130788764Y-87370890D01*
X130772797Y-87482948D01*
X130759827Y-87645553D01*
X130751271Y-87836071D01*
X130748513Y-88014266D01*
X130747842Y-88203690D01*
X130744552Y-88331833D01*
X130736729Y-88410609D01*
X130722459Y-88451930D01*
X130699830Y-88467712D01*
X130675315Y-88469957D01*
X130651921Y-88467364D01*
X130634128Y-88453719D01*
X130621170Y-88420223D01*
X130612281Y-88358074D01*
X130606696Y-88258475D01*
X130603651Y-88112624D01*
X130602379Y-87911722D01*
X130602116Y-87646969D01*
X130602116Y-87628170D01*
X130602341Y-87359150D01*
X130603528Y-87154529D01*
X130606440Y-87005507D01*
X130611845Y-86903284D01*
X130620505Y-86839060D01*
X130633188Y-86804036D01*
X130650658Y-86789412D01*
X130673680Y-86786388D01*
X130675315Y-86786383D01*
X130722114Y-86797895D01*
X130743618Y-86845039D01*
X130748755Y-86941931D01*
X130748996Y-87097478D01*
X130821255Y-86987680D01*
X130914014Y-86883383D01*
X131027836Y-86807264D01*
X131148048Y-86761943D01*
X131259980Y-86750038D01*
X131348960Y-86774167D01*
G37*
G36*
X126483397Y-86807472D02*
G01*
X126577313Y-86860390D01*
X126650649Y-86924046D01*
X126706123Y-87003641D01*
X126746013Y-87109473D01*
X126772596Y-87251838D01*
X126788147Y-87441035D01*
X126794944Y-87687361D01*
X126795776Y-87848507D01*
X126795391Y-88075046D01*
X126793434Y-88238616D01*
X126788701Y-88349445D01*
X126779986Y-88417763D01*
X126766084Y-88453796D01*
X126745790Y-88467775D01*
X126722577Y-88469957D01*
X126694085Y-88466273D01*
X126674133Y-88447863D01*
X126661206Y-88403692D01*
X126653786Y-88322726D01*
X126650359Y-88193928D01*
X126649407Y-88006264D01*
X126649378Y-87937172D01*
X126643982Y-87628731D01*
X126625819Y-87385929D01*
X126591923Y-87201864D01*
X126539328Y-87069638D01*
X126465070Y-86982348D01*
X126366183Y-86933094D01*
X126239702Y-86914976D01*
X126209920Y-86914481D01*
X126027896Y-86942773D01*
X125879923Y-87031334D01*
X125756923Y-87185688D01*
X125752692Y-87192803D01*
X125724058Y-87250196D01*
X125703205Y-87318869D01*
X125688532Y-87411934D01*
X125678438Y-87542501D01*
X125671321Y-87723681D01*
X125667128Y-87893516D01*
X125661919Y-88110862D01*
X125656106Y-88265577D01*
X125648180Y-88368224D01*
X125636632Y-88429363D01*
X125619954Y-88459559D01*
X125596635Y-88469372D01*
X125584779Y-88469957D01*
X125562398Y-88466714D01*
X125545372Y-88451132D01*
X125532972Y-88414428D01*
X125524467Y-88347821D01*
X125519127Y-88242529D01*
X125516222Y-88089770D01*
X125515022Y-87880763D01*
X125514796Y-87628170D01*
X125515021Y-87359150D01*
X125516208Y-87154529D01*
X125519120Y-87005507D01*
X125524525Y-86903284D01*
X125533186Y-86839060D01*
X125545868Y-86804036D01*
X125563338Y-86789412D01*
X125586360Y-86786388D01*
X125587995Y-86786383D01*
X125635723Y-86798541D01*
X125656929Y-86847781D01*
X125661193Y-86934055D01*
X125661193Y-87081726D01*
X125774335Y-86952865D01*
X125922758Y-86835752D01*
X126104145Y-86770901D01*
X126297891Y-86760683D01*
X126483397Y-86807472D01*
G37*
G36*
X115964886Y-82538240D02*
G01*
X116399344Y-82638204D01*
X116803278Y-82801142D01*
X117171745Y-83024049D01*
X117499796Y-83303925D01*
X117782485Y-83637765D01*
X118014865Y-84022567D01*
X118018703Y-84030235D01*
X118168255Y-84330139D01*
X118072485Y-84443954D01*
X118009094Y-84548385D01*
X117935609Y-84721635D01*
X117853252Y-84960205D01*
X117763244Y-85260595D01*
X117679442Y-85570348D01*
X117604120Y-85812859D01*
X117524112Y-85982445D01*
X117441077Y-86079108D01*
X117356673Y-86102848D01*
X117272559Y-86053664D01*
X117190392Y-85931557D01*
X117111831Y-85736526D01*
X117063406Y-85570348D01*
X116973944Y-85237293D01*
X116894913Y-84969391D01*
X116823779Y-84759756D01*
X116758006Y-84601501D01*
X116695060Y-84487737D01*
X116639454Y-84418419D01*
X116526540Y-84327901D01*
X116425492Y-84303832D01*
X116320366Y-84344952D01*
X116262400Y-84388630D01*
X116195664Y-84459263D01*
X116132993Y-84559362D01*
X116070754Y-84697876D01*
X116005316Y-84883756D01*
X115933047Y-85125951D01*
X115871960Y-85350761D01*
X115804892Y-85596055D01*
X115748462Y-85780121D01*
X115698539Y-85913428D01*
X115650997Y-86006442D01*
X115601705Y-86069632D01*
X115580932Y-86088605D01*
X115500209Y-86118905D01*
X115419412Y-86077932D01*
X115339945Y-85967598D01*
X115263214Y-85789813D01*
X115195095Y-85563898D01*
X115105570Y-85230686D01*
X115026304Y-84962750D01*
X114954790Y-84753289D01*
X114888521Y-84595503D01*
X114824990Y-84482591D01*
X114772884Y-84418419D01*
X114659969Y-84327901D01*
X114558921Y-84303832D01*
X114453795Y-84344952D01*
X114395829Y-84388630D01*
X114329177Y-84459148D01*
X114266588Y-84559043D01*
X114204432Y-84697264D01*
X114139079Y-84882762D01*
X114066899Y-85124485D01*
X114005061Y-85351994D01*
X113944409Y-85576989D01*
X113895779Y-85743394D01*
X113854416Y-85863870D01*
X113815563Y-85951077D01*
X113774462Y-86017674D01*
X113737706Y-86063545D01*
X113660993Y-86120991D01*
X113586102Y-86107056D01*
X113535553Y-86062205D01*
X113471022Y-85968070D01*
X113408674Y-85827122D01*
X113344906Y-85630026D01*
X113291753Y-85430872D01*
X113206525Y-85113750D01*
X113122736Y-84846809D01*
X113042695Y-84636444D01*
X112968706Y-84489047D01*
X112934496Y-84440714D01*
X112841452Y-84330139D01*
X112991004Y-84030235D01*
X113222396Y-83644507D01*
X113504189Y-83309686D01*
X113831437Y-83028773D01*
X114199192Y-82804772D01*
X114602509Y-82640684D01*
X115036440Y-82539514D01*
X115496040Y-82504263D01*
X115504853Y-82504251D01*
X115964886Y-82538240D01*
G37*
G36*
X120720271Y-86310591D02*
G01*
X119805286Y-86310591D01*
X119805286Y-87225576D01*
X120226179Y-87225576D01*
X120407020Y-87226353D01*
X120527051Y-87230118D01*
X120598656Y-87239024D01*
X120634218Y-87255227D01*
X120646121Y-87280880D01*
X120647072Y-87298775D01*
X120642609Y-87330226D01*
X120620961Y-87351101D01*
X120569747Y-87363554D01*
X120476581Y-87369739D01*
X120329080Y-87371809D01*
X120226179Y-87371974D01*
X119805286Y-87371974D01*
X119805286Y-88286960D01*
X120756871Y-88286960D01*
X120756871Y-88469957D01*
X119622289Y-88469957D01*
X119622289Y-86127594D01*
X120720271Y-86127594D01*
X120720271Y-86310591D01*
G37*
G36*
X131796690Y-86788976D02*
G01*
X131814483Y-86802621D01*
X131827442Y-86836118D01*
X131836331Y-86898266D01*
X131841915Y-86997866D01*
X131844961Y-87143717D01*
X131846233Y-87344619D01*
X131846496Y-87609371D01*
X131846496Y-87628170D01*
X131846271Y-87897190D01*
X131845084Y-88101811D01*
X131842171Y-88250833D01*
X131836767Y-88353056D01*
X131828106Y-88417280D01*
X131815424Y-88452304D01*
X131797954Y-88466928D01*
X131774932Y-88469952D01*
X131773297Y-88469957D01*
X131749904Y-88467364D01*
X131732111Y-88453719D01*
X131719153Y-88420223D01*
X131710264Y-88358074D01*
X131704679Y-88258475D01*
X131701633Y-88112624D01*
X131700362Y-87911722D01*
X131700099Y-87646969D01*
X131700098Y-87628170D01*
X131700324Y-87359150D01*
X131701510Y-87154529D01*
X131704423Y-87005507D01*
X131709827Y-86903284D01*
X131718488Y-86839060D01*
X131731171Y-86804036D01*
X131748641Y-86789412D01*
X131771663Y-86786388D01*
X131773297Y-86786383D01*
X131796690Y-86788976D01*
G37*
G36*
X136264062Y-83283614D02*
G01*
X136352536Y-83130202D01*
X136432741Y-83037146D01*
X136615941Y-82889469D01*
X136810740Y-82813151D01*
X137014141Y-82808784D01*
X137223149Y-82876965D01*
X137228006Y-82879395D01*
X137382462Y-82997498D01*
X137496659Y-83172932D01*
X137567149Y-83399755D01*
X137580425Y-83486497D01*
X137602802Y-83675432D01*
X136375512Y-83675432D01*
X136393357Y-83861156D01*
X136443789Y-84063817D01*
X136545459Y-84221757D01*
X136688350Y-84330326D01*
X136862444Y-84384873D01*
X137057723Y-84380748D01*
X137264169Y-84313302D01*
X137312851Y-84287968D01*
X137487421Y-84190399D01*
X137475964Y-84289760D01*
X137431720Y-84376986D01*
X137331336Y-84449860D01*
X137191168Y-84504145D01*
X137027574Y-84535604D01*
X136856908Y-84540002D01*
X136695529Y-84513102D01*
X136659320Y-84501272D01*
X136477011Y-84397544D01*
X136338387Y-84238368D01*
X136246517Y-84029193D01*
X136204470Y-83775470D01*
X136202032Y-83689486D01*
X136212212Y-83529035D01*
X136376889Y-83529035D01*
X136893249Y-83529035D01*
X137096676Y-83528632D01*
X137238150Y-83526263D01*
X137328915Y-83520186D01*
X137380215Y-83508661D01*
X137403295Y-83489948D01*
X137409400Y-83462304D01*
X137409608Y-83449091D01*
X137393944Y-83367928D01*
X137354546Y-83258251D01*
X137334792Y-83214598D01*
X137231708Y-83069298D01*
X137100216Y-82982341D01*
X136952251Y-82950991D01*
X136799751Y-82972513D01*
X136654651Y-83044173D01*
X136528889Y-83163236D01*
X136434399Y-83326966D01*
X136401700Y-83428386D01*
X136376889Y-83529035D01*
X136212212Y-83529035D01*
X136216405Y-83462941D01*
X136264062Y-83283614D01*
G37*
G36*
X125002404Y-88469957D02*
G01*
X124819407Y-88469957D01*
X124819407Y-86786383D01*
X125002404Y-86786383D01*
X125002404Y-88469957D01*
G37*
G36*
X127626598Y-83283614D02*
G01*
X127715072Y-83130202D01*
X127795277Y-83037146D01*
X127978477Y-82889469D01*
X128173276Y-82813151D01*
X128376677Y-82808784D01*
X128585685Y-82876965D01*
X128590542Y-82879395D01*
X128744998Y-82997498D01*
X128859195Y-83172932D01*
X128929685Y-83399755D01*
X128942961Y-83486497D01*
X128965338Y-83675432D01*
X127738048Y-83675432D01*
X127755893Y-83861156D01*
X127806325Y-84063817D01*
X127907995Y-84221757D01*
X128050886Y-84330326D01*
X128224980Y-84384873D01*
X128420259Y-84380748D01*
X128626705Y-84313302D01*
X128675387Y-84287968D01*
X128849957Y-84190399D01*
X128838500Y-84289760D01*
X128794256Y-84376986D01*
X128693872Y-84449860D01*
X128553704Y-84504145D01*
X128390110Y-84535604D01*
X128219444Y-84540002D01*
X128058065Y-84513102D01*
X128021856Y-84501272D01*
X127839547Y-84397544D01*
X127700923Y-84238368D01*
X127609053Y-84029193D01*
X127567006Y-83775470D01*
X127564568Y-83689486D01*
X127574748Y-83529035D01*
X127739425Y-83529035D01*
X128255785Y-83529035D01*
X128459212Y-83528632D01*
X128600686Y-83526263D01*
X128691451Y-83520186D01*
X128742751Y-83508661D01*
X128765831Y-83489948D01*
X128771936Y-83462304D01*
X128772144Y-83449091D01*
X128756480Y-83367928D01*
X128717082Y-83258251D01*
X128697328Y-83214598D01*
X128594244Y-83069298D01*
X128462752Y-82982341D01*
X128314787Y-82950991D01*
X128162287Y-82972513D01*
X128017188Y-83044173D01*
X127891425Y-83163236D01*
X127796935Y-83326966D01*
X127764236Y-83428386D01*
X127739425Y-83529035D01*
X127574748Y-83529035D01*
X127578942Y-83462941D01*
X127626598Y-83283614D01*
G37*
G36*
X134044768Y-87368992D02*
G01*
X134078181Y-87267823D01*
X134134281Y-87156323D01*
X134274156Y-86962583D01*
X134446669Y-86833461D01*
X134655281Y-86766441D01*
X134675012Y-86763497D01*
X134840446Y-86763243D01*
X135006014Y-86800181D01*
X135146884Y-86866262D01*
X135232004Y-86943975D01*
X135269540Y-86992865D01*
X135284260Y-86984470D01*
X135286840Y-86911071D01*
X135286842Y-86904325D01*
X135294988Y-86822319D01*
X135331305Y-86790580D01*
X135381526Y-86786383D01*
X135476210Y-86786383D01*
X135463875Y-87728819D01*
X135459820Y-88017292D01*
X135455540Y-88242536D01*
X135450156Y-88414517D01*
X135442793Y-88543202D01*
X135432574Y-88638558D01*
X135418624Y-88710551D01*
X135400065Y-88769147D01*
X135376021Y-88824315D01*
X135365675Y-88845618D01*
X135245495Y-89017590D01*
X135078690Y-89136636D01*
X134861669Y-89204887D01*
X134732965Y-89220648D01*
X134606116Y-89227415D01*
X134507754Y-89228367D01*
X134463355Y-89224112D01*
X134407905Y-89206015D01*
X134312162Y-89176354D01*
X134271208Y-89163931D01*
X134171054Y-89126118D01*
X134125301Y-89082599D01*
X134115660Y-89028340D01*
X134130315Y-88964027D01*
X134161410Y-88958815D01*
X134431119Y-89046376D01*
X134672619Y-89074223D01*
X134881028Y-89044743D01*
X135051459Y-88960320D01*
X135179028Y-88823341D01*
X135258852Y-88636191D01*
X135286038Y-88409524D01*
X135286842Y-88220992D01*
X135173727Y-88326657D01*
X135007648Y-88434789D01*
X134807443Y-88490830D01*
X134605886Y-88489590D01*
X134398583Y-88425749D01*
X134235021Y-88304588D01*
X134117077Y-88128829D01*
X134046625Y-87901195D01*
X134025367Y-87646470D01*
X134028211Y-87530016D01*
X134190732Y-87530016D01*
X134192254Y-87741924D01*
X134231631Y-87944108D01*
X134305564Y-88113263D01*
X134349477Y-88172678D01*
X134491707Y-88283961D01*
X134660345Y-88340514D01*
X134835474Y-88339804D01*
X134997176Y-88279301D01*
X135027477Y-88258825D01*
X135147100Y-88153267D01*
X135225185Y-88036131D01*
X135269029Y-87889468D01*
X135285931Y-87695329D01*
X135286842Y-87620940D01*
X135279167Y-87409304D01*
X135252477Y-87253172D01*
X135201276Y-87136111D01*
X135120067Y-87041684D01*
X135082563Y-87010173D01*
X134925889Y-86928915D01*
X134755907Y-86910303D01*
X134586599Y-86949063D01*
X134431947Y-87039920D01*
X134305932Y-87177599D01*
X134230367Y-87331686D01*
X134190732Y-87530016D01*
X134028211Y-87530016D01*
X134029295Y-87485613D01*
X134044768Y-87368992D01*
G37*
G36*
X135999647Y-82844159D02*
G01*
X136018830Y-82862221D01*
X136005753Y-82902896D01*
X135969046Y-83001661D01*
X135912493Y-83148734D01*
X135839879Y-83334335D01*
X135754991Y-83548683D01*
X135696601Y-83694858D01*
X135590032Y-83958219D01*
X135505520Y-84160363D01*
X135439488Y-84308636D01*
X135388359Y-84410383D01*
X135348554Y-84472950D01*
X135316497Y-84503683D01*
X135299688Y-84509870D01*
X135273390Y-84506659D01*
X135245431Y-84484052D01*
X135212071Y-84434340D01*
X135169569Y-84349815D01*
X135114183Y-84222770D01*
X135042174Y-84045495D01*
X134949801Y-83810282D01*
X134908229Y-83703194D01*
X134819604Y-83473406D01*
X134740543Y-83266419D01*
X134674694Y-83091953D01*
X134625708Y-82959730D01*
X134597236Y-82879468D01*
X134591453Y-82859606D01*
X134622654Y-82839619D01*
X134677250Y-82833646D01*
X134707734Y-82838843D01*
X134737081Y-82860101D01*
X134769442Y-82905913D01*
X134808967Y-82984775D01*
X134859807Y-83105184D01*
X134926114Y-83275634D01*
X135012038Y-83504621D01*
X135034095Y-83563989D01*
X135114233Y-83776484D01*
X135186128Y-83960578D01*
X135245973Y-84107063D01*
X135289964Y-84206729D01*
X135314295Y-84250367D01*
X135317629Y-84250228D01*
X135333922Y-84203781D01*
X135372059Y-84100028D01*
X135427895Y-83950091D01*
X135497286Y-83765094D01*
X135576085Y-83556159D01*
X135589807Y-83519885D01*
X135679372Y-83285071D01*
X135748322Y-83110357D01*
X135801023Y-82987040D01*
X135841844Y-82906416D01*
X135875151Y-82859782D01*
X135905313Y-82838435D01*
X135934163Y-82833646D01*
X135999647Y-82844159D01*
G37*
G36*
X122220848Y-83418496D02*
G01*
X122222806Y-83665989D01*
X122229311Y-83852334D01*
X122241311Y-83989491D01*
X122259754Y-84089423D01*
X122278592Y-84147664D01*
X122365087Y-84282164D01*
X122485957Y-84363810D01*
X122627327Y-84394793D01*
X122775324Y-84377307D01*
X122916073Y-84313542D01*
X123035700Y-84205692D01*
X123120330Y-84055948D01*
X123134326Y-84012464D01*
X123148155Y-83926248D01*
X123159736Y-83784727D01*
X123168036Y-83605785D01*
X123172025Y-83407306D01*
X123172229Y-83355187D01*
X123172835Y-83150340D01*
X123175515Y-83007538D01*
X123181837Y-82915631D01*
X123193370Y-82863467D01*
X123211685Y-82839894D01*
X123238350Y-82833762D01*
X123245632Y-82833646D01*
X123269025Y-82836238D01*
X123286818Y-82849883D01*
X123299776Y-82883380D01*
X123308665Y-82945528D01*
X123314250Y-83045128D01*
X123317295Y-83190979D01*
X123318567Y-83391881D01*
X123318830Y-83656634D01*
X123318830Y-83675432D01*
X123318605Y-83944452D01*
X123317418Y-84149074D01*
X123314506Y-84298096D01*
X123309101Y-84400319D01*
X123300441Y-84464542D01*
X123287758Y-84499566D01*
X123270288Y-84514190D01*
X123247266Y-84517214D01*
X123245632Y-84517219D01*
X123196470Y-84503960D01*
X123175669Y-84451263D01*
X123172433Y-84380345D01*
X123172433Y-84243471D01*
X123075689Y-84347805D01*
X122909546Y-84478499D01*
X122717986Y-84540852D01*
X122503214Y-84534308D01*
X122416029Y-84513658D01*
X122276899Y-84436981D01*
X122164365Y-84301824D01*
X122088346Y-84120983D01*
X122077712Y-84077293D01*
X122063052Y-83971669D01*
X122050819Y-83812533D01*
X122042110Y-83619560D01*
X122038022Y-83412422D01*
X122037851Y-83362536D01*
X122037851Y-82833646D01*
X122220848Y-82833646D01*
X122220848Y-83418496D01*
G37*
G36*
X133331044Y-86803392D02*
G01*
X133419413Y-86853303D01*
X133498698Y-86919056D01*
X133558612Y-86989794D01*
X133602103Y-87076850D01*
X133632117Y-87191554D01*
X133651601Y-87345239D01*
X133663502Y-87549236D01*
X133670765Y-87814876D01*
X133670872Y-87820317D01*
X133683577Y-88469957D01*
X133493470Y-88469957D01*
X133493470Y-87862448D01*
X133490752Y-87590292D01*
X133480852Y-87381328D01*
X133461153Y-87225693D01*
X133429037Y-87113523D01*
X133381888Y-87034954D01*
X133317088Y-86980122D01*
X133250443Y-86946578D01*
X133131782Y-86906405D01*
X133032183Y-86903187D01*
X132919511Y-86938768D01*
X132852973Y-86969384D01*
X132699933Y-87080663D01*
X132621822Y-87184814D01*
X132591123Y-87245423D01*
X132569420Y-87309311D01*
X132555178Y-87390167D01*
X132546865Y-87501675D01*
X132542947Y-87657524D01*
X132541892Y-87871400D01*
X132541885Y-87898499D01*
X132541885Y-88469957D01*
X132358888Y-88469957D01*
X132358888Y-86786383D01*
X132450387Y-86786383D01*
X132512761Y-86796248D01*
X132537919Y-86840287D01*
X132541885Y-86911666D01*
X132541885Y-87036949D01*
X132645900Y-86932934D01*
X132793640Y-86829884D01*
X132971890Y-86772419D01*
X133158431Y-86762826D01*
X133331044Y-86803392D01*
G37*
G36*
X122918543Y-87368992D02*
G01*
X122951957Y-87267823D01*
X123008056Y-87156323D01*
X123147932Y-86962583D01*
X123320444Y-86833461D01*
X123529056Y-86766441D01*
X123548787Y-86763497D01*
X123714221Y-86763243D01*
X123879789Y-86800181D01*
X124020659Y-86866262D01*
X124105779Y-86943975D01*
X124143315Y-86992865D01*
X124158035Y-86984470D01*
X124160615Y-86911071D01*
X124160617Y-86904325D01*
X124168763Y-86822319D01*
X124205080Y-86790580D01*
X124255301Y-86786383D01*
X124349985Y-86786383D01*
X124337650Y-87728819D01*
X124333596Y-88017292D01*
X124329315Y-88242536D01*
X124323931Y-88414517D01*
X124316568Y-88543202D01*
X124306350Y-88638558D01*
X124292399Y-88710551D01*
X124273840Y-88769147D01*
X124249797Y-88824315D01*
X124239450Y-88845618D01*
X124119270Y-89017590D01*
X123952466Y-89136636D01*
X123735444Y-89204887D01*
X123606740Y-89220648D01*
X123479891Y-89227415D01*
X123381529Y-89228367D01*
X123337130Y-89224112D01*
X123281680Y-89206015D01*
X123185937Y-89176354D01*
X123144983Y-89163931D01*
X123044829Y-89126118D01*
X122999076Y-89082599D01*
X122989436Y-89028340D01*
X123004090Y-88964027D01*
X123035185Y-88958815D01*
X123304894Y-89046376D01*
X123546395Y-89074223D01*
X123754803Y-89044743D01*
X123925234Y-88960320D01*
X124052804Y-88823341D01*
X124132627Y-88636191D01*
X124159813Y-88409524D01*
X124160617Y-88220992D01*
X124047502Y-88326657D01*
X123881424Y-88434789D01*
X123681218Y-88490830D01*
X123479662Y-88489590D01*
X123272358Y-88425749D01*
X123108797Y-88304588D01*
X122990852Y-88128829D01*
X122920400Y-87901195D01*
X122899142Y-87646470D01*
X122901986Y-87530016D01*
X123064507Y-87530016D01*
X123066029Y-87741924D01*
X123105407Y-87944108D01*
X123179340Y-88113263D01*
X123223252Y-88172678D01*
X123365482Y-88283961D01*
X123534120Y-88340514D01*
X123709249Y-88339804D01*
X123870951Y-88279301D01*
X123901253Y-88258825D01*
X124020876Y-88153267D01*
X124098960Y-88036131D01*
X124142805Y-87889468D01*
X124159707Y-87695329D01*
X124160617Y-87620940D01*
X124152942Y-87409304D01*
X124126253Y-87253172D01*
X124075052Y-87136111D01*
X123993842Y-87041684D01*
X123956339Y-87010173D01*
X123799664Y-86928915D01*
X123629682Y-86910303D01*
X123460374Y-86949063D01*
X123305722Y-87039920D01*
X123179707Y-87177599D01*
X123104142Y-87331686D01*
X123064507Y-87530016D01*
X122901986Y-87530016D01*
X122903070Y-87485613D01*
X122918543Y-87368992D01*
G37*
G36*
X130034200Y-82812651D02*
G01*
X130103882Y-82854270D01*
X130126323Y-82922662D01*
X130119903Y-82981226D01*
X130086287Y-82991737D01*
X130021366Y-82970668D01*
X129898481Y-82960832D01*
X129773280Y-83014515D01*
X129659317Y-83123778D01*
X129599201Y-83217940D01*
X129569192Y-83283525D01*
X129547442Y-83357078D01*
X129532275Y-83452298D01*
X129522015Y-83582883D01*
X129514986Y-83762531D01*
X129510764Y-83940778D01*
X129499096Y-84517219D01*
X129321136Y-84517219D01*
X129321136Y-82833646D01*
X129412634Y-82833646D01*
X129474028Y-82842938D01*
X129499521Y-82885081D01*
X129504133Y-82964552D01*
X129504133Y-83095458D01*
X129596829Y-82985294D01*
X129698196Y-82895024D01*
X129815470Y-82834908D01*
X129932767Y-82806824D01*
X130034200Y-82812651D01*
G37*
G36*
X126154661Y-82812651D02*
G01*
X126224343Y-82854270D01*
X126246784Y-82922662D01*
X126240364Y-82981226D01*
X126206749Y-82991737D01*
X126141827Y-82970668D01*
X126018942Y-82960832D01*
X125893741Y-83014515D01*
X125779778Y-83123778D01*
X125719662Y-83217940D01*
X125689653Y-83283525D01*
X125667903Y-83357078D01*
X125652736Y-83452298D01*
X125642476Y-83582883D01*
X125635447Y-83762531D01*
X125631225Y-83940778D01*
X125619557Y-84517219D01*
X125441597Y-84517219D01*
X125441597Y-82833646D01*
X125533095Y-82833646D01*
X125594489Y-82842938D01*
X125619982Y-82885081D01*
X125624594Y-82964552D01*
X125624594Y-83095458D01*
X125717290Y-82985294D01*
X125818657Y-82895024D01*
X125935932Y-82834908D01*
X126053229Y-82806824D01*
X126154661Y-82812651D01*
G37*
G36*
X131807943Y-86145274D02*
G01*
X131870354Y-86193731D01*
X131883156Y-86265483D01*
X131850906Y-86334588D01*
X131778159Y-86375101D01*
X131767289Y-86376768D01*
X131686228Y-86368711D01*
X131645294Y-86310852D01*
X131644579Y-86308638D01*
X131646025Y-86217014D01*
X131700287Y-86154282D01*
X131787550Y-86140261D01*
X131807943Y-86145274D01*
G37*
G36*
X127277432Y-87162561D02*
G01*
X127411125Y-86976317D01*
X127418052Y-86969294D01*
X127595035Y-86835831D01*
X127783730Y-86767329D01*
X127973240Y-86759126D01*
X128152674Y-86806561D01*
X128311136Y-86904974D01*
X128437733Y-87049704D01*
X128521570Y-87236091D01*
X128551744Y-87454323D01*
X128552548Y-87628170D01*
X127335412Y-87628170D01*
X127359956Y-87783718D01*
X127417849Y-87999111D01*
X127517670Y-88159668D01*
X127664943Y-88274054D01*
X127676282Y-88280094D01*
X127839476Y-88339566D01*
X128005094Y-88342969D01*
X128189323Y-88289177D01*
X128300806Y-88236698D01*
X128479349Y-88144067D01*
X128479349Y-88235871D01*
X128465252Y-88299552D01*
X128412081Y-88350683D01*
X128311904Y-88401744D01*
X128127622Y-88460943D01*
X127927701Y-88489386D01*
X127741953Y-88484331D01*
X127646415Y-88462980D01*
X127553480Y-88412667D01*
X127445643Y-88327921D01*
X127385250Y-88268634D01*
X127258763Y-88080301D01*
X127185164Y-87858669D01*
X127164026Y-87620596D01*
X127182075Y-87481772D01*
X127349877Y-87481772D01*
X128404320Y-87481772D01*
X128381708Y-87362824D01*
X128316040Y-87162683D01*
X128209524Y-87017717D01*
X128068823Y-86932150D01*
X127900599Y-86910202D01*
X127728932Y-86949185D01*
X127566648Y-87049275D01*
X127445630Y-87209040D01*
X127381739Y-87370675D01*
X127349877Y-87481772D01*
X127182075Y-87481772D01*
X127194924Y-87382940D01*
X127277432Y-87162561D01*
G37*
G36*
X122201264Y-86807472D02*
G01*
X122295181Y-86860390D01*
X122368516Y-86924046D01*
X122423990Y-87003641D01*
X122463881Y-87109473D01*
X122490463Y-87251838D01*
X122506014Y-87441035D01*
X122512811Y-87687361D01*
X122513643Y-87848507D01*
X122513259Y-88075046D01*
X122511302Y-88238616D01*
X122506568Y-88349445D01*
X122497853Y-88417763D01*
X122483951Y-88453796D01*
X122463658Y-88467775D01*
X122440444Y-88469957D01*
X122411952Y-88466273D01*
X122392000Y-88447863D01*
X122379073Y-88403692D01*
X122371654Y-88322726D01*
X122368226Y-88193928D01*
X122367275Y-88006264D01*
X122367245Y-87937172D01*
X122361850Y-87628731D01*
X122343687Y-87385929D01*
X122309790Y-87201864D01*
X122257196Y-87069638D01*
X122182938Y-86982348D01*
X122084051Y-86933094D01*
X121957570Y-86914976D01*
X121927788Y-86914481D01*
X121745763Y-86942773D01*
X121597790Y-87031334D01*
X121474790Y-87185688D01*
X121470559Y-87192803D01*
X121441926Y-87250196D01*
X121421073Y-87318869D01*
X121406400Y-87411934D01*
X121396305Y-87542501D01*
X121389189Y-87723681D01*
X121384995Y-87893516D01*
X121379786Y-88110862D01*
X121373974Y-88265577D01*
X121366048Y-88368224D01*
X121354500Y-88429363D01*
X121337821Y-88459559D01*
X121314503Y-88469372D01*
X121302647Y-88469957D01*
X121280265Y-88466714D01*
X121263240Y-88451132D01*
X121250839Y-88414428D01*
X121242334Y-88347821D01*
X121236994Y-88242529D01*
X121234089Y-88089770D01*
X121232889Y-87880763D01*
X121232663Y-87628170D01*
X121232889Y-87359150D01*
X121234075Y-87154529D01*
X121236988Y-87005507D01*
X121242392Y-86903284D01*
X121251053Y-86839060D01*
X121263736Y-86804036D01*
X121281205Y-86789412D01*
X121304227Y-86786388D01*
X121305862Y-86786383D01*
X121353590Y-86798541D01*
X121374797Y-86847781D01*
X121379061Y-86934055D01*
X121379061Y-87081726D01*
X121492202Y-86952865D01*
X121640626Y-86835752D01*
X121822012Y-86770901D01*
X122015759Y-86760683D01*
X122201264Y-86807472D01*
G37*
G36*
X128907578Y-87236352D02*
G01*
X128996052Y-87082940D01*
X129076257Y-86989884D01*
X129259457Y-86842207D01*
X129454255Y-86765888D01*
X129657657Y-86761522D01*
X129866665Y-86829703D01*
X129871522Y-86832133D01*
X130025978Y-86950236D01*
X130140175Y-87125669D01*
X130210665Y-87352492D01*
X130223941Y-87439235D01*
X130246317Y-87628170D01*
X129019027Y-87628170D01*
X129036873Y-87813894D01*
X129087305Y-88016555D01*
X129188975Y-88174495D01*
X129331866Y-88283063D01*
X129505960Y-88337611D01*
X129701239Y-88333486D01*
X129907684Y-88266040D01*
X129956367Y-88240705D01*
X130130937Y-88143136D01*
X130119480Y-88242498D01*
X130075236Y-88329724D01*
X129974852Y-88402598D01*
X129834684Y-88456882D01*
X129671089Y-88488342D01*
X129500424Y-88492740D01*
X129339045Y-88465840D01*
X129302836Y-88454010D01*
X129120527Y-88350282D01*
X128981903Y-88191106D01*
X128890032Y-87981931D01*
X128847986Y-87728208D01*
X128845547Y-87642224D01*
X128855727Y-87481772D01*
X129020405Y-87481772D01*
X129536765Y-87481772D01*
X129740192Y-87481370D01*
X129881666Y-87479000D01*
X129972431Y-87472924D01*
X130023731Y-87461399D01*
X130046811Y-87442685D01*
X130052916Y-87415042D01*
X130053124Y-87401829D01*
X130037460Y-87320666D01*
X129998062Y-87210989D01*
X129978308Y-87167335D01*
X129875224Y-87022036D01*
X129743732Y-86935079D01*
X129595767Y-86903729D01*
X129443267Y-86925251D01*
X129298167Y-86996911D01*
X129172404Y-87115973D01*
X129077915Y-87279704D01*
X129045216Y-87381124D01*
X129020405Y-87481772D01*
X128855727Y-87481772D01*
X128859921Y-87415679D01*
X128907578Y-87236352D01*
G37*
G36*
X148241672Y-84164364D02*
G01*
X148267393Y-84079887D01*
X148306939Y-84004193D01*
X148360375Y-83937210D01*
X148427766Y-83878865D01*
X148509178Y-83829088D01*
X148571122Y-83800689D01*
X148604043Y-83788080D01*
X148639013Y-83776501D01*
X148677852Y-83765572D01*
X148722378Y-83754914D01*
X148774409Y-83744146D01*
X148835765Y-83732889D01*
X148908263Y-83720762D01*
X148993722Y-83707387D01*
X149079054Y-83694582D01*
X149348610Y-83654712D01*
X149348502Y-83592537D01*
X149345314Y-83538190D01*
X149336732Y-83477931D01*
X149323973Y-83417774D01*
X149308252Y-83363730D01*
X149295832Y-83332090D01*
X149257458Y-83262974D01*
X149211540Y-83207762D01*
X149157151Y-83165893D01*
X149093364Y-83136804D01*
X149019254Y-83119933D01*
X148937396Y-83114711D01*
X148831033Y-83122883D01*
X148726152Y-83147410D01*
X148622712Y-83188306D01*
X148520671Y-83245586D01*
X148465713Y-83283648D01*
X148436163Y-83305242D01*
X148411704Y-83322634D01*
X148395205Y-83333816D01*
X148389629Y-83336940D01*
X148388065Y-83329245D01*
X148386787Y-83308302D01*
X148385926Y-83277322D01*
X148385616Y-83240097D01*
X148385616Y-83143255D01*
X148427497Y-83115837D01*
X148494413Y-83077788D01*
X148573205Y-83042644D01*
X148659329Y-83012121D01*
X148748242Y-82987936D01*
X148788381Y-82979496D01*
X148838185Y-82972537D01*
X148896476Y-82968326D01*
X148958355Y-82966865D01*
X149018924Y-82968155D01*
X149073283Y-82972200D01*
X149116535Y-82979000D01*
X149118150Y-82979373D01*
X149202810Y-83007254D01*
X149278528Y-83048784D01*
X149344887Y-83103530D01*
X149401470Y-83171060D01*
X149447861Y-83250940D01*
X149483640Y-83342738D01*
X149490396Y-83365748D01*
X149493731Y-83378080D01*
X149496638Y-83390142D01*
X149499152Y-83403115D01*
X149501307Y-83418181D01*
X149503137Y-83436522D01*
X149504678Y-83459319D01*
X149505963Y-83487756D01*
X149507028Y-83523013D01*
X149507907Y-83566272D01*
X149508635Y-83618716D01*
X149509246Y-83681526D01*
X149509775Y-83755883D01*
X149510256Y-83842971D01*
X149510725Y-83943971D01*
X149511215Y-84060064D01*
X149511296Y-84079763D01*
X149513967Y-84727932D01*
X149348610Y-84727932D01*
X149348520Y-84402818D01*
X149316340Y-84456318D01*
X149258886Y-84536811D01*
X149189697Y-84608153D01*
X149111073Y-84668610D01*
X149025312Y-84716448D01*
X148934712Y-84749934D01*
X148922963Y-84753075D01*
X148876748Y-84761481D01*
X148819777Y-84766691D01*
X148757454Y-84768649D01*
X148695181Y-84767299D01*
X148638364Y-84762583D01*
X148600995Y-84756464D01*
X148519078Y-84730749D01*
X148445511Y-84691836D01*
X148381192Y-84641201D01*
X148327018Y-84580323D01*
X148283885Y-84510681D01*
X148252691Y-84433753D01*
X148234332Y-84351016D01*
X148229707Y-84263949D01*
X148230370Y-84257994D01*
X148401706Y-84257994D01*
X148407029Y-84334888D01*
X148425593Y-84405471D01*
X148456650Y-84468392D01*
X148499455Y-84522300D01*
X148553259Y-84565845D01*
X148617315Y-84597673D01*
X148648999Y-84607737D01*
X148688683Y-84614922D01*
X148738818Y-84619049D01*
X148793674Y-84620102D01*
X148847525Y-84618065D01*
X148894641Y-84612924D01*
X148916825Y-84608463D01*
X149000489Y-84578899D01*
X149078173Y-84535020D01*
X149148598Y-84478283D01*
X149210486Y-84410149D01*
X149262557Y-84332078D01*
X149303533Y-84245528D01*
X149332135Y-84151959D01*
X149336950Y-84128967D01*
X149340833Y-84101391D01*
X149343982Y-84064950D01*
X149346362Y-84022586D01*
X149347943Y-83977243D01*
X149348691Y-83931865D01*
X149348574Y-83889396D01*
X149347559Y-83852780D01*
X149345614Y-83824960D01*
X149342707Y-83808880D01*
X149340514Y-83806091D01*
X149326949Y-83807350D01*
X149299507Y-83810884D01*
X149260557Y-83816326D01*
X149212470Y-83823313D01*
X149157616Y-83831478D01*
X149098367Y-83840457D01*
X149037092Y-83849885D01*
X148976161Y-83859395D01*
X148917946Y-83868624D01*
X148864817Y-83877206D01*
X148819144Y-83884775D01*
X148783298Y-83890966D01*
X148759650Y-83895415D01*
X148756783Y-83896022D01*
X148666369Y-83919958D01*
X148590836Y-83949392D01*
X148529317Y-83985025D01*
X148480947Y-84027557D01*
X148444858Y-84077689D01*
X148420186Y-84136120D01*
X148410371Y-84176142D01*
X148401706Y-84257994D01*
X148230370Y-84257994D01*
X148239711Y-84174030D01*
X148241672Y-84164364D01*
G37*
G36*
X161380934Y-85594014D02*
G01*
X161419237Y-85600987D01*
X161439086Y-85608389D01*
X161477042Y-85635939D01*
X161502942Y-85671683D01*
X161516736Y-85712549D01*
X161518373Y-85755468D01*
X161507803Y-85797370D01*
X161484974Y-85835184D01*
X161449835Y-85865840D01*
X161443408Y-85869683D01*
X161411995Y-85881297D01*
X161371765Y-85887757D01*
X161328919Y-85888861D01*
X161289661Y-85884411D01*
X161262576Y-85875520D01*
X161219794Y-85845547D01*
X161191355Y-85807779D01*
X161177534Y-85762644D01*
X161176153Y-85741111D01*
X161183648Y-85692981D01*
X161204882Y-85651060D01*
X161237984Y-85618267D01*
X161264369Y-85603490D01*
X161296871Y-85595079D01*
X161337936Y-85591983D01*
X161380934Y-85594014D01*
G37*
G36*
X163550374Y-86023320D02*
G01*
X163615225Y-86035372D01*
X163669160Y-86058439D01*
X163713523Y-86093398D01*
X163749661Y-86141125D01*
X163778918Y-86202496D01*
X163787303Y-86225923D01*
X163791638Y-86239548D01*
X163795231Y-86253217D01*
X163798169Y-86268604D01*
X163800537Y-86287384D01*
X163802419Y-86311234D01*
X163803901Y-86341828D01*
X163805068Y-86380842D01*
X163806005Y-86429951D01*
X163806798Y-86490830D01*
X163807531Y-86565155D01*
X163808132Y-86635401D01*
X163811080Y-86991380D01*
X163514913Y-86991380D01*
X163512237Y-86684181D01*
X163509562Y-86376983D01*
X163484870Y-86329084D01*
X163461900Y-86292312D01*
X163437511Y-86269446D01*
X163431499Y-86265900D01*
X163399159Y-86255059D01*
X163360045Y-86250911D01*
X163321463Y-86253620D01*
X163291866Y-86262745D01*
X163264132Y-86283104D01*
X163236444Y-86313137D01*
X163213722Y-86346798D01*
X163202232Y-86372911D01*
X163199210Y-86391317D01*
X163196773Y-86424608D01*
X163194912Y-86473106D01*
X163193616Y-86537135D01*
X163192877Y-86617017D01*
X163192680Y-86698086D01*
X163192680Y-86991380D01*
X162888143Y-86991380D01*
X162888143Y-86044847D01*
X163192680Y-86044847D01*
X163192680Y-86169634D01*
X163234478Y-86123901D01*
X163288915Y-86076119D01*
X163330871Y-86051290D01*
X163357559Y-86038888D01*
X163380524Y-86030770D01*
X163404966Y-86025846D01*
X163436081Y-86023023D01*
X163473260Y-86021408D01*
X163550374Y-86023320D01*
G37*
G36*
X168389913Y-86022021D02*
G01*
X168445795Y-86025185D01*
X168494964Y-86030448D01*
X168533146Y-86037718D01*
X168540590Y-86039875D01*
X168583801Y-86053715D01*
X168583801Y-86180973D01*
X168583606Y-86224636D01*
X168583069Y-86261839D01*
X168582260Y-86289779D01*
X168581248Y-86305654D01*
X168580610Y-86308230D01*
X168572181Y-86304961D01*
X168552788Y-86296311D01*
X168526308Y-86284019D01*
X168520937Y-86281483D01*
X168489110Y-86267586D01*
X168461288Y-86259065D01*
X168430657Y-86254377D01*
X168390400Y-86251984D01*
X168390379Y-86251983D01*
X168348985Y-86251389D01*
X168317689Y-86253721D01*
X168290270Y-86259747D01*
X168269069Y-86266941D01*
X168216349Y-86295175D01*
X168171979Y-86335936D01*
X168139024Y-86386163D01*
X168130895Y-86405034D01*
X168117646Y-86456863D01*
X168112473Y-86516094D01*
X168115495Y-86575720D01*
X168126833Y-86628732D01*
X168127072Y-86629456D01*
X168148508Y-86672815D01*
X168181280Y-86713818D01*
X168220956Y-86747938D01*
X168263102Y-86770644D01*
X168266397Y-86771815D01*
X168317685Y-86782906D01*
X168375961Y-86785202D01*
X168435946Y-86779295D01*
X168492363Y-86765777D01*
X168539931Y-86745240D01*
X168548091Y-86740230D01*
X168561583Y-86732135D01*
X168571183Y-86729618D01*
X168577485Y-86734590D01*
X168581083Y-86748963D01*
X168582573Y-86774649D01*
X168582550Y-86813560D01*
X168581963Y-86849067D01*
X168579686Y-86970137D01*
X168522071Y-86990421D01*
X168498082Y-86998249D01*
X168475152Y-87003916D01*
X168449706Y-87007845D01*
X168418166Y-87010457D01*
X168376960Y-87012177D01*
X168328649Y-87013312D01*
X168269427Y-87013943D01*
X168223707Y-87013162D01*
X168188576Y-87010810D01*
X168161121Y-87006730D01*
X168147573Y-87003511D01*
X168067417Y-86973559D01*
X167995255Y-86930596D01*
X167932670Y-86876191D01*
X167881245Y-86811915D01*
X167842561Y-86739340D01*
X167823152Y-86681540D01*
X167814597Y-86632918D01*
X167810362Y-86574126D01*
X167810387Y-86510859D01*
X167814610Y-86448816D01*
X167822971Y-86393692D01*
X167826373Y-86378981D01*
X167855945Y-86294861D01*
X167898738Y-86219934D01*
X167953663Y-86155252D01*
X168019633Y-86101868D01*
X168095560Y-86060834D01*
X168180356Y-86033203D01*
X168184799Y-86032194D01*
X168224762Y-86026041D01*
X168275120Y-86022356D01*
X168331596Y-86021047D01*
X168389913Y-86022021D01*
G37*
G36*
X153510307Y-86024541D02*
G01*
X153543823Y-86025661D01*
X153568152Y-86028094D01*
X153586930Y-86032302D01*
X153603793Y-86038748D01*
X153613302Y-86043283D01*
X153664388Y-86077261D01*
X153707788Y-86123138D01*
X153732922Y-86163114D01*
X153742989Y-86184071D01*
X153751386Y-86205021D01*
X153758266Y-86227640D01*
X153763776Y-86253603D01*
X153768067Y-86284585D01*
X153771289Y-86322264D01*
X153773591Y-86368315D01*
X153775123Y-86424414D01*
X153776035Y-86492237D01*
X153776477Y-86573459D01*
X153776594Y-86651863D01*
X153776737Y-86991380D01*
X153481172Y-86991380D01*
X153476316Y-86369960D01*
X153455739Y-86328819D01*
X153430829Y-86289572D01*
X153401321Y-86264995D01*
X153364298Y-86253381D01*
X153325126Y-86252404D01*
X153295567Y-86254975D01*
X153275832Y-86260214D01*
X153259289Y-86271195D01*
X153239303Y-86290990D01*
X153237318Y-86293088D01*
X153222260Y-86309678D01*
X153209884Y-86325725D01*
X153199926Y-86342984D01*
X153192126Y-86363213D01*
X153186220Y-86388169D01*
X153181947Y-86419609D01*
X153179045Y-86459289D01*
X153177251Y-86508967D01*
X153176304Y-86570399D01*
X153175941Y-86645342D01*
X153175894Y-86704798D01*
X153175894Y-86991380D01*
X152880810Y-86991380D01*
X152878142Y-86680670D01*
X152875473Y-86369960D01*
X152854896Y-86328819D01*
X152828674Y-86288925D01*
X152796371Y-86263704D01*
X152756033Y-86251893D01*
X152733925Y-86250615D01*
X152688438Y-86255563D01*
X152652589Y-86271638D01*
X152622423Y-86300685D01*
X152620052Y-86303735D01*
X152608850Y-86319310D01*
X152599671Y-86335009D01*
X152592315Y-86352598D01*
X152586581Y-86373837D01*
X152582270Y-86400492D01*
X152579182Y-86434325D01*
X152577117Y-86477099D01*
X152575875Y-86530578D01*
X152575255Y-86596525D01*
X152575058Y-86676703D01*
X152575052Y-86700497D01*
X152575052Y-86991380D01*
X152270515Y-86991380D01*
X152270515Y-86044847D01*
X152575052Y-86044847D01*
X152575052Y-86167234D01*
X152620125Y-86122161D01*
X152666545Y-86083171D01*
X152717936Y-86052130D01*
X152720951Y-86050679D01*
X152745135Y-86039619D01*
X152765206Y-86032173D01*
X152785450Y-86027629D01*
X152810152Y-86025273D01*
X152843596Y-86024392D01*
X152879588Y-86024270D01*
X152923421Y-86024519D01*
X152954730Y-86025666D01*
X152977448Y-86028309D01*
X152995512Y-86033046D01*
X153012855Y-86040477D01*
X153024148Y-86046265D01*
X153060932Y-86070615D01*
X153096420Y-86102533D01*
X153125019Y-86136631D01*
X153135176Y-86153176D01*
X153143558Y-86168613D01*
X153147768Y-86175419D01*
X153154089Y-86171219D01*
X153168710Y-86157428D01*
X153188900Y-86136673D01*
X153196928Y-86128087D01*
X153247967Y-86081644D01*
X153298188Y-86051015D01*
X153320864Y-86040230D01*
X153339656Y-86032820D01*
X153358489Y-86028152D01*
X153381284Y-86025594D01*
X153411965Y-86024511D01*
X153454455Y-86024272D01*
X153463969Y-86024270D01*
X153510307Y-86024541D01*
G37*
G36*
X144949637Y-82324562D02*
G01*
X145047099Y-82324662D01*
X145129781Y-82325056D01*
X145199365Y-82325885D01*
X145257531Y-82327289D01*
X145305960Y-82329409D01*
X145346334Y-82332386D01*
X145380334Y-82336360D01*
X145409640Y-82341472D01*
X145435933Y-82347864D01*
X145460896Y-82355675D01*
X145486208Y-82365046D01*
X145500224Y-82370647D01*
X145582627Y-82412591D01*
X145655741Y-82467015D01*
X145718145Y-82532338D01*
X145768414Y-82606980D01*
X145805126Y-82689359D01*
X145814484Y-82719636D01*
X145824019Y-82769208D01*
X145829270Y-82829311D01*
X145830295Y-82894598D01*
X145827151Y-82959721D01*
X145819896Y-83019334D01*
X145810782Y-83060840D01*
X145776219Y-83154153D01*
X145728533Y-83237631D01*
X145667302Y-83311912D01*
X145610352Y-83363490D01*
X145583285Y-83383081D01*
X145549946Y-83404120D01*
X145514215Y-83424512D01*
X145479972Y-83442160D01*
X145451096Y-83454967D01*
X145431470Y-83460838D01*
X145429924Y-83460976D01*
X145432569Y-83462890D01*
X145448547Y-83467638D01*
X145475125Y-83474468D01*
X145503680Y-83481271D01*
X145601425Y-83511143D01*
X145687839Y-83552806D01*
X145762698Y-83606051D01*
X145825781Y-83670670D01*
X145876865Y-83746456D01*
X145915727Y-83833199D01*
X145930384Y-83880168D01*
X145938741Y-83924578D01*
X145943650Y-83980276D01*
X145945175Y-84042466D01*
X145943375Y-84106352D01*
X145938313Y-84167138D01*
X145930051Y-84220030D01*
X145925783Y-84238204D01*
X145891362Y-84337036D01*
X145843482Y-84426849D01*
X145782952Y-84506835D01*
X145710578Y-84576188D01*
X145627171Y-84634099D01*
X145533538Y-84679760D01*
X145458592Y-84705062D01*
X145443273Y-84709185D01*
X145428257Y-84712649D01*
X145411972Y-84715521D01*
X145392844Y-84717872D01*
X145369300Y-84719771D01*
X145339768Y-84721287D01*
X145302674Y-84722490D01*
X145256446Y-84723449D01*
X145199509Y-84724234D01*
X145130293Y-84724914D01*
X145047223Y-84725559D01*
X144984271Y-84725997D01*
X144574793Y-84728782D01*
X144574793Y-84579779D01*
X144747638Y-84579779D01*
X144951348Y-84579592D01*
X145014679Y-84579201D01*
X145078953Y-84578209D01*
X145140268Y-84576719D01*
X145194722Y-84574834D01*
X145238412Y-84572658D01*
X145253827Y-84571588D01*
X145350655Y-84559807D01*
X145434357Y-84540471D01*
X145506765Y-84512898D01*
X145569710Y-84476403D01*
X145620324Y-84434851D01*
X145674763Y-84374407D01*
X145715712Y-84308925D01*
X145744132Y-84236182D01*
X145760985Y-84153956D01*
X145765995Y-84098219D01*
X145764659Y-84001650D01*
X145749831Y-83914484D01*
X145721549Y-83836780D01*
X145679854Y-83768599D01*
X145624786Y-83709998D01*
X145556383Y-83661039D01*
X145474685Y-83621780D01*
X145439018Y-83609042D01*
X145400856Y-83597704D01*
X145360890Y-83588358D01*
X145316928Y-83580775D01*
X145266782Y-83574721D01*
X145208258Y-83569965D01*
X145139168Y-83566276D01*
X145057319Y-83563421D01*
X144992502Y-83561823D01*
X144747638Y-83556534D01*
X144747638Y-84579779D01*
X144574793Y-84579779D01*
X144574793Y-83413502D01*
X144747638Y-83413502D01*
X144963694Y-83408741D01*
X145051735Y-83406268D01*
X145123771Y-83403069D01*
X145180244Y-83399117D01*
X145221595Y-83394384D01*
X145238027Y-83391444D01*
X145332678Y-83364068D01*
X145416258Y-83325256D01*
X145488273Y-83275428D01*
X145548230Y-83215009D01*
X145595635Y-83144420D01*
X145629994Y-83064084D01*
X145633466Y-83052980D01*
X145642486Y-83009420D01*
X145647587Y-82955642D01*
X145648768Y-82897334D01*
X145646032Y-82840188D01*
X145639379Y-82789893D01*
X145633441Y-82765153D01*
X145604186Y-82691083D01*
X145564493Y-82629213D01*
X145513464Y-82578650D01*
X145450203Y-82538503D01*
X145375568Y-82508432D01*
X145335399Y-82497893D01*
X145286901Y-82489375D01*
X145228606Y-82482763D01*
X145159045Y-82477941D01*
X145076747Y-82474793D01*
X144980244Y-82473202D01*
X144926656Y-82472955D01*
X144747638Y-82472715D01*
X144747638Y-83413502D01*
X144574793Y-83413502D01*
X144574793Y-82324562D01*
X144949637Y-82324562D01*
G37*
G36*
X146607780Y-86596305D02*
G01*
X146089245Y-86596305D01*
X146089245Y-86390537D01*
X146607780Y-86390537D01*
X146607780Y-86596305D01*
G37*
G36*
X172867548Y-86023320D02*
G01*
X172932400Y-86035372D01*
X172986334Y-86058439D01*
X173030698Y-86093398D01*
X173066835Y-86141125D01*
X173096092Y-86202496D01*
X173104477Y-86225923D01*
X173108812Y-86239548D01*
X173112406Y-86253217D01*
X173115344Y-86268604D01*
X173117711Y-86287384D01*
X173119593Y-86311234D01*
X173121075Y-86341828D01*
X173122242Y-86380842D01*
X173123179Y-86429951D01*
X173123972Y-86490830D01*
X173124705Y-86565155D01*
X173125307Y-86635401D01*
X173128254Y-86991380D01*
X172832087Y-86991380D01*
X172829412Y-86684181D01*
X172826737Y-86376983D01*
X172802045Y-86329084D01*
X172779074Y-86292312D01*
X172754685Y-86269446D01*
X172748673Y-86265900D01*
X172716334Y-86255059D01*
X172677219Y-86250911D01*
X172638638Y-86253620D01*
X172609040Y-86262745D01*
X172581307Y-86283104D01*
X172553619Y-86313137D01*
X172530896Y-86346798D01*
X172519406Y-86372911D01*
X172516385Y-86391317D01*
X172513948Y-86424608D01*
X172512086Y-86473106D01*
X172510791Y-86537135D01*
X172510052Y-86617017D01*
X172509854Y-86698086D01*
X172509854Y-86991380D01*
X172205317Y-86991380D01*
X172205317Y-86044847D01*
X172509854Y-86044847D01*
X172509854Y-86169634D01*
X172551652Y-86123901D01*
X172606090Y-86076119D01*
X172648046Y-86051290D01*
X172674733Y-86038888D01*
X172697699Y-86030770D01*
X172722140Y-86025846D01*
X172753255Y-86023023D01*
X172790434Y-86021408D01*
X172867548Y-86023320D01*
G37*
G36*
X150730115Y-82977607D02*
G01*
X150771793Y-82982303D01*
X150795722Y-82987454D01*
X150838370Y-83000119D01*
X150838370Y-83086908D01*
X150837829Y-83122058D01*
X150836365Y-83149755D01*
X150834217Y-83166768D01*
X150832197Y-83170534D01*
X150794843Y-83151753D01*
X150766601Y-83139346D01*
X150742030Y-83131993D01*
X150715689Y-83128374D01*
X150682139Y-83127170D01*
X150652984Y-83127057D01*
X150612082Y-83127363D01*
X150582830Y-83128869D01*
X150560418Y-83132461D01*
X150540036Y-83139023D01*
X150516876Y-83149438D01*
X150508188Y-83153683D01*
X150437472Y-83197644D01*
X150374735Y-83255802D01*
X150320168Y-83327850D01*
X150273958Y-83413485D01*
X150236296Y-83512401D01*
X150207370Y-83624292D01*
X150203143Y-83645592D01*
X150199538Y-83665454D01*
X150196450Y-83685165D01*
X150193828Y-83706192D01*
X150191618Y-83730001D01*
X150189768Y-83758061D01*
X150188227Y-83791838D01*
X150186941Y-83832799D01*
X150185860Y-83882412D01*
X150184929Y-83942143D01*
X150184098Y-84013460D01*
X150183314Y-84097830D01*
X150182525Y-84196719D01*
X150182260Y-84232031D01*
X150178579Y-84727932D01*
X150023529Y-84727932D01*
X150023529Y-83007712D01*
X150179912Y-83007712D01*
X150180013Y-83190845D01*
X150180113Y-83373979D01*
X150208335Y-83309333D01*
X150237938Y-83246477D01*
X150267550Y-83195156D01*
X150300276Y-83150741D01*
X150339224Y-83108599D01*
X150349860Y-83098292D01*
X150412935Y-83046886D01*
X150479885Y-83008333D01*
X150547740Y-82984328D01*
X150550524Y-82983673D01*
X150586485Y-82978262D01*
X150632027Y-82975503D01*
X150681715Y-82975313D01*
X150730115Y-82977607D01*
G37*
G36*
X142558266Y-84727932D02*
G01*
X142393652Y-84727932D01*
X142393652Y-83007712D01*
X142558266Y-83007712D01*
X142558266Y-84727932D01*
G37*
G36*
X165340898Y-85913155D02*
G01*
X164879977Y-85913155D01*
X164879977Y-86209461D01*
X165307975Y-86209461D01*
X165307975Y-86448152D01*
X164879977Y-86448152D01*
X164879977Y-86752689D01*
X165373820Y-86752689D01*
X165373820Y-86991380D01*
X164575441Y-86991380D01*
X164575441Y-85674465D01*
X165340898Y-85674465D01*
X165340898Y-85913155D01*
G37*
G36*
X161497152Y-86991380D02*
G01*
X161192615Y-86991380D01*
X161192615Y-86044847D01*
X161497152Y-86044847D01*
X161497152Y-86991380D01*
G37*
G36*
X156007262Y-86343774D02*
G01*
X156007403Y-86430821D01*
X156007955Y-86503032D01*
X156009107Y-86562033D01*
X156011049Y-86609447D01*
X156013973Y-86646900D01*
X156018069Y-86676016D01*
X156023527Y-86698419D01*
X156030538Y-86715735D01*
X156039292Y-86729587D01*
X156049979Y-86741600D01*
X156054395Y-86745843D01*
X156081731Y-86767986D01*
X156108366Y-86780239D01*
X156141044Y-86785113D01*
X156161047Y-86785570D01*
X156212223Y-86778415D01*
X156255376Y-86756926D01*
X156287416Y-86725510D01*
X156297612Y-86711391D01*
X156305966Y-86696489D01*
X156312660Y-86679073D01*
X156317875Y-86657415D01*
X156321793Y-86629784D01*
X156324594Y-86594451D01*
X156326460Y-86549686D01*
X156327572Y-86493758D01*
X156328111Y-86424938D01*
X156328259Y-86341497D01*
X156328260Y-86335729D01*
X156328260Y-86044847D01*
X156624566Y-86044847D01*
X156624566Y-86991380D01*
X156328260Y-86991380D01*
X156328260Y-86867500D01*
X156279620Y-86917208D01*
X156237931Y-86955740D01*
X156197655Y-86982900D01*
X156154421Y-87000488D01*
X156103855Y-87010306D01*
X156044300Y-87014092D01*
X155997556Y-87014424D01*
X155962549Y-87012566D01*
X155934646Y-87008064D01*
X155910961Y-87001092D01*
X155855214Y-86976136D01*
X155811225Y-86943560D01*
X155775325Y-86900123D01*
X155753163Y-86861752D01*
X155743388Y-86841505D01*
X155735248Y-86821361D01*
X155728596Y-86799633D01*
X155723282Y-86774636D01*
X155719157Y-86744685D01*
X155716074Y-86708092D01*
X155713884Y-86663173D01*
X155712437Y-86608241D01*
X155711586Y-86541610D01*
X155711181Y-86461595D01*
X155711077Y-86384364D01*
X155710956Y-86044847D01*
X156007262Y-86044847D01*
X156007262Y-86343774D01*
G37*
G36*
X151072006Y-86456968D02*
G01*
X151077001Y-86403055D01*
X151084554Y-86357578D01*
X151091526Y-86332526D01*
X151112480Y-86280076D01*
X151135067Y-86237555D01*
X151163139Y-86198584D01*
X151192301Y-86165491D01*
X151254490Y-86110978D01*
X151327731Y-86068608D01*
X151412102Y-86038338D01*
X151419537Y-86036386D01*
X151468618Y-86027364D01*
X151527978Y-86021859D01*
X151591990Y-86019932D01*
X151655033Y-86021645D01*
X151711480Y-86027059D01*
X151743023Y-86032838D01*
X151825735Y-86060271D01*
X151899056Y-86100922D01*
X151962111Y-86153922D01*
X152014027Y-86218402D01*
X152053930Y-86293495D01*
X152077933Y-86365746D01*
X152084650Y-86405626D01*
X152088215Y-86455957D01*
X152088783Y-86512092D01*
X152086513Y-86569387D01*
X152081561Y-86623195D01*
X152074083Y-86668869D01*
X152066816Y-86695259D01*
X152031240Y-86776849D01*
X151987355Y-86845070D01*
X151933565Y-86901522D01*
X151868272Y-86947801D01*
X151789880Y-86985506D01*
X151768626Y-86993570D01*
X151734202Y-87002264D01*
X151687697Y-87008733D01*
X151633351Y-87012893D01*
X151575406Y-87014656D01*
X151518103Y-87013936D01*
X151465682Y-87010648D01*
X151422384Y-87004705D01*
X151406290Y-87000941D01*
X151322005Y-86969481D01*
X151248667Y-86926000D01*
X151186828Y-86871064D01*
X151137036Y-86805240D01*
X151099844Y-86729095D01*
X151080592Y-86665734D01*
X151073861Y-86623702D01*
X151070286Y-86571854D01*
X151069976Y-86540664D01*
X151370508Y-86540664D01*
X151377248Y-86599806D01*
X151391114Y-86654493D01*
X151411653Y-86701463D01*
X151438412Y-86737455D01*
X151450140Y-86747592D01*
X151480482Y-86766600D01*
X151512746Y-86778167D01*
X151552293Y-86783790D01*
X151584013Y-86784962D01*
X151621796Y-86783827D01*
X151650325Y-86778526D01*
X151676566Y-86767710D01*
X151678666Y-86766623D01*
X151719071Y-86737079D01*
X151749609Y-86695673D01*
X151770445Y-86641968D01*
X151781744Y-86575525D01*
X151783671Y-86495905D01*
X151783388Y-86488015D01*
X151776067Y-86416037D01*
X151760173Y-86357829D01*
X151735232Y-86312827D01*
X151700768Y-86280470D01*
X151656308Y-86260196D01*
X151601375Y-86251441D01*
X151583250Y-86250976D01*
X151524550Y-86256705D01*
X151476536Y-86274492D01*
X151437789Y-86305241D01*
X151406891Y-86349854D01*
X151397577Y-86369120D01*
X151380220Y-86422059D01*
X151371348Y-86480327D01*
X151370508Y-86540664D01*
X151069976Y-86540664D01*
X151069718Y-86514755D01*
X151072006Y-86456968D01*
G37*
G36*
X158195646Y-85594014D02*
G01*
X158233949Y-85600987D01*
X158253798Y-85608389D01*
X158291753Y-85635939D01*
X158317654Y-85671683D01*
X158331448Y-85712549D01*
X158333085Y-85755468D01*
X158322514Y-85797370D01*
X158299685Y-85835184D01*
X158264547Y-85865840D01*
X158258120Y-85869683D01*
X158226706Y-85881297D01*
X158186476Y-85887757D01*
X158143631Y-85888861D01*
X158104372Y-85884411D01*
X158077288Y-85875520D01*
X158034506Y-85845547D01*
X158006066Y-85807779D01*
X157992245Y-85762644D01*
X157990865Y-85741111D01*
X157998359Y-85692981D01*
X158019594Y-85651060D01*
X158052695Y-85618267D01*
X158079081Y-85603490D01*
X158111583Y-85595079D01*
X158152648Y-85591983D01*
X158195646Y-85594014D01*
G37*
G36*
X148940847Y-86023320D02*
G01*
X149005698Y-86035372D01*
X149059633Y-86058439D01*
X149103996Y-86093398D01*
X149140134Y-86141125D01*
X149169391Y-86202496D01*
X149177776Y-86225923D01*
X149182111Y-86239548D01*
X149185704Y-86253217D01*
X149188642Y-86268604D01*
X149191010Y-86287384D01*
X149192892Y-86311234D01*
X149194374Y-86341828D01*
X149195541Y-86380842D01*
X149196478Y-86429951D01*
X149197271Y-86490830D01*
X149198004Y-86565155D01*
X149198605Y-86635401D01*
X149201553Y-86991380D01*
X148905386Y-86991380D01*
X148902711Y-86684181D01*
X148900036Y-86376983D01*
X148875343Y-86329084D01*
X148852373Y-86292312D01*
X148827984Y-86269446D01*
X148821972Y-86265900D01*
X148789633Y-86255059D01*
X148750518Y-86250911D01*
X148711936Y-86253620D01*
X148682339Y-86262745D01*
X148654606Y-86283104D01*
X148626917Y-86313137D01*
X148604195Y-86346798D01*
X148592705Y-86372911D01*
X148589683Y-86391317D01*
X148587246Y-86424608D01*
X148585385Y-86473106D01*
X148584090Y-86537135D01*
X148583351Y-86617017D01*
X148583153Y-86698086D01*
X148583153Y-86991380D01*
X148278616Y-86991380D01*
X148278616Y-86044847D01*
X148583153Y-86044847D01*
X148583153Y-86169634D01*
X148624951Y-86123901D01*
X148679388Y-86076119D01*
X148721344Y-86051290D01*
X148748032Y-86038888D01*
X148770997Y-86030770D01*
X148795439Y-86025846D01*
X148826554Y-86023023D01*
X148863733Y-86021408D01*
X148940847Y-86023320D01*
G37*
G36*
X150968440Y-83762943D02*
G01*
X150973368Y-83704534D01*
X150979728Y-83656671D01*
X150982632Y-83641477D01*
X151015577Y-83520397D01*
X151059728Y-83409449D01*
X151114504Y-83309279D01*
X151179319Y-83220530D01*
X151253591Y-83143850D01*
X151336737Y-83079882D01*
X151428173Y-83029274D01*
X151527316Y-82992669D01*
X151580845Y-82979563D01*
X151637701Y-82971264D01*
X151703918Y-82966957D01*
X151773931Y-82966586D01*
X151842174Y-82970093D01*
X151903081Y-82977420D01*
X151932036Y-82983200D01*
X152021273Y-83012792D01*
X152103835Y-83056576D01*
X152177770Y-83113179D01*
X152241128Y-83181225D01*
X152269411Y-83220929D01*
X152303438Y-83273647D01*
X152303438Y-82184640D01*
X152468052Y-82184640D01*
X152468052Y-84727932D01*
X152303809Y-84727932D01*
X152301566Y-84577721D01*
X152299323Y-84427511D01*
X152276232Y-84466793D01*
X152228694Y-84532984D01*
X152167735Y-84594565D01*
X152096174Y-84649631D01*
X152016826Y-84696273D01*
X151932510Y-84732583D01*
X151849038Y-84756047D01*
X151805633Y-84762406D01*
X151751756Y-84766466D01*
X151692369Y-84768217D01*
X151632434Y-84767647D01*
X151576915Y-84764745D01*
X151530775Y-84759500D01*
X151516296Y-84756796D01*
X151418818Y-84727523D01*
X151329212Y-84684189D01*
X151248010Y-84627465D01*
X151175744Y-84558023D01*
X151112947Y-84476537D01*
X151060151Y-84383678D01*
X151017887Y-84280119D01*
X150986689Y-84166532D01*
X150969725Y-84066282D01*
X150965586Y-84018097D01*
X150963515Y-83959473D01*
X150963385Y-83894609D01*
X150964662Y-83843908D01*
X151131117Y-83843908D01*
X151131416Y-83943670D01*
X151134250Y-83987212D01*
X151144469Y-84076049D01*
X151159482Y-84153788D01*
X151180565Y-84225412D01*
X151208996Y-84295905D01*
X151218580Y-84316396D01*
X151238933Y-84357067D01*
X151257284Y-84388489D01*
X151277402Y-84415902D01*
X151303055Y-84444545D01*
X151331146Y-84472903D01*
X151389237Y-84524832D01*
X151446104Y-84563710D01*
X151505904Y-84592042D01*
X151555032Y-84607838D01*
X151592827Y-84614688D01*
X151641868Y-84618836D01*
X151697162Y-84620282D01*
X151753717Y-84619025D01*
X151806541Y-84615066D01*
X151850641Y-84608404D01*
X151853239Y-84607844D01*
X151889247Y-84597788D01*
X151931869Y-84582798D01*
X151973206Y-84565711D01*
X151982440Y-84561432D01*
X152052874Y-84519335D01*
X152118087Y-84463674D01*
X152175884Y-84397068D01*
X152224070Y-84322133D01*
X152260450Y-84241487D01*
X152267017Y-84222089D01*
X152277905Y-84185074D01*
X152286522Y-84148661D01*
X152293064Y-84110447D01*
X152297727Y-84068026D01*
X152300707Y-84018995D01*
X152302199Y-83960949D01*
X152302399Y-83891484D01*
X152301504Y-83808195D01*
X152301380Y-83800177D01*
X152300008Y-83724515D01*
X152298248Y-83662818D01*
X152295691Y-83612590D01*
X152291929Y-83571334D01*
X152286553Y-83536554D01*
X152279153Y-83505755D01*
X152269321Y-83476438D01*
X152256647Y-83446109D01*
X152240722Y-83412270D01*
X152236358Y-83403323D01*
X152215274Y-83363988D01*
X152192180Y-83329883D01*
X152162979Y-83295471D01*
X152135613Y-83267134D01*
X152072965Y-83211626D01*
X152008533Y-83169774D01*
X151939512Y-83140473D01*
X151863097Y-83122621D01*
X151776483Y-83115112D01*
X151748277Y-83114711D01*
X151682389Y-83116795D01*
X151626416Y-83123971D01*
X151574236Y-83137626D01*
X151519725Y-83159145D01*
X151489829Y-83173215D01*
X151419898Y-83215549D01*
X151353228Y-83271417D01*
X151292521Y-83337901D01*
X151240480Y-83412082D01*
X151203633Y-83482231D01*
X151175517Y-83559257D01*
X151153703Y-83647808D01*
X151138724Y-83743990D01*
X151131117Y-83843908D01*
X150964662Y-83843908D01*
X150965070Y-83827700D01*
X150968440Y-83762943D01*
G37*
G36*
X146802470Y-86255533D02*
G01*
X146808080Y-86198297D01*
X146815727Y-86150276D01*
X146820232Y-86131270D01*
X146856196Y-86027925D01*
X146903619Y-85936136D01*
X146962305Y-85856130D01*
X147032062Y-85788136D01*
X147112694Y-85732381D01*
X147192452Y-85693640D01*
X147249734Y-85673787D01*
X147309092Y-85660384D01*
X147375005Y-85652698D01*
X147451950Y-85649997D01*
X147459660Y-85649973D01*
X147558546Y-85654547D01*
X147646048Y-85669048D01*
X147724557Y-85694395D01*
X147796468Y-85731508D01*
X147864173Y-85781304D01*
X147908467Y-85822315D01*
X147968192Y-85889909D01*
X148014828Y-85961061D01*
X148049864Y-86038818D01*
X148074788Y-86126229D01*
X148085539Y-86184769D01*
X148096333Y-86300148D01*
X148093278Y-86410783D01*
X148076836Y-86515625D01*
X148047471Y-86613623D01*
X148005649Y-86703730D01*
X147951832Y-86784895D01*
X147886485Y-86856069D01*
X147810071Y-86916204D01*
X147745598Y-86953520D01*
X147683221Y-86980617D01*
X147619347Y-86999364D01*
X147549799Y-87010604D01*
X147470403Y-87015179D01*
X147439083Y-87015360D01*
X147392663Y-87014293D01*
X147347247Y-87011821D01*
X147307897Y-87008305D01*
X147279675Y-87004108D01*
X147278584Y-87003873D01*
X147186239Y-86975336D01*
X147099385Y-86932374D01*
X147020183Y-86876535D01*
X146950792Y-86809365D01*
X146893375Y-86732410D01*
X146888734Y-86724833D01*
X146863411Y-86675327D01*
X146839778Y-86615549D01*
X146819968Y-86551685D01*
X146806114Y-86489917D01*
X146804660Y-86481075D01*
X146799993Y-86434753D01*
X146798214Y-86378538D01*
X146798891Y-86332181D01*
X147118228Y-86332181D01*
X147123930Y-86425651D01*
X147140856Y-86507605D01*
X147169274Y-86578811D01*
X147209452Y-86640041D01*
X147235538Y-86668643D01*
X147280266Y-86706831D01*
X147325653Y-86732238D01*
X147375928Y-86746444D01*
X147435322Y-86751026D01*
X147455544Y-86750760D01*
X147497412Y-86748669D01*
X147528672Y-86744528D01*
X147555151Y-86737208D01*
X147580819Y-86726450D01*
X147637580Y-86690965D01*
X147685954Y-86642036D01*
X147724982Y-86580909D01*
X147753705Y-86508829D01*
X147756959Y-86497537D01*
X147765207Y-86454543D01*
X147770255Y-86400630D01*
X147772095Y-86341030D01*
X147770722Y-86280971D01*
X147766130Y-86225683D01*
X147758312Y-86180398D01*
X147757331Y-86176538D01*
X147730279Y-86099018D01*
X147693507Y-86033735D01*
X147647479Y-85981322D01*
X147592656Y-85942414D01*
X147583120Y-85937496D01*
X147562438Y-85928288D01*
X147542462Y-85922354D01*
X147518689Y-85919003D01*
X147486618Y-85917542D01*
X147451429Y-85917271D01*
X147409933Y-85917647D01*
X147380244Y-85919290D01*
X147357715Y-85922971D01*
X147337699Y-85929463D01*
X147315549Y-85939539D01*
X147314597Y-85940005D01*
X147258460Y-85976549D01*
X147210669Y-86026179D01*
X147171989Y-86087367D01*
X147143184Y-86158588D01*
X147125017Y-86238317D01*
X147118253Y-86325026D01*
X147118228Y-86332181D01*
X146798891Y-86332181D01*
X146799110Y-86317205D01*
X146802470Y-86255533D01*
G37*
G36*
X170698109Y-85594014D02*
G01*
X170736412Y-85600987D01*
X170756261Y-85608389D01*
X170794216Y-85635939D01*
X170820116Y-85671683D01*
X170833910Y-85712549D01*
X170835547Y-85755468D01*
X170824977Y-85797370D01*
X170802148Y-85835184D01*
X170767010Y-85865840D01*
X170760583Y-85869683D01*
X170729169Y-85881297D01*
X170688939Y-85887757D01*
X170646094Y-85888861D01*
X170606835Y-85884411D01*
X170579750Y-85875520D01*
X170536968Y-85845547D01*
X170508529Y-85807779D01*
X170494708Y-85762644D01*
X170493328Y-85741111D01*
X170500822Y-85692981D01*
X170522057Y-85651060D01*
X170555158Y-85618267D01*
X170581544Y-85603490D01*
X170614046Y-85595079D01*
X170655110Y-85591983D01*
X170698109Y-85594014D01*
G37*
G36*
X143607341Y-86023320D02*
G01*
X143672192Y-86035372D01*
X143726127Y-86058439D01*
X143770490Y-86093398D01*
X143806628Y-86141125D01*
X143835885Y-86202496D01*
X143844270Y-86225923D01*
X143848604Y-86239548D01*
X143852198Y-86253217D01*
X143855136Y-86268604D01*
X143857504Y-86287384D01*
X143859386Y-86311234D01*
X143860868Y-86341828D01*
X143862035Y-86380842D01*
X143862972Y-86429951D01*
X143863765Y-86490830D01*
X143864498Y-86565155D01*
X143865099Y-86635401D01*
X143868047Y-86991380D01*
X143571879Y-86991380D01*
X143569204Y-86684181D01*
X143566529Y-86376983D01*
X143541837Y-86329084D01*
X143518867Y-86292312D01*
X143494478Y-86269446D01*
X143488466Y-86265900D01*
X143456126Y-86255059D01*
X143417012Y-86250911D01*
X143378430Y-86253620D01*
X143348833Y-86262745D01*
X143321099Y-86283104D01*
X143293411Y-86313137D01*
X143270688Y-86346798D01*
X143259199Y-86372911D01*
X143256177Y-86391317D01*
X143253740Y-86424608D01*
X143251879Y-86473106D01*
X143250583Y-86537135D01*
X143249844Y-86617017D01*
X143249647Y-86698086D01*
X143249647Y-86991380D01*
X142945110Y-86991380D01*
X142945110Y-86044847D01*
X143249647Y-86044847D01*
X143249647Y-86169634D01*
X143291445Y-86123901D01*
X143345882Y-86076119D01*
X143387838Y-86051290D01*
X143414526Y-86038888D01*
X143437491Y-86030770D01*
X143461933Y-86025846D01*
X143493047Y-86023023D01*
X143530226Y-86021408D01*
X143607341Y-86023320D01*
G37*
G36*
X170141270Y-85760642D02*
G01*
X170144136Y-85774048D01*
X170146069Y-85798389D01*
X170147191Y-85835372D01*
X170147623Y-85886706D01*
X170147638Y-85900809D01*
X170147638Y-86044847D01*
X170361636Y-86044847D01*
X170361636Y-86258846D01*
X170147638Y-86258846D01*
X170147684Y-86470787D01*
X170148023Y-86531927D01*
X170148958Y-86588179D01*
X170150401Y-86637079D01*
X170152267Y-86676163D01*
X170154470Y-86702966D01*
X170156155Y-86713064D01*
X170168386Y-86738847D01*
X170187367Y-86762416D01*
X170190425Y-86765147D01*
X170206850Y-86777337D01*
X170222687Y-86783257D01*
X170244163Y-86784378D01*
X170266318Y-86783061D01*
X170297522Y-86779968D01*
X170325339Y-86776021D01*
X170339002Y-86773230D01*
X170361636Y-86767231D01*
X170361636Y-86989210D01*
X170313770Y-87002641D01*
X170280782Y-87008968D01*
X170237413Y-87013212D01*
X170188379Y-87015338D01*
X170138396Y-87015315D01*
X170092180Y-87013111D01*
X170054448Y-87008692D01*
X170036523Y-87004559D01*
X169990542Y-86986742D01*
X169954300Y-86964020D01*
X169921084Y-86932113D01*
X169918738Y-86929469D01*
X169903021Y-86911125D01*
X169890182Y-86894064D01*
X169879909Y-86876420D01*
X169871891Y-86856326D01*
X169865817Y-86831914D01*
X169861375Y-86801318D01*
X169858255Y-86762670D01*
X169856144Y-86714104D01*
X169854733Y-86653753D01*
X169853708Y-86579749D01*
X169853240Y-86536632D01*
X169850336Y-86258846D01*
X169694948Y-86258846D01*
X169694948Y-86044847D01*
X169851332Y-86044847D01*
X169851332Y-85834765D01*
X169989196Y-85795459D01*
X170034816Y-85782631D01*
X170075272Y-85771593D01*
X170107771Y-85763079D01*
X170129521Y-85757825D01*
X170137349Y-85756463D01*
X170141270Y-85760642D01*
G37*
G36*
X161681403Y-86456968D02*
G01*
X161686399Y-86403055D01*
X161693951Y-86357578D01*
X161700923Y-86332526D01*
X161721877Y-86280076D01*
X161744465Y-86237555D01*
X161772536Y-86198584D01*
X161801699Y-86165491D01*
X161863887Y-86110978D01*
X161937129Y-86068608D01*
X162021499Y-86038338D01*
X162028934Y-86036386D01*
X162078016Y-86027364D01*
X162137375Y-86021859D01*
X162201388Y-86019932D01*
X162264430Y-86021645D01*
X162320877Y-86027059D01*
X162352420Y-86032838D01*
X162435132Y-86060271D01*
X162508453Y-86100922D01*
X162571508Y-86153922D01*
X162623424Y-86218402D01*
X162663327Y-86293495D01*
X162687330Y-86365746D01*
X162694047Y-86405626D01*
X162697612Y-86455957D01*
X162698181Y-86512092D01*
X162695911Y-86569387D01*
X162690958Y-86623195D01*
X162683481Y-86668869D01*
X162676214Y-86695259D01*
X162640637Y-86776849D01*
X162596752Y-86845070D01*
X162542962Y-86901522D01*
X162477670Y-86947801D01*
X162399277Y-86985506D01*
X162378024Y-86993570D01*
X162343599Y-87002264D01*
X162297094Y-87008733D01*
X162242748Y-87012893D01*
X162184803Y-87014656D01*
X162127500Y-87013936D01*
X162075079Y-87010648D01*
X162031781Y-87004705D01*
X162015687Y-87000941D01*
X161931402Y-86969481D01*
X161858065Y-86926000D01*
X161796225Y-86871064D01*
X161746433Y-86805240D01*
X161709241Y-86729095D01*
X161689989Y-86665734D01*
X161683258Y-86623702D01*
X161679683Y-86571854D01*
X161679373Y-86540664D01*
X161979906Y-86540664D01*
X161986645Y-86599806D01*
X162000511Y-86654493D01*
X162021050Y-86701463D01*
X162047810Y-86737455D01*
X162059537Y-86747592D01*
X162089879Y-86766600D01*
X162122143Y-86778167D01*
X162161690Y-86783790D01*
X162193410Y-86784962D01*
X162231193Y-86783827D01*
X162259722Y-86778526D01*
X162285963Y-86767710D01*
X162288064Y-86766623D01*
X162328468Y-86737079D01*
X162359006Y-86695673D01*
X162379842Y-86641968D01*
X162391141Y-86575525D01*
X162393068Y-86495905D01*
X162392785Y-86488015D01*
X162385464Y-86416037D01*
X162369570Y-86357829D01*
X162344629Y-86312827D01*
X162310166Y-86280470D01*
X162265705Y-86260196D01*
X162210772Y-86251441D01*
X162192647Y-86250976D01*
X162133947Y-86256705D01*
X162085933Y-86274492D01*
X162047186Y-86305241D01*
X162016289Y-86349854D01*
X162006974Y-86369120D01*
X161989617Y-86422059D01*
X161980745Y-86480327D01*
X161979906Y-86540664D01*
X161679373Y-86540664D01*
X161679115Y-86514755D01*
X161681403Y-86456968D01*
G37*
G36*
X143287245Y-83351344D02*
G01*
X143330145Y-83420695D01*
X143371038Y-83486814D01*
X143408979Y-83548175D01*
X143443023Y-83603249D01*
X143472226Y-83650508D01*
X143495644Y-83688425D01*
X143512333Y-83715473D01*
X143521349Y-83730122D01*
X143521570Y-83730482D01*
X143543298Y-83765988D01*
X143589434Y-83689329D01*
X143603922Y-83665708D01*
X143626089Y-83630168D01*
X143654715Y-83584635D01*
X143688582Y-83531037D01*
X143726470Y-83471304D01*
X143767158Y-83407363D01*
X143809429Y-83341143D01*
X143827916Y-83312248D01*
X144020261Y-83011827D01*
X144116451Y-83009508D01*
X144154032Y-83008957D01*
X144184737Y-83009181D01*
X144205345Y-83010110D01*
X144212641Y-83011624D01*
X144208196Y-83019066D01*
X144195375Y-83039025D01*
X144174950Y-83070332D01*
X144147692Y-83111818D01*
X144114373Y-83162315D01*
X144075765Y-83220654D01*
X144032638Y-83285665D01*
X143985765Y-83356179D01*
X143935917Y-83431029D01*
X143924566Y-83448055D01*
X143874171Y-83523683D01*
X143826579Y-83595212D01*
X143782562Y-83661477D01*
X143742891Y-83721311D01*
X143708337Y-83773549D01*
X143679671Y-83817023D01*
X143657665Y-83850567D01*
X143643089Y-83873016D01*
X143636716Y-83883203D01*
X143636491Y-83883684D01*
X143640916Y-83891003D01*
X143653671Y-83910838D01*
X143673971Y-83941998D01*
X143701032Y-83983289D01*
X143734068Y-84033519D01*
X143772297Y-84091497D01*
X143814934Y-84156029D01*
X143861195Y-84225923D01*
X143910295Y-84299988D01*
X143912220Y-84302890D01*
X143961422Y-84377123D01*
X144007814Y-84447263D01*
X144050611Y-84512114D01*
X144089028Y-84570479D01*
X144122279Y-84621163D01*
X144149581Y-84662968D01*
X144170149Y-84694700D01*
X144183198Y-84715161D01*
X144187943Y-84723156D01*
X144187949Y-84723197D01*
X144180241Y-84725001D01*
X144159210Y-84726489D01*
X144127991Y-84727514D01*
X144089721Y-84727929D01*
X144086380Y-84727932D01*
X143984811Y-84727932D01*
X143768361Y-84380184D01*
X143725519Y-84311461D01*
X143685079Y-84246799D01*
X143647917Y-84187583D01*
X143614909Y-84135201D01*
X143586931Y-84091037D01*
X143564860Y-84056478D01*
X143549570Y-84032910D01*
X143541938Y-84021719D01*
X143541480Y-84021163D01*
X143532758Y-84015470D01*
X143524804Y-84022426D01*
X143519982Y-84030872D01*
X143513399Y-84041834D01*
X143498789Y-84065180D01*
X143477067Y-84099477D01*
X143449150Y-84143290D01*
X143415953Y-84195183D01*
X143378394Y-84253722D01*
X143337389Y-84317473D01*
X143293853Y-84385001D01*
X143290800Y-84389730D01*
X143072686Y-84727606D01*
X142971299Y-84727769D01*
X142869913Y-84727932D01*
X142885658Y-84705297D01*
X142907433Y-84673823D01*
X142935404Y-84633126D01*
X142968594Y-84584646D01*
X143006029Y-84529821D01*
X143046733Y-84470091D01*
X143089731Y-84406893D01*
X143134049Y-84341667D01*
X143178710Y-84275851D01*
X143222739Y-84210885D01*
X143265162Y-84148206D01*
X143305003Y-84089255D01*
X143341287Y-84035469D01*
X143373040Y-83988287D01*
X143399284Y-83949148D01*
X143419046Y-83919492D01*
X143431351Y-83900755D01*
X143435226Y-83894470D01*
X143431733Y-83885044D01*
X143419389Y-83862209D01*
X143398405Y-83826301D01*
X143368989Y-83777654D01*
X143331353Y-83716605D01*
X143285704Y-83643487D01*
X143232254Y-83558637D01*
X143171211Y-83462389D01*
X143102785Y-83355079D01*
X143027187Y-83237042D01*
X142944625Y-83108613D01*
X142915410Y-83063269D01*
X142879596Y-83007712D01*
X143074648Y-83007712D01*
X143287245Y-83351344D01*
G37*
G36*
X145724117Y-86025275D02*
G01*
X145806372Y-86038624D01*
X145836150Y-86045687D01*
X145867015Y-86053712D01*
X145867015Y-86168625D01*
X145866413Y-86219336D01*
X145864647Y-86255897D01*
X145861776Y-86277511D01*
X145858457Y-86283538D01*
X145846262Y-86280045D01*
X145826160Y-86271313D01*
X145818867Y-86267707D01*
X145765750Y-86246866D01*
X145703355Y-86232556D01*
X145638032Y-86226140D01*
X145624265Y-86225923D01*
X145570172Y-86229611D01*
X145530110Y-86240856D01*
X145503348Y-86259930D01*
X145493789Y-86274359D01*
X145486037Y-86299012D01*
X145488849Y-86321014D01*
X145503344Y-86341422D01*
X145530642Y-86361292D01*
X145571863Y-86381683D01*
X145628128Y-86403650D01*
X145632440Y-86405196D01*
X145696969Y-86429371D01*
X145748258Y-86451399D01*
X145789128Y-86472727D01*
X145822405Y-86494803D01*
X145846451Y-86514888D01*
X145879049Y-86549799D01*
X145901001Y-86586392D01*
X145913921Y-86628813D01*
X145919426Y-86681208D01*
X145919904Y-86703314D01*
X145919560Y-86742354D01*
X145917359Y-86770439D01*
X145912312Y-86793052D01*
X145903433Y-86815675D01*
X145897377Y-86828442D01*
X145861296Y-86883699D01*
X145811735Y-86930416D01*
X145749686Y-86967904D01*
X145676137Y-86995472D01*
X145647277Y-87002781D01*
X145606198Y-87009206D01*
X145553649Y-87013340D01*
X145494460Y-87015174D01*
X145433462Y-87014702D01*
X145375486Y-87011916D01*
X145325363Y-87006808D01*
X145304450Y-87003320D01*
X145271008Y-86996134D01*
X145239900Y-86988544D01*
X145220085Y-86982879D01*
X145192096Y-86973642D01*
X145192096Y-86854935D01*
X145192675Y-86803565D01*
X145194369Y-86766085D01*
X145197116Y-86743360D01*
X145200601Y-86736227D01*
X145212303Y-86739709D01*
X145233010Y-86748625D01*
X145247927Y-86755867D01*
X145302449Y-86779189D01*
X145359666Y-86796175D01*
X145417155Y-86806828D01*
X145472493Y-86811151D01*
X145523256Y-86809145D01*
X145567020Y-86800815D01*
X145601362Y-86786162D01*
X145623858Y-86765190D01*
X145628842Y-86755443D01*
X145634245Y-86729663D01*
X145628718Y-86706829D01*
X145611127Y-86685916D01*
X145580341Y-86665899D01*
X145535226Y-86645754D01*
X145489321Y-86629280D01*
X145406129Y-86598505D01*
X145338337Y-86566431D01*
X145284886Y-86531897D01*
X145244713Y-86493742D01*
X145216760Y-86450802D01*
X145199965Y-86401916D01*
X145193269Y-86345922D01*
X145193813Y-86305447D01*
X145197942Y-86261704D01*
X145205729Y-86227723D01*
X145218679Y-86196947D01*
X145218762Y-86196785D01*
X145247443Y-86153884D01*
X145286701Y-86112963D01*
X145331013Y-86079441D01*
X145348328Y-86069617D01*
X145407271Y-86046500D01*
X145477766Y-86030339D01*
X145556369Y-86021302D01*
X145639635Y-86019557D01*
X145724117Y-86025275D01*
G37*
G36*
X157525487Y-86023320D02*
G01*
X157590339Y-86035372D01*
X157644273Y-86058439D01*
X157688637Y-86093398D01*
X157724774Y-86141125D01*
X157754031Y-86202496D01*
X157762416Y-86225923D01*
X157766751Y-86239548D01*
X157770345Y-86253217D01*
X157773283Y-86268604D01*
X157775650Y-86287384D01*
X157777532Y-86311234D01*
X157779014Y-86341828D01*
X157780181Y-86380842D01*
X157781118Y-86429951D01*
X157781911Y-86490830D01*
X157782644Y-86565155D01*
X157783246Y-86635401D01*
X157786193Y-86991380D01*
X157490026Y-86991380D01*
X157487351Y-86684181D01*
X157484676Y-86376983D01*
X157459984Y-86329084D01*
X157437013Y-86292312D01*
X157412624Y-86269446D01*
X157406612Y-86265900D01*
X157374273Y-86255059D01*
X157335158Y-86250911D01*
X157296577Y-86253620D01*
X157266979Y-86262745D01*
X157239246Y-86283104D01*
X157211558Y-86313137D01*
X157188835Y-86346798D01*
X157177345Y-86372911D01*
X157174324Y-86391317D01*
X157171887Y-86424608D01*
X157170025Y-86473106D01*
X157168730Y-86537135D01*
X157167991Y-86617017D01*
X157167793Y-86698086D01*
X157167793Y-86991380D01*
X156863257Y-86991380D01*
X156863257Y-86044847D01*
X157167793Y-86044847D01*
X157167793Y-86169634D01*
X157209591Y-86123901D01*
X157264029Y-86076119D01*
X157305985Y-86051290D01*
X157332672Y-86038888D01*
X157355638Y-86030770D01*
X157380079Y-86025846D01*
X157411194Y-86023023D01*
X157448373Y-86021408D01*
X157525487Y-86023320D01*
G37*
G36*
X168710032Y-86631174D02*
G01*
X168718981Y-86600421D01*
X168751539Y-86541856D01*
X168796149Y-86493915D01*
X168853355Y-86456124D01*
X168912238Y-86431643D01*
X168932895Y-86426324D01*
X168966337Y-86419415D01*
X169009057Y-86411481D01*
X169057548Y-86403092D01*
X169108303Y-86394814D01*
X169157814Y-86387215D01*
X169202576Y-86380864D01*
X169239080Y-86376328D01*
X169263820Y-86374175D01*
X169267831Y-86374076D01*
X169274170Y-86367212D01*
X169275016Y-86349749D01*
X169270968Y-86326381D01*
X169262626Y-86301802D01*
X169257205Y-86290832D01*
X169234922Y-86261754D01*
X169204757Y-86241906D01*
X169164370Y-86230314D01*
X169111425Y-86226002D01*
X169101630Y-86225923D01*
X169012745Y-86233950D01*
X168925155Y-86257470D01*
X168855684Y-86288226D01*
X168828894Y-86301999D01*
X168807771Y-86312051D01*
X168796477Y-86316413D01*
X168796011Y-86316461D01*
X168793655Y-86308731D01*
X168791686Y-86287541D01*
X168790277Y-86255891D01*
X168789602Y-86216782D01*
X168789569Y-86205456D01*
X168789569Y-86094452D01*
X168820434Y-86081264D01*
X168879103Y-86060594D01*
X168947439Y-86043711D01*
X169021400Y-86031029D01*
X169096943Y-86022960D01*
X169170023Y-86019918D01*
X169236600Y-86022314D01*
X169292628Y-86030561D01*
X169299874Y-86032328D01*
X169371596Y-86057567D01*
X169430958Y-86093228D01*
X169478832Y-86140170D01*
X169516089Y-86199254D01*
X169543601Y-86271337D01*
X169544081Y-86272998D01*
X169547616Y-86287529D01*
X169550573Y-86305433D01*
X169553025Y-86328364D01*
X169555048Y-86357976D01*
X169556714Y-86395922D01*
X169558099Y-86443856D01*
X169559275Y-86503432D01*
X169560317Y-86576304D01*
X169561215Y-86655978D01*
X169564679Y-86991380D01*
X169275181Y-86991380D01*
X169275181Y-86873499D01*
X169252754Y-86902273D01*
X169213117Y-86943120D01*
X169164664Y-86977824D01*
X169116033Y-87000846D01*
X169074185Y-87010518D01*
X169022850Y-87015334D01*
X168968266Y-87015302D01*
X168916671Y-87010433D01*
X168874305Y-87000735D01*
X168873563Y-87000481D01*
X168817708Y-86972898D01*
X168770286Y-86932868D01*
X168733636Y-86883032D01*
X168710100Y-86826032D01*
X168706807Y-86812280D01*
X168701560Y-86771045D01*
X168700571Y-86723251D01*
X168703505Y-86674708D01*
X168975714Y-86674708D01*
X168976635Y-86712091D01*
X168991890Y-86748578D01*
X169016315Y-86776629D01*
X169035105Y-86791288D01*
X169052958Y-86798946D01*
X169076630Y-86801780D01*
X169095206Y-86802073D01*
X169131415Y-86799482D01*
X169163049Y-86792640D01*
X169173383Y-86788660D01*
X169205302Y-86766785D01*
X169235240Y-86734806D01*
X169258067Y-86698778D01*
X169265629Y-86679777D01*
X169269716Y-86659785D01*
X169272842Y-86632893D01*
X169274809Y-86603637D01*
X169275424Y-86576553D01*
X169274490Y-86556178D01*
X169271814Y-86547046D01*
X169271349Y-86546921D01*
X169251868Y-86548431D01*
X169221408Y-86552457D01*
X169184317Y-86558240D01*
X169144945Y-86565022D01*
X169107640Y-86572045D01*
X169076753Y-86578550D01*
X169056632Y-86583779D01*
X169053571Y-86584890D01*
X169014720Y-86608336D01*
X168988589Y-86639199D01*
X168975714Y-86674708D01*
X168703505Y-86674708D01*
X168703506Y-86674695D01*
X168710032Y-86631174D01*
G37*
G36*
X167003503Y-86343774D02*
G01*
X167003644Y-86430821D01*
X167004196Y-86503032D01*
X167005348Y-86562033D01*
X167007290Y-86609447D01*
X167010215Y-86646900D01*
X167014310Y-86676016D01*
X167019768Y-86698419D01*
X167026779Y-86715735D01*
X167035533Y-86729587D01*
X167046220Y-86741600D01*
X167050636Y-86745843D01*
X167077972Y-86767986D01*
X167104607Y-86780239D01*
X167137285Y-86785113D01*
X167157288Y-86785570D01*
X167208464Y-86778415D01*
X167251617Y-86756926D01*
X167283657Y-86725510D01*
X167293853Y-86711391D01*
X167302207Y-86696489D01*
X167308901Y-86679073D01*
X167314116Y-86657415D01*
X167318034Y-86629784D01*
X167320835Y-86594451D01*
X167322701Y-86549686D01*
X167323813Y-86493758D01*
X167324352Y-86424938D01*
X167324500Y-86341497D01*
X167324501Y-86335729D01*
X167324501Y-86044847D01*
X167620807Y-86044847D01*
X167620807Y-86991380D01*
X167324501Y-86991380D01*
X167324501Y-86867500D01*
X167275861Y-86917208D01*
X167234172Y-86955740D01*
X167193896Y-86982900D01*
X167150662Y-87000488D01*
X167100096Y-87010306D01*
X167040541Y-87014092D01*
X166993797Y-87014424D01*
X166958790Y-87012566D01*
X166930888Y-87008064D01*
X166907202Y-87001092D01*
X166851455Y-86976136D01*
X166807466Y-86943560D01*
X166771566Y-86900123D01*
X166749404Y-86861752D01*
X166739629Y-86841505D01*
X166731489Y-86821361D01*
X166724837Y-86799633D01*
X166719523Y-86774636D01*
X166715399Y-86744685D01*
X166712315Y-86708092D01*
X166710125Y-86663173D01*
X166708678Y-86608241D01*
X166707827Y-86541610D01*
X166707422Y-86461595D01*
X166707319Y-86384364D01*
X166707197Y-86044847D01*
X167003503Y-86044847D01*
X167003503Y-86343774D01*
G37*
G36*
X155238758Y-86024541D02*
G01*
X155272274Y-86025661D01*
X155296603Y-86028094D01*
X155315382Y-86032302D01*
X155332244Y-86038748D01*
X155341753Y-86043283D01*
X155392839Y-86077261D01*
X155436239Y-86123138D01*
X155461373Y-86163114D01*
X155471440Y-86184071D01*
X155479837Y-86205021D01*
X155486717Y-86227640D01*
X155492227Y-86253603D01*
X155496518Y-86284585D01*
X155499740Y-86322264D01*
X155502042Y-86368315D01*
X155503574Y-86424414D01*
X155504487Y-86492237D01*
X155504928Y-86573459D01*
X155505045Y-86651863D01*
X155505188Y-86991380D01*
X155209623Y-86991380D01*
X155204767Y-86369960D01*
X155184190Y-86328819D01*
X155159281Y-86289572D01*
X155129772Y-86264995D01*
X155092749Y-86253381D01*
X155053577Y-86252404D01*
X155024018Y-86254975D01*
X155004283Y-86260214D01*
X154987740Y-86271195D01*
X154967754Y-86290990D01*
X154965769Y-86293088D01*
X154950711Y-86309678D01*
X154938335Y-86325725D01*
X154928377Y-86342984D01*
X154920577Y-86363213D01*
X154914671Y-86388169D01*
X154910398Y-86419609D01*
X154907496Y-86459289D01*
X154905703Y-86508967D01*
X154904755Y-86570399D01*
X154904392Y-86645342D01*
X154904345Y-86704798D01*
X154904345Y-86991380D01*
X154609261Y-86991380D01*
X154606593Y-86680670D01*
X154603924Y-86369960D01*
X154583347Y-86328819D01*
X154557125Y-86288925D01*
X154524822Y-86263704D01*
X154484484Y-86251893D01*
X154462376Y-86250615D01*
X154416889Y-86255563D01*
X154381040Y-86271638D01*
X154350874Y-86300685D01*
X154348503Y-86303735D01*
X154337301Y-86319310D01*
X154328122Y-86335009D01*
X154320766Y-86352598D01*
X154315032Y-86373837D01*
X154310721Y-86400492D01*
X154307633Y-86434325D01*
X154305568Y-86477099D01*
X154304326Y-86530578D01*
X154303706Y-86596525D01*
X154303509Y-86676703D01*
X154303503Y-86700497D01*
X154303503Y-86991380D01*
X153998966Y-86991380D01*
X153998966Y-86044847D01*
X154303503Y-86044847D01*
X154303503Y-86167234D01*
X154348576Y-86122161D01*
X154394996Y-86083171D01*
X154446387Y-86052130D01*
X154449402Y-86050679D01*
X154473586Y-86039619D01*
X154493657Y-86032173D01*
X154513901Y-86027629D01*
X154538603Y-86025273D01*
X154572047Y-86024392D01*
X154608039Y-86024270D01*
X154651872Y-86024519D01*
X154683181Y-86025666D01*
X154705899Y-86028309D01*
X154723963Y-86033046D01*
X154741306Y-86040477D01*
X154752599Y-86046265D01*
X154789383Y-86070615D01*
X154824871Y-86102533D01*
X154853470Y-86136631D01*
X154863627Y-86153176D01*
X154872009Y-86168613D01*
X154876219Y-86175419D01*
X154882540Y-86171219D01*
X154897161Y-86157428D01*
X154917351Y-86136673D01*
X154925379Y-86128087D01*
X154976418Y-86081644D01*
X155026639Y-86051015D01*
X155049315Y-86040230D01*
X155068107Y-86032820D01*
X155086940Y-86028152D01*
X155109735Y-86025594D01*
X155140416Y-86024511D01*
X155182907Y-86024272D01*
X155192421Y-86024270D01*
X155238758Y-86024541D01*
G37*
G36*
X142023270Y-82472715D02*
G01*
X141331889Y-82472715D01*
X141331889Y-84727932D01*
X141159044Y-84727932D01*
X141159044Y-82472715D01*
X140467664Y-82472715D01*
X140467664Y-82324562D01*
X142023270Y-82324562D01*
X142023270Y-82472715D01*
G37*
G36*
X139718668Y-87007841D02*
G01*
X139471747Y-87007841D01*
X139471747Y-82201101D01*
X139718668Y-82201101D01*
X139718668Y-87007841D01*
G37*
G36*
X144043484Y-86463399D02*
G01*
X144049239Y-86404031D01*
X144057738Y-86353387D01*
X144064190Y-86328807D01*
X144096744Y-86249058D01*
X144139973Y-86179024D01*
X144192569Y-86120074D01*
X144253226Y-86073574D01*
X144320638Y-86040893D01*
X144347190Y-86032534D01*
X144380746Y-86025237D01*
X144416917Y-86021509D01*
X144461105Y-86020941D01*
X144489407Y-86021772D01*
X144546713Y-86026026D01*
X144591895Y-86034728D01*
X144629028Y-86049399D01*
X144662187Y-86071561D01*
X144689303Y-86096424D01*
X144722945Y-86130403D01*
X144722945Y-85592157D01*
X145019251Y-85592157D01*
X145019251Y-86991380D01*
X144722945Y-86991380D01*
X144722945Y-86880797D01*
X144683850Y-86920808D01*
X144650693Y-86949367D01*
X144611159Y-86975703D01*
X144591254Y-86986282D01*
X144566190Y-86997566D01*
X144544445Y-87005066D01*
X144521287Y-87009664D01*
X144491982Y-87012242D01*
X144451795Y-87013682D01*
X144443101Y-87013887D01*
X144394733Y-87014223D01*
X144358183Y-87012428D01*
X144328895Y-87008085D01*
X144303179Y-87001061D01*
X144235068Y-86970132D01*
X144175633Y-86925762D01*
X144125733Y-86868994D01*
X144086226Y-86800874D01*
X144057968Y-86722445D01*
X144051220Y-86694300D01*
X144044340Y-86646942D01*
X144040868Y-86589546D01*
X144040691Y-86541140D01*
X144340223Y-86541140D01*
X144346681Y-86607838D01*
X144363639Y-86666707D01*
X144390465Y-86715940D01*
X144426525Y-86753735D01*
X144450270Y-86769101D01*
X144483658Y-86780238D01*
X144525009Y-86784983D01*
X144567017Y-86783089D01*
X144602375Y-86774308D01*
X144602511Y-86774251D01*
X144637529Y-86752302D01*
X144670560Y-86718401D01*
X144697721Y-86676945D01*
X144707827Y-86654915D01*
X144715903Y-86631667D01*
X144721286Y-86607917D01*
X144724507Y-86579414D01*
X144726098Y-86541911D01*
X144726540Y-86505202D01*
X144726560Y-86461652D01*
X144725673Y-86430513D01*
X144723233Y-86407734D01*
X144718593Y-86389268D01*
X144711106Y-86371064D01*
X144702265Y-86353253D01*
X144673185Y-86307792D01*
X144638738Y-86276849D01*
X144596388Y-86258728D01*
X144551090Y-86252069D01*
X144515403Y-86251458D01*
X144489080Y-86255140D01*
X144465344Y-86264164D01*
X144461942Y-86265863D01*
X144419094Y-86296012D01*
X144385738Y-86338231D01*
X144361467Y-86393228D01*
X144345869Y-86461711D01*
X144344897Y-86468416D01*
X144340223Y-86541140D01*
X144040691Y-86541140D01*
X144040638Y-86526801D01*
X144043484Y-86463399D01*
G37*
G36*
X158311863Y-86991380D02*
G01*
X158007327Y-86991380D01*
X158007327Y-86044847D01*
X158311863Y-86044847D01*
X158311863Y-86991380D01*
G37*
G36*
X150718664Y-85652949D02*
G01*
X150777824Y-85658531D01*
X150832511Y-85667883D01*
X150881581Y-85679940D01*
X150928908Y-85693095D01*
X150928908Y-85840164D01*
X150928521Y-85887307D01*
X150927445Y-85928185D01*
X150925811Y-85960192D01*
X150923747Y-85980722D01*
X150921601Y-85987232D01*
X150910959Y-85983972D01*
X150889945Y-85975409D01*
X150863026Y-85963367D01*
X150861929Y-85962857D01*
X150797802Y-85937072D01*
X150735322Y-85921309D01*
X150667818Y-85914150D01*
X150628815Y-85913357D01*
X150552274Y-85917171D01*
X150487413Y-85928959D01*
X150430939Y-85949852D01*
X150379562Y-85980979D01*
X150342488Y-86011633D01*
X150290880Y-86070021D01*
X150252093Y-86138370D01*
X150226401Y-86215982D01*
X150214080Y-86302161D01*
X150212957Y-86340412D01*
X150219769Y-86427515D01*
X150239432Y-86506573D01*
X150271251Y-86576575D01*
X150314533Y-86636506D01*
X150368584Y-86685354D01*
X150432710Y-86722104D01*
X150487331Y-86741208D01*
X150548666Y-86751475D01*
X150619053Y-86753202D01*
X150693800Y-86746904D01*
X150768212Y-86733099D01*
X150837596Y-86712302D01*
X150869492Y-86699188D01*
X150894629Y-86688196D01*
X150913858Y-86680730D01*
X150921672Y-86678612D01*
X150924076Y-86686391D01*
X150926143Y-86707922D01*
X150927727Y-86740496D01*
X150928686Y-86781406D01*
X150928908Y-86814839D01*
X150928908Y-86951066D01*
X150898704Y-86963686D01*
X150856588Y-86979680D01*
X150814522Y-86991867D01*
X150769193Y-87000762D01*
X150717284Y-87006882D01*
X150655481Y-87010744D01*
X150583218Y-87012815D01*
X150519051Y-87013560D01*
X150468410Y-87013152D01*
X150428393Y-87011459D01*
X150396094Y-87008349D01*
X150368612Y-87003690D01*
X150365104Y-87002934D01*
X150268386Y-86973817D01*
X150181076Y-86931536D01*
X150103823Y-86876593D01*
X150037282Y-86809487D01*
X149982103Y-86730719D01*
X149962327Y-86693984D01*
X149933652Y-86629083D01*
X149913244Y-86565182D01*
X149900351Y-86498235D01*
X149894222Y-86424198D01*
X149894104Y-86339024D01*
X149894425Y-86328807D01*
X149897809Y-86260855D01*
X149903495Y-86204765D01*
X149912527Y-86155985D01*
X149925951Y-86109963D01*
X149944812Y-86062149D01*
X149966218Y-86016039D01*
X150018664Y-85925819D01*
X150082428Y-85847542D01*
X150157401Y-85781303D01*
X150243474Y-85727198D01*
X150340536Y-85685320D01*
X150352758Y-85681173D01*
X150383085Y-85671517D01*
X150409112Y-85664490D01*
X150434665Y-85659575D01*
X150463565Y-85656257D01*
X150499636Y-85654018D01*
X150546703Y-85652343D01*
X150571236Y-85651669D01*
X150651109Y-85650781D01*
X150718664Y-85652949D01*
G37*
G36*
X141877887Y-86631174D02*
G01*
X141886836Y-86600421D01*
X141919394Y-86541856D01*
X141964004Y-86493915D01*
X142021210Y-86456124D01*
X142080093Y-86431643D01*
X142100750Y-86426324D01*
X142134192Y-86419415D01*
X142176912Y-86411481D01*
X142225403Y-86403092D01*
X142276158Y-86394814D01*
X142325669Y-86387215D01*
X142370431Y-86380864D01*
X142406935Y-86376328D01*
X142431674Y-86374175D01*
X142435686Y-86374076D01*
X142442025Y-86367212D01*
X142442871Y-86349749D01*
X142438823Y-86326381D01*
X142430481Y-86301802D01*
X142425060Y-86290832D01*
X142402777Y-86261754D01*
X142372611Y-86241906D01*
X142332225Y-86230314D01*
X142279280Y-86226002D01*
X142269485Y-86225923D01*
X142180599Y-86233950D01*
X142093009Y-86257470D01*
X142023539Y-86288226D01*
X141996749Y-86301999D01*
X141975626Y-86312051D01*
X141964332Y-86316413D01*
X141963866Y-86316461D01*
X141961510Y-86308731D01*
X141959541Y-86287541D01*
X141958132Y-86255891D01*
X141957457Y-86216782D01*
X141957424Y-86205456D01*
X141957424Y-86094452D01*
X141988289Y-86081264D01*
X142046958Y-86060594D01*
X142115294Y-86043711D01*
X142189255Y-86031029D01*
X142264797Y-86022960D01*
X142337878Y-86019918D01*
X142404454Y-86022314D01*
X142460483Y-86030561D01*
X142467728Y-86032328D01*
X142539451Y-86057567D01*
X142598813Y-86093228D01*
X142646687Y-86140170D01*
X142683944Y-86199254D01*
X142711456Y-86271337D01*
X142711936Y-86272998D01*
X142715471Y-86287529D01*
X142718428Y-86305433D01*
X142720880Y-86328364D01*
X142722903Y-86357976D01*
X142724569Y-86395922D01*
X142725953Y-86443856D01*
X142727130Y-86503432D01*
X142728171Y-86576304D01*
X142729070Y-86655978D01*
X142732534Y-86991380D01*
X142443036Y-86991380D01*
X142443036Y-86873499D01*
X142420609Y-86902273D01*
X142380972Y-86943120D01*
X142332519Y-86977824D01*
X142283888Y-87000846D01*
X142242040Y-87010518D01*
X142190705Y-87015334D01*
X142136121Y-87015302D01*
X142084526Y-87010433D01*
X142042159Y-87000735D01*
X142041418Y-87000481D01*
X141985563Y-86972898D01*
X141938140Y-86932868D01*
X141901491Y-86883032D01*
X141877955Y-86826032D01*
X141874662Y-86812280D01*
X141869415Y-86771045D01*
X141868426Y-86723251D01*
X141871360Y-86674708D01*
X142143569Y-86674708D01*
X142144490Y-86712091D01*
X142159745Y-86748578D01*
X142184170Y-86776629D01*
X142202960Y-86791288D01*
X142220813Y-86798946D01*
X142244484Y-86801780D01*
X142263061Y-86802073D01*
X142299270Y-86799482D01*
X142330903Y-86792640D01*
X142341238Y-86788660D01*
X142373157Y-86766785D01*
X142403095Y-86734806D01*
X142425922Y-86698778D01*
X142433484Y-86679777D01*
X142437571Y-86659785D01*
X142440696Y-86632893D01*
X142442664Y-86603637D01*
X142443279Y-86576553D01*
X142442345Y-86556178D01*
X142439668Y-86547046D01*
X142439204Y-86546921D01*
X142419723Y-86548431D01*
X142389263Y-86552457D01*
X142352172Y-86558240D01*
X142312800Y-86565022D01*
X142275495Y-86572045D01*
X142244608Y-86578550D01*
X142224487Y-86583779D01*
X142221426Y-86584890D01*
X142182575Y-86608336D01*
X142156443Y-86639199D01*
X142143569Y-86674708D01*
X141871360Y-86674708D01*
X141871361Y-86674695D01*
X141877887Y-86631174D01*
G37*
G36*
X146303979Y-83610872D02*
G01*
X146335479Y-83494805D01*
X146379252Y-83388846D01*
X146435107Y-83293344D01*
X146502857Y-83208648D01*
X146582312Y-83135107D01*
X146673283Y-83073070D01*
X146727126Y-83044477D01*
X146778575Y-83020843D01*
X146825224Y-83002743D01*
X146870648Y-82989483D01*
X146918421Y-82980368D01*
X146972119Y-82974703D01*
X147035318Y-82971796D01*
X147105739Y-82970957D01*
X147176827Y-82971450D01*
X147235038Y-82973575D01*
X147283922Y-82977892D01*
X147327029Y-82984962D01*
X147367910Y-82995346D01*
X147410112Y-83009603D01*
X147450026Y-83025331D01*
X147538925Y-83070688D01*
X147620405Y-83129956D01*
X147693481Y-83201890D01*
X147757163Y-83285248D01*
X147810464Y-83378787D01*
X147852397Y-83481263D01*
X147875136Y-83560469D01*
X147895143Y-83668649D01*
X147905782Y-83783407D01*
X147907192Y-83900800D01*
X147899513Y-84016887D01*
X147882887Y-84127728D01*
X147857454Y-84229380D01*
X147850543Y-84250550D01*
X147809664Y-84347530D01*
X147756157Y-84438666D01*
X147691834Y-84521846D01*
X147618508Y-84594958D01*
X147537992Y-84655891D01*
X147469326Y-84694590D01*
X147418559Y-84717610D01*
X147372001Y-84735085D01*
X147325862Y-84747783D01*
X147276350Y-84756468D01*
X147219673Y-84761908D01*
X147152041Y-84764868D01*
X147118085Y-84765578D01*
X147066115Y-84765946D01*
X147016587Y-84765451D01*
X146973155Y-84764191D01*
X146939475Y-84762268D01*
X146921481Y-84760227D01*
X146815763Y-84733613D01*
X146715935Y-84692426D01*
X146623682Y-84637660D01*
X146540687Y-84570310D01*
X146470912Y-84494265D01*
X146407224Y-84402028D01*
X146356639Y-84302593D01*
X146318869Y-84195021D01*
X146293622Y-84078373D01*
X146280609Y-83951712D01*
X146278551Y-83871937D01*
X146278860Y-83865386D01*
X146447953Y-83865386D01*
X146450920Y-83969219D01*
X146462830Y-84068700D01*
X146476162Y-84131905D01*
X146493641Y-84187598D01*
X146518282Y-84248750D01*
X146547066Y-84308666D01*
X146576979Y-84360653D01*
X146584086Y-84371346D01*
X146642960Y-84442769D01*
X146713714Y-84504442D01*
X146793916Y-84554748D01*
X146881135Y-84592070D01*
X146941124Y-84608752D01*
X146987497Y-84615773D01*
X147044605Y-84619616D01*
X147107045Y-84620344D01*
X147169413Y-84618020D01*
X147226306Y-84612705D01*
X147270353Y-84604946D01*
X147321859Y-84591318D01*
X147363568Y-84576860D01*
X147402035Y-84558846D01*
X147443814Y-84534552D01*
X147452052Y-84529391D01*
X147515123Y-84480961D01*
X147573544Y-84419291D01*
X147624868Y-84347457D01*
X147666646Y-84268532D01*
X147674474Y-84250126D01*
X147703238Y-84162451D01*
X147723508Y-84064326D01*
X147735275Y-83959405D01*
X147738528Y-83851345D01*
X147733255Y-83743802D01*
X147719448Y-83640432D01*
X147697094Y-83544893D01*
X147676693Y-83485475D01*
X147632804Y-83393896D01*
X147579358Y-83315610D01*
X147516102Y-83250334D01*
X147442785Y-83197783D01*
X147403674Y-83176863D01*
X147344710Y-83151175D01*
X147288064Y-83133068D01*
X147229375Y-83121745D01*
X147164280Y-83116414D01*
X147088415Y-83116278D01*
X147073622Y-83116732D01*
X147021385Y-83119067D01*
X146980986Y-83122371D01*
X146947808Y-83127289D01*
X146917231Y-83134470D01*
X146891740Y-83142212D01*
X146802122Y-83179921D01*
X146719851Y-83231640D01*
X146646436Y-83295988D01*
X146583385Y-83371582D01*
X146532208Y-83457042D01*
X146520354Y-83482231D01*
X146490128Y-83565622D01*
X146467814Y-83659802D01*
X146453670Y-83760985D01*
X146447953Y-83865386D01*
X146278860Y-83865386D01*
X146284940Y-83736699D01*
X146303979Y-83610872D01*
G37*
G36*
X159392858Y-86631174D02*
G01*
X159401807Y-86600421D01*
X159434365Y-86541856D01*
X159478975Y-86493915D01*
X159536181Y-86456124D01*
X159595064Y-86431643D01*
X159615721Y-86426324D01*
X159649163Y-86419415D01*
X159691883Y-86411481D01*
X159740374Y-86403092D01*
X159791128Y-86394814D01*
X159840640Y-86387215D01*
X159885401Y-86380864D01*
X159921906Y-86376328D01*
X159946645Y-86374175D01*
X159950657Y-86374076D01*
X159956996Y-86367212D01*
X159957842Y-86349749D01*
X159953794Y-86326381D01*
X159945451Y-86301802D01*
X159940030Y-86290832D01*
X159917748Y-86261754D01*
X159887582Y-86241906D01*
X159847196Y-86230314D01*
X159794251Y-86226002D01*
X159784456Y-86225923D01*
X159695570Y-86233950D01*
X159607980Y-86257470D01*
X159538510Y-86288226D01*
X159511720Y-86301999D01*
X159490596Y-86312051D01*
X159479303Y-86316413D01*
X159478837Y-86316461D01*
X159476481Y-86308731D01*
X159474511Y-86287541D01*
X159473102Y-86255891D01*
X159472428Y-86216782D01*
X159472395Y-86205456D01*
X159472395Y-86094452D01*
X159503260Y-86081264D01*
X159561928Y-86060594D01*
X159630265Y-86043711D01*
X159704226Y-86031029D01*
X159779768Y-86022960D01*
X159852849Y-86019918D01*
X159919425Y-86022314D01*
X159975454Y-86030561D01*
X159982699Y-86032328D01*
X160054422Y-86057567D01*
X160113784Y-86093228D01*
X160161658Y-86140170D01*
X160198915Y-86199254D01*
X160226427Y-86271337D01*
X160226907Y-86272998D01*
X160230442Y-86287529D01*
X160233399Y-86305433D01*
X160235851Y-86328364D01*
X160237874Y-86357976D01*
X160239540Y-86395922D01*
X160240924Y-86443856D01*
X160242100Y-86503432D01*
X160243142Y-86576304D01*
X160244040Y-86655978D01*
X160247505Y-86991380D01*
X159958007Y-86991380D01*
X159958007Y-86873499D01*
X159935580Y-86902273D01*
X159895942Y-86943120D01*
X159847490Y-86977824D01*
X159798858Y-87000846D01*
X159757011Y-87010518D01*
X159705676Y-87015334D01*
X159651092Y-87015302D01*
X159599497Y-87010433D01*
X159557130Y-87000735D01*
X159556389Y-87000481D01*
X159500534Y-86972898D01*
X159453111Y-86932868D01*
X159416462Y-86883032D01*
X159392926Y-86826032D01*
X159389632Y-86812280D01*
X159384386Y-86771045D01*
X159383396Y-86723251D01*
X159386331Y-86674708D01*
X159658540Y-86674708D01*
X159659461Y-86712091D01*
X159674716Y-86748578D01*
X159699141Y-86776629D01*
X159717930Y-86791288D01*
X159735784Y-86798946D01*
X159759455Y-86801780D01*
X159778031Y-86802073D01*
X159814241Y-86799482D01*
X159845874Y-86792640D01*
X159856209Y-86788660D01*
X159888128Y-86766785D01*
X159918066Y-86734806D01*
X159940893Y-86698778D01*
X159948455Y-86679777D01*
X159952542Y-86659785D01*
X159955667Y-86632893D01*
X159957635Y-86603637D01*
X159958249Y-86576553D01*
X159957316Y-86556178D01*
X159954639Y-86547046D01*
X159954175Y-86546921D01*
X159934694Y-86548431D01*
X159904234Y-86552457D01*
X159867143Y-86558240D01*
X159827771Y-86565022D01*
X159790466Y-86572045D01*
X159759579Y-86578550D01*
X159739457Y-86583779D01*
X159736397Y-86584890D01*
X159697546Y-86608336D01*
X159671414Y-86639199D01*
X159658540Y-86674708D01*
X159386331Y-86674708D01*
X159386332Y-86674695D01*
X159392858Y-86631174D01*
G37*
G36*
X140821584Y-86201231D02*
G01*
X141356581Y-86201231D01*
X141356581Y-85674465D01*
X141669349Y-85674465D01*
X141669349Y-86991380D01*
X141356581Y-86991380D01*
X141356581Y-86456383D01*
X140821584Y-86456383D01*
X140821584Y-86991380D01*
X140517048Y-86991380D01*
X140517048Y-85674465D01*
X140821584Y-85674465D01*
X140821584Y-86201231D01*
G37*
G36*
X171006808Y-86456968D02*
G01*
X171011804Y-86403055D01*
X171019356Y-86357578D01*
X171026328Y-86332526D01*
X171047282Y-86280076D01*
X171069870Y-86237555D01*
X171097941Y-86198584D01*
X171127104Y-86165491D01*
X171189292Y-86110978D01*
X171262534Y-86068608D01*
X171346905Y-86038338D01*
X171354339Y-86036386D01*
X171403421Y-86027364D01*
X171462780Y-86021859D01*
X171526793Y-86019932D01*
X171589835Y-86021645D01*
X171646283Y-86027059D01*
X171677825Y-86032838D01*
X171760538Y-86060271D01*
X171833858Y-86100922D01*
X171896913Y-86153922D01*
X171948829Y-86218402D01*
X171988732Y-86293495D01*
X172012735Y-86365746D01*
X172019452Y-86405626D01*
X172023017Y-86455957D01*
X172023586Y-86512092D01*
X172021316Y-86569387D01*
X172016364Y-86623195D01*
X172008886Y-86668869D01*
X172001619Y-86695259D01*
X171966042Y-86776849D01*
X171922157Y-86845070D01*
X171868367Y-86901522D01*
X171803075Y-86947801D01*
X171724682Y-86985506D01*
X171703429Y-86993570D01*
X171669004Y-87002264D01*
X171622499Y-87008733D01*
X171568153Y-87012893D01*
X171510208Y-87014656D01*
X171452905Y-87013936D01*
X171400484Y-87010648D01*
X171357186Y-87004705D01*
X171341092Y-87000941D01*
X171256807Y-86969481D01*
X171183470Y-86926000D01*
X171121630Y-86871064D01*
X171071838Y-86805240D01*
X171034646Y-86729095D01*
X171015394Y-86665734D01*
X171008663Y-86623702D01*
X171005088Y-86571854D01*
X171004778Y-86540664D01*
X171305311Y-86540664D01*
X171312050Y-86599806D01*
X171325916Y-86654493D01*
X171346455Y-86701463D01*
X171373215Y-86737455D01*
X171384942Y-86747592D01*
X171415284Y-86766600D01*
X171447548Y-86778167D01*
X171487095Y-86783790D01*
X171518816Y-86784962D01*
X171556598Y-86783827D01*
X171585127Y-86778526D01*
X171611368Y-86767710D01*
X171613469Y-86766623D01*
X171653873Y-86737079D01*
X171684411Y-86695673D01*
X171705247Y-86641968D01*
X171716546Y-86575525D01*
X171718473Y-86495905D01*
X171718190Y-86488015D01*
X171710869Y-86416037D01*
X171694975Y-86357829D01*
X171670034Y-86312827D01*
X171635571Y-86280470D01*
X171591110Y-86260196D01*
X171536177Y-86251441D01*
X171518052Y-86250976D01*
X171459352Y-86256705D01*
X171411338Y-86274492D01*
X171372591Y-86305241D01*
X171341694Y-86349854D01*
X171332379Y-86369120D01*
X171315022Y-86422059D01*
X171306150Y-86480327D01*
X171305311Y-86540664D01*
X171004778Y-86540664D01*
X171004520Y-86514755D01*
X171006808Y-86456968D01*
G37*
G36*
X170814326Y-86991380D02*
G01*
X170509789Y-86991380D01*
X170509789Y-86044847D01*
X170814326Y-86044847D01*
X170814326Y-86991380D01*
G37*
G36*
X142521693Y-82328348D02*
G01*
X142540175Y-82336312D01*
X142550036Y-82342533D01*
X142580673Y-82371942D01*
X142600868Y-82409578D01*
X142607638Y-82447482D01*
X142601488Y-82483219D01*
X142585296Y-82519501D01*
X142562491Y-82549861D01*
X142546422Y-82562942D01*
X142512030Y-82576089D01*
X142471163Y-82579941D01*
X142430947Y-82574482D01*
X142403865Y-82563297D01*
X142370517Y-82534202D01*
X142350683Y-82495766D01*
X142344298Y-82449293D01*
X142349995Y-82402657D01*
X142367417Y-82367366D01*
X142396949Y-82343032D01*
X142438977Y-82329271D01*
X142467683Y-82326063D01*
X142499649Y-82325356D01*
X142521693Y-82328348D01*
G37*
G36*
X160824095Y-85760642D02*
G01*
X160826961Y-85774048D01*
X160828894Y-85798389D01*
X160830016Y-85835372D01*
X160830449Y-85886706D01*
X160830463Y-85900809D01*
X160830463Y-86044847D01*
X161044462Y-86044847D01*
X161044462Y-86258846D01*
X160830463Y-86258846D01*
X160830509Y-86470787D01*
X160830849Y-86531927D01*
X160831784Y-86588179D01*
X160833227Y-86637079D01*
X160835093Y-86676163D01*
X160837295Y-86702966D01*
X160838981Y-86713064D01*
X160851212Y-86738847D01*
X160870192Y-86762416D01*
X160873251Y-86765147D01*
X160889676Y-86777337D01*
X160905512Y-86783257D01*
X160926989Y-86784378D01*
X160949144Y-86783061D01*
X160980347Y-86779968D01*
X161008164Y-86776021D01*
X161021828Y-86773230D01*
X161044462Y-86767231D01*
X161044462Y-86989210D01*
X160996595Y-87002641D01*
X160963608Y-87008968D01*
X160920239Y-87013212D01*
X160871204Y-87015338D01*
X160821221Y-87015315D01*
X160775006Y-87013111D01*
X160737274Y-87008692D01*
X160719349Y-87004559D01*
X160673368Y-86986742D01*
X160637126Y-86964020D01*
X160603910Y-86932113D01*
X160601564Y-86929469D01*
X160585847Y-86911125D01*
X160573007Y-86894064D01*
X160562734Y-86876420D01*
X160554717Y-86856326D01*
X160548642Y-86831914D01*
X160544201Y-86801318D01*
X160541080Y-86762670D01*
X160538970Y-86714104D01*
X160537558Y-86653753D01*
X160536534Y-86579749D01*
X160536065Y-86536632D01*
X160533162Y-86258846D01*
X160377774Y-86258846D01*
X160377774Y-86044847D01*
X160534157Y-86044847D01*
X160534157Y-85834765D01*
X160672022Y-85795459D01*
X160717642Y-85782631D01*
X160758098Y-85771593D01*
X160790596Y-85763079D01*
X160812346Y-85757825D01*
X160820175Y-85756463D01*
X160824095Y-85760642D01*
G37*
G36*
X159072739Y-86022021D02*
G01*
X159128620Y-86025185D01*
X159177790Y-86030448D01*
X159215971Y-86037718D01*
X159223415Y-86039875D01*
X159266627Y-86053715D01*
X159266627Y-86180973D01*
X159266432Y-86224636D01*
X159265895Y-86261839D01*
X159265085Y-86289779D01*
X159264074Y-86305654D01*
X159263435Y-86308230D01*
X159255007Y-86304961D01*
X159235614Y-86296311D01*
X159209134Y-86284019D01*
X159203763Y-86281483D01*
X159171935Y-86267586D01*
X159144114Y-86259065D01*
X159113483Y-86254377D01*
X159073226Y-86251984D01*
X159073205Y-86251983D01*
X159031811Y-86251389D01*
X159000515Y-86253721D01*
X158973096Y-86259747D01*
X158951895Y-86266941D01*
X158899174Y-86295175D01*
X158854805Y-86335936D01*
X158821850Y-86386163D01*
X158813721Y-86405034D01*
X158800472Y-86456863D01*
X158795299Y-86516094D01*
X158798321Y-86575720D01*
X158809658Y-86628732D01*
X158809898Y-86629456D01*
X158831334Y-86672815D01*
X158864106Y-86713818D01*
X158903782Y-86747938D01*
X158945928Y-86770644D01*
X158949222Y-86771815D01*
X159000511Y-86782906D01*
X159058787Y-86785202D01*
X159118772Y-86779295D01*
X159175188Y-86765777D01*
X159222756Y-86745240D01*
X159230916Y-86740230D01*
X159244409Y-86732135D01*
X159254009Y-86729618D01*
X159260310Y-86734590D01*
X159263909Y-86748963D01*
X159265399Y-86774649D01*
X159265375Y-86813560D01*
X159264789Y-86849067D01*
X159262511Y-86970137D01*
X159204896Y-86990421D01*
X159180908Y-86998249D01*
X159157978Y-87003916D01*
X159132531Y-87007845D01*
X159100992Y-87010457D01*
X159059785Y-87012177D01*
X159011474Y-87013312D01*
X158952253Y-87013943D01*
X158906533Y-87013162D01*
X158871401Y-87010810D01*
X158843947Y-87006730D01*
X158830398Y-87003511D01*
X158750243Y-86973559D01*
X158678081Y-86930596D01*
X158615496Y-86876191D01*
X158564070Y-86811915D01*
X158525386Y-86739340D01*
X158505978Y-86681540D01*
X158497423Y-86632918D01*
X158493188Y-86574126D01*
X158493212Y-86510859D01*
X158497435Y-86448816D01*
X158505796Y-86393692D01*
X158509198Y-86378981D01*
X158538771Y-86294861D01*
X158581564Y-86219934D01*
X158636489Y-86155252D01*
X158702458Y-86101868D01*
X158778385Y-86060834D01*
X158863182Y-86033203D01*
X158867624Y-86032194D01*
X158907588Y-86026041D01*
X158957946Y-86022356D01*
X159014421Y-86021047D01*
X159072739Y-86022021D01*
G37*
G36*
X165500969Y-86463399D02*
G01*
X165506725Y-86404031D01*
X165515223Y-86353387D01*
X165521675Y-86328807D01*
X165554230Y-86249058D01*
X165597459Y-86179024D01*
X165650055Y-86120074D01*
X165710712Y-86073574D01*
X165778123Y-86040893D01*
X165804675Y-86032534D01*
X165838232Y-86025237D01*
X165874402Y-86021509D01*
X165918591Y-86020941D01*
X165946893Y-86021772D01*
X166004199Y-86026026D01*
X166049380Y-86034728D01*
X166086513Y-86049399D01*
X166119672Y-86071561D01*
X166146788Y-86096424D01*
X166180431Y-86130403D01*
X166180431Y-85592157D01*
X166476737Y-85592157D01*
X166476737Y-86991380D01*
X166180431Y-86991380D01*
X166180431Y-86880797D01*
X166141335Y-86920808D01*
X166108179Y-86949367D01*
X166068644Y-86975703D01*
X166048739Y-86986282D01*
X166023675Y-86997566D01*
X166001931Y-87005066D01*
X165978773Y-87009664D01*
X165949467Y-87012242D01*
X165909280Y-87013682D01*
X165900586Y-87013887D01*
X165852218Y-87014223D01*
X165815668Y-87012428D01*
X165786381Y-87008085D01*
X165760664Y-87001061D01*
X165692553Y-86970132D01*
X165633119Y-86925762D01*
X165583219Y-86868994D01*
X165543711Y-86800874D01*
X165515454Y-86722445D01*
X165508706Y-86694300D01*
X165501825Y-86646942D01*
X165498353Y-86589546D01*
X165498176Y-86541140D01*
X165797709Y-86541140D01*
X165804167Y-86607838D01*
X165821125Y-86666707D01*
X165847950Y-86715940D01*
X165884011Y-86753735D01*
X165907756Y-86769101D01*
X165941143Y-86780238D01*
X165982494Y-86784983D01*
X166024503Y-86783089D01*
X166059861Y-86774308D01*
X166059997Y-86774251D01*
X166095014Y-86752302D01*
X166128045Y-86718401D01*
X166155207Y-86676945D01*
X166165313Y-86654915D01*
X166173389Y-86631667D01*
X166178772Y-86607917D01*
X166181993Y-86579414D01*
X166183583Y-86541911D01*
X166184025Y-86505202D01*
X166184045Y-86461652D01*
X166183158Y-86430513D01*
X166180719Y-86407734D01*
X166176078Y-86389268D01*
X166168591Y-86371064D01*
X166159751Y-86353253D01*
X166130671Y-86307792D01*
X166096223Y-86276849D01*
X166053873Y-86258728D01*
X166008575Y-86252069D01*
X165972888Y-86251458D01*
X165946565Y-86255140D01*
X165922829Y-86264164D01*
X165919427Y-86265863D01*
X165876579Y-86296012D01*
X165843224Y-86338231D01*
X165818952Y-86393228D01*
X165803354Y-86461711D01*
X165802382Y-86468416D01*
X165797709Y-86541140D01*
X165498176Y-86541140D01*
X165498123Y-86526801D01*
X165500969Y-86463399D01*
G37*
D10*
X178841500Y-90600000D03*
X177266500Y-90600000D03*
X178841500Y-97155000D03*
X177266500Y-97155000D03*
D11*
X108077000Y-86360000D03*
D12*
X143950000Y-94650000D03*
X149650000Y-97150000D03*
X143950000Y-99650000D03*
D11*
X189200000Y-86360000D03*
D12*
X162900000Y-94650000D03*
X168600000Y-97150000D03*
X162900000Y-99650000D03*
X125000000Y-94700000D03*
X130700000Y-97200000D03*
X125000000Y-99700000D03*
D11*
X189300000Y-107950000D03*
X108077000Y-107950000D03*
D13*
X188099999Y-97155000D03*
D14*
X192600000Y-97155000D03*
D15*
X115572000Y-103795000D03*
X115572000Y-90205000D03*
M02*
