%FSLAX45Y45*%
G04 Gerber Fmt 4.5, Leading zero omitted, Abs format (unit mm)*
G04 Created by KiCad (PCBNEW (6.0.2)) date 2022-08-27 15:51:44*
%MOMM*%
%LPD*%
G01*
G04 APERTURE LIST*
%TA.AperFunction,Profile*%
%ADD10C,0.100000*%
%TD*%
%ADD11C,0.200000*%
%ADD12C,0.040000*%
%ADD13C,0.093560*%
%ADD14C,0.117000*%
%ADD15C,0.430000*%
G04 APERTURE END LIST*
D10*
X10438995Y-11301005D02*
X19430000Y-11300000D01*
X10300000Y-8270000D02*
X10298995Y-11161005D01*
X19700000Y-11030000D02*
X19700000Y-8400000D01*
X19700000Y-8400000D02*
G75*
G03*
X19430000Y-8130000I-270000J0D01*
G01*
X10298995Y-11161005D02*
G75*
G03*
X10438995Y-11301005I140000J0D01*
G01*
X10440000Y-8130000D02*
G75*
G03*
X10300000Y-8270000I0J-140000D01*
G01*
X19430000Y-8130000D02*
X10440000Y-8130000D01*
X19430000Y-11300000D02*
G75*
G03*
X19700000Y-11030000I0J270000D01*
G01*
D11*
D12*
X12770000Y-9450000D02*
X12810000Y-9490000D01*
X12810000Y-9450000D02*
X12770000Y-9490000D01*
X12770000Y-9950000D02*
X12810000Y-9990000D01*
X12810000Y-9950000D02*
X12770000Y-9990000D01*
X16565000Y-9445000D02*
X16605000Y-9485000D01*
X16605000Y-9445000D02*
X16565000Y-9485000D01*
X17534500Y-9695500D02*
X17574500Y-9735500D01*
X17574500Y-9695500D02*
X17534500Y-9735500D01*
X17540000Y-9040000D02*
X17580000Y-9080000D01*
X17580000Y-9040000D02*
X17540000Y-9080000D01*
X18020000Y-9040000D02*
X18060000Y-9080000D01*
X18060000Y-9040000D02*
X18020000Y-9080000D01*
X18026700Y-9695500D02*
X18066700Y-9735500D01*
X18066700Y-9695500D02*
X18026700Y-9735500D01*
D13*
X18856780Y-9715500D02*
G75*
G03*
X18856780Y-9715500I-46780J0D01*
G01*
D11*
X18749200Y-9752280D02*
X18870800Y-9752280D01*
X18749200Y-9678720D02*
X18870800Y-9678720D01*
X18870800Y-9752280D02*
G75*
G03*
X18870800Y-9678720I0J36780D01*
G01*
X18749200Y-9678720D02*
G75*
G03*
X18749200Y-9752280I0J-36780D01*
G01*
D13*
X19306780Y-9715500D02*
G75*
G03*
X19306780Y-9715500I-46780J0D01*
G01*
D11*
X19296780Y-9776300D02*
X19296780Y-9654700D01*
X19223220Y-9776300D02*
X19223220Y-9654700D01*
X19296780Y-9654700D02*
G75*
G03*
X19223220Y-9654700I-36780J0D01*
G01*
X19223220Y-9776300D02*
G75*
G03*
X19296780Y-9776300I36780J0D01*
G01*
D14*
X11557200Y-8962000D02*
X11557200Y-9079000D01*
X11498700Y-9020500D02*
X11615700Y-9020500D01*
X11557200Y-10321000D02*
X11557200Y-10438000D01*
X11498700Y-10379500D02*
X11615700Y-10379500D01*
D15*
X10959729Y-8788029D02*
X10959729Y-8483971D01*
X10655671Y-8483971D01*
X10655671Y-8788029D01*
X10959729Y-8788029D01*
X10959729Y-10947029D02*
X10959729Y-10642971D01*
X10655671Y-10642971D01*
X10655671Y-10947029D01*
X10959729Y-10947029D01*
X19072029Y-8788029D02*
X19072029Y-8483971D01*
X18767971Y-8483971D01*
X18767971Y-8788029D01*
X19072029Y-8788029D01*
X19082029Y-10947029D02*
X19082029Y-10642971D01*
X18777971Y-10642971D01*
X18777971Y-10947029D01*
X19082029Y-10947029D01*
D11*
X10551614Y-11616481D02*
X10551614Y-11416481D01*
X10599233Y-11416481D01*
X10627804Y-11426005D01*
X10646852Y-11445053D01*
X10656376Y-11464100D01*
X10665900Y-11502195D01*
X10665900Y-11530767D01*
X10656376Y-11568862D01*
X10646852Y-11587910D01*
X10627804Y-11606957D01*
X10599233Y-11616481D01*
X10551614Y-11616481D01*
X10751614Y-11616481D02*
X10751614Y-11483148D01*
X10751614Y-11521243D02*
X10761138Y-11502195D01*
X10770662Y-11492672D01*
X10789709Y-11483148D01*
X10808757Y-11483148D01*
X10875423Y-11616481D02*
X10875423Y-11483148D01*
X10875423Y-11416481D02*
X10865900Y-11426005D01*
X10875423Y-11435529D01*
X10884947Y-11426005D01*
X10875423Y-11416481D01*
X10875423Y-11435529D01*
X10999233Y-11616481D02*
X10980185Y-11606957D01*
X10970662Y-11587910D01*
X10970662Y-11416481D01*
X11103995Y-11616481D02*
X11084947Y-11606957D01*
X11075423Y-11587910D01*
X11075423Y-11416481D01*
X11332566Y-11616481D02*
X11332566Y-11416481D01*
X11399233Y-11559338D01*
X11465900Y-11416481D01*
X11465900Y-11616481D01*
X11646852Y-11616481D02*
X11646852Y-11511719D01*
X11637328Y-11492672D01*
X11618281Y-11483148D01*
X11580185Y-11483148D01*
X11561138Y-11492672D01*
X11646852Y-11606957D02*
X11627804Y-11616481D01*
X11580185Y-11616481D01*
X11561138Y-11606957D01*
X11551614Y-11587910D01*
X11551614Y-11568862D01*
X11561138Y-11549815D01*
X11580185Y-11540291D01*
X11627804Y-11540291D01*
X11646852Y-11530767D01*
X11742090Y-11483148D02*
X11742090Y-11683148D01*
X11742090Y-11492672D02*
X11761138Y-11483148D01*
X11799233Y-11483148D01*
X11818281Y-11492672D01*
X11827804Y-11502195D01*
X11837328Y-11521243D01*
X11837328Y-11578386D01*
X11827804Y-11597434D01*
X11818281Y-11606957D01*
X11799233Y-11616481D01*
X11761138Y-11616481D01*
X11742090Y-11606957D01*
X11923042Y-11597434D02*
X11932566Y-11606957D01*
X11923042Y-11616481D01*
X11913519Y-11606957D01*
X11923042Y-11597434D01*
X11923042Y-11616481D01*
X11923042Y-11492672D02*
X11932566Y-11502195D01*
X11923042Y-11511719D01*
X11913519Y-11502195D01*
X11923042Y-11492672D01*
X11923042Y-11511719D01*
D12*
X10253995Y-11926005D02*
X10293995Y-11966005D01*
X10293995Y-11926005D02*
X10253995Y-11966005D01*
D11*
X10589709Y-11836481D02*
X10608757Y-11836481D01*
X10627804Y-11846005D01*
X10637328Y-11855529D01*
X10646852Y-11874576D01*
X10656376Y-11912672D01*
X10656376Y-11960291D01*
X10646852Y-11998386D01*
X10637328Y-12017434D01*
X10627804Y-12026957D01*
X10608757Y-12036481D01*
X10589709Y-12036481D01*
X10570662Y-12026957D01*
X10561138Y-12017434D01*
X10551614Y-11998386D01*
X10542090Y-11960291D01*
X10542090Y-11912672D01*
X10551614Y-11874576D01*
X10561138Y-11855529D01*
X10570662Y-11846005D01*
X10589709Y-11836481D01*
X10742090Y-12017434D02*
X10751614Y-12026957D01*
X10742090Y-12036481D01*
X10732566Y-12026957D01*
X10742090Y-12017434D01*
X10742090Y-12036481D01*
X10923043Y-11903148D02*
X10923043Y-12036481D01*
X10875423Y-11826957D02*
X10827804Y-11969815D01*
X10951614Y-11969815D01*
X11065900Y-11836481D02*
X11084947Y-11836481D01*
X11103995Y-11846005D01*
X11113519Y-11855529D01*
X11123043Y-11874576D01*
X11132566Y-11912672D01*
X11132566Y-11960291D01*
X11123043Y-11998386D01*
X11113519Y-12017434D01*
X11103995Y-12026957D01*
X11084947Y-12036481D01*
X11065900Y-12036481D01*
X11046852Y-12026957D01*
X11037328Y-12017434D01*
X11027804Y-11998386D01*
X11018281Y-11960291D01*
X11018281Y-11912672D01*
X11027804Y-11874576D01*
X11037328Y-11855529D01*
X11046852Y-11846005D01*
X11065900Y-11836481D01*
X11256376Y-11836481D02*
X11275423Y-11836481D01*
X11294471Y-11846005D01*
X11303995Y-11855529D01*
X11313519Y-11874576D01*
X11323042Y-11912672D01*
X11323042Y-11960291D01*
X11313519Y-11998386D01*
X11303995Y-12017434D01*
X11294471Y-12026957D01*
X11275423Y-12036481D01*
X11256376Y-12036481D01*
X11237328Y-12026957D01*
X11227804Y-12017434D01*
X11218281Y-11998386D01*
X11208757Y-11960291D01*
X11208757Y-11912672D01*
X11218281Y-11874576D01*
X11227804Y-11855529D01*
X11237328Y-11846005D01*
X11256376Y-11836481D01*
X11408757Y-12036481D02*
X11408757Y-11903148D01*
X11408757Y-11922195D02*
X11418281Y-11912672D01*
X11437328Y-11903148D01*
X11465900Y-11903148D01*
X11484947Y-11912672D01*
X11494471Y-11931719D01*
X11494471Y-12036481D01*
X11494471Y-11931719D02*
X11503995Y-11912672D01*
X11523042Y-11903148D01*
X11551614Y-11903148D01*
X11570661Y-11912672D01*
X11580185Y-11931719D01*
X11580185Y-12036481D01*
X11675423Y-12036481D02*
X11675423Y-11903148D01*
X11675423Y-11922195D02*
X11684947Y-11912672D01*
X11703995Y-11903148D01*
X11732566Y-11903148D01*
X11751614Y-11912672D01*
X11761138Y-11931719D01*
X11761138Y-12036481D01*
X11761138Y-11931719D02*
X11770661Y-11912672D01*
X11789709Y-11903148D01*
X11818281Y-11903148D01*
X11837328Y-11912672D01*
X11846852Y-11931719D01*
X11846852Y-12036481D01*
X12237328Y-11826957D02*
X12065900Y-12084100D01*
X12494471Y-11836481D02*
X12513519Y-11836481D01*
X12532566Y-11846005D01*
X12542090Y-11855529D01*
X12551614Y-11874576D01*
X12561138Y-11912672D01*
X12561138Y-11960291D01*
X12551614Y-11998386D01*
X12542090Y-12017434D01*
X12532566Y-12026957D01*
X12513519Y-12036481D01*
X12494471Y-12036481D01*
X12475423Y-12026957D01*
X12465900Y-12017434D01*
X12456376Y-11998386D01*
X12446852Y-11960291D01*
X12446852Y-11912672D01*
X12456376Y-11874576D01*
X12465900Y-11855529D01*
X12475423Y-11846005D01*
X12494471Y-11836481D01*
X12646852Y-12017434D02*
X12656376Y-12026957D01*
X12646852Y-12036481D01*
X12637328Y-12026957D01*
X12646852Y-12017434D01*
X12646852Y-12036481D01*
X12780185Y-11836481D02*
X12799233Y-11836481D01*
X12818281Y-11846005D01*
X12827804Y-11855529D01*
X12837328Y-11874576D01*
X12846852Y-11912672D01*
X12846852Y-11960291D01*
X12837328Y-11998386D01*
X12827804Y-12017434D01*
X12818281Y-12026957D01*
X12799233Y-12036481D01*
X12780185Y-12036481D01*
X12761138Y-12026957D01*
X12751614Y-12017434D01*
X12742090Y-11998386D01*
X12732566Y-11960291D01*
X12732566Y-11912672D01*
X12742090Y-11874576D01*
X12751614Y-11855529D01*
X12761138Y-11846005D01*
X12780185Y-11836481D01*
X13037328Y-12036481D02*
X12923042Y-12036481D01*
X12980185Y-12036481D02*
X12980185Y-11836481D01*
X12961138Y-11865053D01*
X12942090Y-11884100D01*
X12923042Y-11893624D01*
X13218281Y-11836481D02*
X13123042Y-11836481D01*
X13113519Y-11931719D01*
X13123042Y-11922195D01*
X13142090Y-11912672D01*
X13189709Y-11912672D01*
X13208757Y-11922195D01*
X13218281Y-11931719D01*
X13227804Y-11950767D01*
X13227804Y-11998386D01*
X13218281Y-12017434D01*
X13208757Y-12026957D01*
X13189709Y-12036481D01*
X13142090Y-12036481D01*
X13123042Y-12026957D01*
X13113519Y-12017434D01*
X13294471Y-11836481D02*
X13427804Y-11836481D01*
X13342090Y-12036481D01*
X13494471Y-11836481D02*
X13494471Y-11874576D01*
X13570661Y-11836481D02*
X13570661Y-11874576D01*
X13865900Y-12112672D02*
X13856376Y-12103148D01*
X13837328Y-12074576D01*
X13827804Y-12055529D01*
X13818281Y-12026957D01*
X13808757Y-11979338D01*
X13808757Y-11941243D01*
X13818281Y-11893624D01*
X13827804Y-11865053D01*
X13837328Y-11846005D01*
X13856376Y-11817434D01*
X13865900Y-11807910D01*
X13923042Y-11836481D02*
X14056376Y-11836481D01*
X13970661Y-12036481D01*
X14284947Y-12036481D02*
X14284947Y-11836481D01*
X14370661Y-12036481D02*
X14370661Y-11931719D01*
X14361138Y-11912672D01*
X14342090Y-11903148D01*
X14313519Y-11903148D01*
X14294471Y-11912672D01*
X14284947Y-11922195D01*
X14494471Y-12036481D02*
X14475423Y-12026957D01*
X14465900Y-12017434D01*
X14456376Y-11998386D01*
X14456376Y-11941243D01*
X14465900Y-11922195D01*
X14475423Y-11912672D01*
X14494471Y-11903148D01*
X14523042Y-11903148D01*
X14542090Y-11912672D01*
X14551614Y-11922195D01*
X14561138Y-11941243D01*
X14561138Y-11998386D01*
X14551614Y-12017434D01*
X14542090Y-12026957D01*
X14523042Y-12036481D01*
X14494471Y-12036481D01*
X14675423Y-12036481D02*
X14656376Y-12026957D01*
X14646852Y-12007910D01*
X14646852Y-11836481D01*
X14827804Y-12026957D02*
X14808757Y-12036481D01*
X14770661Y-12036481D01*
X14751614Y-12026957D01*
X14742090Y-12007910D01*
X14742090Y-11931719D01*
X14751614Y-11912672D01*
X14770661Y-11903148D01*
X14808757Y-11903148D01*
X14827804Y-11912672D01*
X14837328Y-11931719D01*
X14837328Y-11950767D01*
X14742090Y-11969815D01*
X14913519Y-12026957D02*
X14932566Y-12036481D01*
X14970661Y-12036481D01*
X14989709Y-12026957D01*
X14999233Y-12007910D01*
X14999233Y-11998386D01*
X14989709Y-11979338D01*
X14970661Y-11969815D01*
X14942090Y-11969815D01*
X14923042Y-11960291D01*
X14913519Y-11941243D01*
X14913519Y-11931719D01*
X14923042Y-11912672D01*
X14942090Y-11903148D01*
X14970661Y-11903148D01*
X14989709Y-11912672D01*
X15065900Y-12112672D02*
X15075423Y-12103148D01*
X15094471Y-12074576D01*
X15103995Y-12055529D01*
X15113519Y-12026957D01*
X15123042Y-11979338D01*
X15123042Y-11941243D01*
X15113519Y-11893624D01*
X15103995Y-11865053D01*
X15094471Y-11846005D01*
X15075423Y-11817434D01*
X15065900Y-11807910D01*
D13*
X10293995Y-12210005D02*
G75*
G03*
X10293995Y-12210005I-46780J0D01*
G01*
D11*
X10589709Y-12100481D02*
X10608757Y-12100481D01*
X10627804Y-12110005D01*
X10637328Y-12119529D01*
X10646852Y-12138576D01*
X10656376Y-12176672D01*
X10656376Y-12224291D01*
X10646852Y-12262386D01*
X10637328Y-12281434D01*
X10627804Y-12290957D01*
X10608757Y-12300481D01*
X10589709Y-12300481D01*
X10570662Y-12290957D01*
X10561138Y-12281434D01*
X10551614Y-12262386D01*
X10542090Y-12224291D01*
X10542090Y-12176672D01*
X10551614Y-12138576D01*
X10561138Y-12119529D01*
X10570662Y-12110005D01*
X10589709Y-12100481D01*
X10742090Y-12281434D02*
X10751614Y-12290957D01*
X10742090Y-12300481D01*
X10732566Y-12290957D01*
X10742090Y-12281434D01*
X10742090Y-12300481D01*
X10846852Y-12300481D02*
X10884947Y-12300481D01*
X10903995Y-12290957D01*
X10913519Y-12281434D01*
X10932566Y-12252862D01*
X10942090Y-12214767D01*
X10942090Y-12138576D01*
X10932566Y-12119529D01*
X10923043Y-12110005D01*
X10903995Y-12100481D01*
X10865900Y-12100481D01*
X10846852Y-12110005D01*
X10837328Y-12119529D01*
X10827804Y-12138576D01*
X10827804Y-12186195D01*
X10837328Y-12205243D01*
X10846852Y-12214767D01*
X10865900Y-12224291D01*
X10903995Y-12224291D01*
X10923043Y-12214767D01*
X10932566Y-12205243D01*
X10942090Y-12186195D01*
X11008757Y-12100481D02*
X11132566Y-12100481D01*
X11065900Y-12176672D01*
X11094471Y-12176672D01*
X11113519Y-12186195D01*
X11123043Y-12195719D01*
X11132566Y-12214767D01*
X11132566Y-12262386D01*
X11123043Y-12281434D01*
X11113519Y-12290957D01*
X11094471Y-12300481D01*
X11037328Y-12300481D01*
X11018281Y-12290957D01*
X11008757Y-12281434D01*
X11303995Y-12100481D02*
X11265900Y-12100481D01*
X11246852Y-12110005D01*
X11237328Y-12119529D01*
X11218281Y-12148100D01*
X11208757Y-12186195D01*
X11208757Y-12262386D01*
X11218281Y-12281434D01*
X11227804Y-12290957D01*
X11246852Y-12300481D01*
X11284947Y-12300481D01*
X11303995Y-12290957D01*
X11313519Y-12281434D01*
X11323042Y-12262386D01*
X11323042Y-12214767D01*
X11313519Y-12195719D01*
X11303995Y-12186195D01*
X11284947Y-12176672D01*
X11246852Y-12176672D01*
X11227804Y-12186195D01*
X11218281Y-12195719D01*
X11208757Y-12214767D01*
X11408757Y-12300481D02*
X11408757Y-12167148D01*
X11408757Y-12186195D02*
X11418281Y-12176672D01*
X11437328Y-12167148D01*
X11465900Y-12167148D01*
X11484947Y-12176672D01*
X11494471Y-12195719D01*
X11494471Y-12300481D01*
X11494471Y-12195719D02*
X11503995Y-12176672D01*
X11523042Y-12167148D01*
X11551614Y-12167148D01*
X11570661Y-12176672D01*
X11580185Y-12195719D01*
X11580185Y-12300481D01*
X11675423Y-12300481D02*
X11675423Y-12167148D01*
X11675423Y-12186195D02*
X11684947Y-12176672D01*
X11703995Y-12167148D01*
X11732566Y-12167148D01*
X11751614Y-12176672D01*
X11761138Y-12195719D01*
X11761138Y-12300481D01*
X11761138Y-12195719D02*
X11770661Y-12176672D01*
X11789709Y-12167148D01*
X11818281Y-12167148D01*
X11837328Y-12176672D01*
X11846852Y-12195719D01*
X11846852Y-12300481D01*
X12237328Y-12090957D02*
X12065900Y-12348100D01*
X12494471Y-12100481D02*
X12513519Y-12100481D01*
X12532566Y-12110005D01*
X12542090Y-12119529D01*
X12551614Y-12138576D01*
X12561138Y-12176672D01*
X12561138Y-12224291D01*
X12551614Y-12262386D01*
X12542090Y-12281434D01*
X12532566Y-12290957D01*
X12513519Y-12300481D01*
X12494471Y-12300481D01*
X12475423Y-12290957D01*
X12465900Y-12281434D01*
X12456376Y-12262386D01*
X12446852Y-12224291D01*
X12446852Y-12176672D01*
X12456376Y-12138576D01*
X12465900Y-12119529D01*
X12475423Y-12110005D01*
X12494471Y-12100481D01*
X12646852Y-12281434D02*
X12656376Y-12290957D01*
X12646852Y-12300481D01*
X12637328Y-12290957D01*
X12646852Y-12281434D01*
X12646852Y-12300481D01*
X12780185Y-12100481D02*
X12799233Y-12100481D01*
X12818281Y-12110005D01*
X12827804Y-12119529D01*
X12837328Y-12138576D01*
X12846852Y-12176672D01*
X12846852Y-12224291D01*
X12837328Y-12262386D01*
X12827804Y-12281434D01*
X12818281Y-12290957D01*
X12799233Y-12300481D01*
X12780185Y-12300481D01*
X12761138Y-12290957D01*
X12751614Y-12281434D01*
X12742090Y-12262386D01*
X12732566Y-12224291D01*
X12732566Y-12176672D01*
X12742090Y-12138576D01*
X12751614Y-12119529D01*
X12761138Y-12110005D01*
X12780185Y-12100481D01*
X12913519Y-12100481D02*
X13037328Y-12100481D01*
X12970661Y-12176672D01*
X12999233Y-12176672D01*
X13018281Y-12186195D01*
X13027804Y-12195719D01*
X13037328Y-12214767D01*
X13037328Y-12262386D01*
X13027804Y-12281434D01*
X13018281Y-12290957D01*
X12999233Y-12300481D01*
X12942090Y-12300481D01*
X12923042Y-12290957D01*
X12913519Y-12281434D01*
X13208757Y-12100481D02*
X13170661Y-12100481D01*
X13151614Y-12110005D01*
X13142090Y-12119529D01*
X13123042Y-12148100D01*
X13113519Y-12186195D01*
X13113519Y-12262386D01*
X13123042Y-12281434D01*
X13132566Y-12290957D01*
X13151614Y-12300481D01*
X13189709Y-12300481D01*
X13208757Y-12290957D01*
X13218281Y-12281434D01*
X13227804Y-12262386D01*
X13227804Y-12214767D01*
X13218281Y-12195719D01*
X13208757Y-12186195D01*
X13189709Y-12176672D01*
X13151614Y-12176672D01*
X13132566Y-12186195D01*
X13123042Y-12195719D01*
X13113519Y-12214767D01*
X13342090Y-12186195D02*
X13323042Y-12176672D01*
X13313519Y-12167148D01*
X13303995Y-12148100D01*
X13303995Y-12138576D01*
X13313519Y-12119529D01*
X13323042Y-12110005D01*
X13342090Y-12100481D01*
X13380185Y-12100481D01*
X13399233Y-12110005D01*
X13408757Y-12119529D01*
X13418281Y-12138576D01*
X13418281Y-12148100D01*
X13408757Y-12167148D01*
X13399233Y-12176672D01*
X13380185Y-12186195D01*
X13342090Y-12186195D01*
X13323042Y-12195719D01*
X13313519Y-12205243D01*
X13303995Y-12224291D01*
X13303995Y-12262386D01*
X13313519Y-12281434D01*
X13323042Y-12290957D01*
X13342090Y-12300481D01*
X13380185Y-12300481D01*
X13399233Y-12290957D01*
X13408757Y-12281434D01*
X13418281Y-12262386D01*
X13418281Y-12224291D01*
X13408757Y-12205243D01*
X13399233Y-12195719D01*
X13380185Y-12186195D01*
X13494471Y-12100481D02*
X13494471Y-12138576D01*
X13570661Y-12100481D02*
X13570661Y-12138576D01*
X13865900Y-12376672D02*
X13856376Y-12367148D01*
X13837328Y-12338576D01*
X13827804Y-12319529D01*
X13818281Y-12290957D01*
X13808757Y-12243338D01*
X13808757Y-12205243D01*
X13818281Y-12157624D01*
X13827804Y-12129053D01*
X13837328Y-12110005D01*
X13856376Y-12081434D01*
X13865900Y-12071910D01*
X13980185Y-12100481D02*
X13999233Y-12100481D01*
X14018281Y-12110005D01*
X14027804Y-12119529D01*
X14037328Y-12138576D01*
X14046852Y-12176672D01*
X14046852Y-12224291D01*
X14037328Y-12262386D01*
X14027804Y-12281434D01*
X14018281Y-12290957D01*
X13999233Y-12300481D01*
X13980185Y-12300481D01*
X13961138Y-12290957D01*
X13951614Y-12281434D01*
X13942090Y-12262386D01*
X13932566Y-12224291D01*
X13932566Y-12176672D01*
X13942090Y-12138576D01*
X13951614Y-12119529D01*
X13961138Y-12110005D01*
X13980185Y-12100481D01*
X14284947Y-12300481D02*
X14284947Y-12100481D01*
X14370661Y-12300481D02*
X14370661Y-12195719D01*
X14361138Y-12176672D01*
X14342090Y-12167148D01*
X14313519Y-12167148D01*
X14294471Y-12176672D01*
X14284947Y-12186195D01*
X14494471Y-12300481D02*
X14475423Y-12290957D01*
X14465900Y-12281434D01*
X14456376Y-12262386D01*
X14456376Y-12205243D01*
X14465900Y-12186195D01*
X14475423Y-12176672D01*
X14494471Y-12167148D01*
X14523042Y-12167148D01*
X14542090Y-12176672D01*
X14551614Y-12186195D01*
X14561138Y-12205243D01*
X14561138Y-12262386D01*
X14551614Y-12281434D01*
X14542090Y-12290957D01*
X14523042Y-12300481D01*
X14494471Y-12300481D01*
X14675423Y-12300481D02*
X14656376Y-12290957D01*
X14646852Y-12271910D01*
X14646852Y-12100481D01*
X14827804Y-12290957D02*
X14808757Y-12300481D01*
X14770661Y-12300481D01*
X14751614Y-12290957D01*
X14742090Y-12271910D01*
X14742090Y-12195719D01*
X14751614Y-12176672D01*
X14770661Y-12167148D01*
X14808757Y-12167148D01*
X14827804Y-12176672D01*
X14837328Y-12195719D01*
X14837328Y-12214767D01*
X14742090Y-12233815D01*
X14913519Y-12290957D02*
X14932566Y-12300481D01*
X14970661Y-12300481D01*
X14989709Y-12290957D01*
X14999233Y-12271910D01*
X14999233Y-12262386D01*
X14989709Y-12243338D01*
X14970661Y-12233815D01*
X14942090Y-12233815D01*
X14923042Y-12224291D01*
X14913519Y-12205243D01*
X14913519Y-12195719D01*
X14923042Y-12176672D01*
X14942090Y-12167148D01*
X14970661Y-12167148D01*
X14989709Y-12176672D01*
X15237328Y-12224291D02*
X15389709Y-12224291D01*
X15313519Y-12300481D02*
X15313519Y-12148100D01*
X15627804Y-12119529D02*
X15637328Y-12110005D01*
X15656376Y-12100481D01*
X15703995Y-12100481D01*
X15723042Y-12110005D01*
X15732566Y-12119529D01*
X15742090Y-12138576D01*
X15742090Y-12157624D01*
X15732566Y-12186195D01*
X15618281Y-12300481D01*
X15742090Y-12300481D01*
X15970661Y-12290957D02*
X15989709Y-12300481D01*
X16027804Y-12300481D01*
X16046852Y-12290957D01*
X16056376Y-12271910D01*
X16056376Y-12262386D01*
X16046852Y-12243338D01*
X16027804Y-12233815D01*
X15999233Y-12233815D01*
X15980185Y-12224291D01*
X15970661Y-12205243D01*
X15970661Y-12195719D01*
X15980185Y-12176672D01*
X15999233Y-12167148D01*
X16027804Y-12167148D01*
X16046852Y-12176672D01*
X16170661Y-12300481D02*
X16151614Y-12290957D01*
X16142090Y-12271910D01*
X16142090Y-12100481D01*
X16275423Y-12300481D02*
X16256376Y-12290957D01*
X16246852Y-12281434D01*
X16237328Y-12262386D01*
X16237328Y-12205243D01*
X16246852Y-12186195D01*
X16256376Y-12176672D01*
X16275423Y-12167148D01*
X16303995Y-12167148D01*
X16323042Y-12176672D01*
X16332566Y-12186195D01*
X16342090Y-12205243D01*
X16342090Y-12262386D01*
X16332566Y-12281434D01*
X16323042Y-12290957D01*
X16303995Y-12300481D01*
X16275423Y-12300481D01*
X16399233Y-12167148D02*
X16475423Y-12167148D01*
X16427804Y-12100481D02*
X16427804Y-12271910D01*
X16437328Y-12290957D01*
X16456376Y-12300481D01*
X16475423Y-12300481D01*
X16532566Y-12290957D02*
X16551614Y-12300481D01*
X16589709Y-12300481D01*
X16608757Y-12290957D01*
X16618281Y-12271910D01*
X16618281Y-12262386D01*
X16608757Y-12243338D01*
X16589709Y-12233815D01*
X16561138Y-12233815D01*
X16542090Y-12224291D01*
X16532566Y-12205243D01*
X16532566Y-12195719D01*
X16542090Y-12176672D01*
X16561138Y-12167148D01*
X16589709Y-12167148D01*
X16608757Y-12176672D01*
X16684947Y-12376672D02*
X16694471Y-12367148D01*
X16713519Y-12338576D01*
X16723042Y-12319529D01*
X16732566Y-12290957D01*
X16742090Y-12243338D01*
X16742090Y-12205243D01*
X16732566Y-12157624D01*
X16723042Y-12129053D01*
X16713519Y-12110005D01*
X16694471Y-12081434D01*
X16684947Y-12071910D01*
D14*
X10235495Y-12415505D02*
X10235495Y-12532505D01*
X10176995Y-12474005D02*
X10293995Y-12474005D01*
D11*
X10656376Y-12564481D02*
X10542090Y-12564481D01*
X10599233Y-12564481D02*
X10599233Y-12364481D01*
X10580185Y-12393053D01*
X10561138Y-12412100D01*
X10542090Y-12421624D01*
X10742090Y-12545434D02*
X10751614Y-12554957D01*
X10742090Y-12564481D01*
X10732566Y-12554957D01*
X10742090Y-12545434D01*
X10742090Y-12564481D01*
X10942090Y-12564481D02*
X10827804Y-12564481D01*
X10884947Y-12564481D02*
X10884947Y-12364481D01*
X10865900Y-12393053D01*
X10846852Y-12412100D01*
X10827804Y-12421624D01*
X11008757Y-12364481D02*
X11142090Y-12364481D01*
X11056376Y-12564481D01*
X11256376Y-12364481D02*
X11275423Y-12364481D01*
X11294471Y-12374005D01*
X11303995Y-12383529D01*
X11313519Y-12402576D01*
X11323042Y-12440672D01*
X11323042Y-12488291D01*
X11313519Y-12526386D01*
X11303995Y-12545434D01*
X11294471Y-12554957D01*
X11275423Y-12564481D01*
X11256376Y-12564481D01*
X11237328Y-12554957D01*
X11227804Y-12545434D01*
X11218281Y-12526386D01*
X11208757Y-12488291D01*
X11208757Y-12440672D01*
X11218281Y-12402576D01*
X11227804Y-12383529D01*
X11237328Y-12374005D01*
X11256376Y-12364481D01*
X11408757Y-12564481D02*
X11408757Y-12431148D01*
X11408757Y-12450195D02*
X11418281Y-12440672D01*
X11437328Y-12431148D01*
X11465900Y-12431148D01*
X11484947Y-12440672D01*
X11494471Y-12459719D01*
X11494471Y-12564481D01*
X11494471Y-12459719D02*
X11503995Y-12440672D01*
X11523042Y-12431148D01*
X11551614Y-12431148D01*
X11570661Y-12440672D01*
X11580185Y-12459719D01*
X11580185Y-12564481D01*
X11675423Y-12564481D02*
X11675423Y-12431148D01*
X11675423Y-12450195D02*
X11684947Y-12440672D01*
X11703995Y-12431148D01*
X11732566Y-12431148D01*
X11751614Y-12440672D01*
X11761138Y-12459719D01*
X11761138Y-12564481D01*
X11761138Y-12459719D02*
X11770661Y-12440672D01*
X11789709Y-12431148D01*
X11818281Y-12431148D01*
X11837328Y-12440672D01*
X11846852Y-12459719D01*
X11846852Y-12564481D01*
X12237328Y-12354957D02*
X12065900Y-12612100D01*
X12494471Y-12364481D02*
X12513519Y-12364481D01*
X12532566Y-12374005D01*
X12542090Y-12383529D01*
X12551614Y-12402576D01*
X12561138Y-12440672D01*
X12561138Y-12488291D01*
X12551614Y-12526386D01*
X12542090Y-12545434D01*
X12532566Y-12554957D01*
X12513519Y-12564481D01*
X12494471Y-12564481D01*
X12475423Y-12554957D01*
X12465900Y-12545434D01*
X12456376Y-12526386D01*
X12446852Y-12488291D01*
X12446852Y-12440672D01*
X12456376Y-12402576D01*
X12465900Y-12383529D01*
X12475423Y-12374005D01*
X12494471Y-12364481D01*
X12646852Y-12545434D02*
X12656376Y-12554957D01*
X12646852Y-12564481D01*
X12637328Y-12554957D01*
X12646852Y-12545434D01*
X12646852Y-12564481D01*
X12780185Y-12364481D02*
X12799233Y-12364481D01*
X12818281Y-12374005D01*
X12827804Y-12383529D01*
X12837328Y-12402576D01*
X12846852Y-12440672D01*
X12846852Y-12488291D01*
X12837328Y-12526386D01*
X12827804Y-12545434D01*
X12818281Y-12554957D01*
X12799233Y-12564481D01*
X12780185Y-12564481D01*
X12761138Y-12554957D01*
X12751614Y-12545434D01*
X12742090Y-12526386D01*
X12732566Y-12488291D01*
X12732566Y-12440672D01*
X12742090Y-12402576D01*
X12751614Y-12383529D01*
X12761138Y-12374005D01*
X12780185Y-12364481D01*
X13018281Y-12431148D02*
X13018281Y-12564481D01*
X12970661Y-12354957D02*
X12923042Y-12497815D01*
X13046852Y-12497815D01*
X13208757Y-12364481D02*
X13170661Y-12364481D01*
X13151614Y-12374005D01*
X13142090Y-12383529D01*
X13123042Y-12412100D01*
X13113519Y-12450195D01*
X13113519Y-12526386D01*
X13123042Y-12545434D01*
X13132566Y-12554957D01*
X13151614Y-12564481D01*
X13189709Y-12564481D01*
X13208757Y-12554957D01*
X13218281Y-12545434D01*
X13227804Y-12526386D01*
X13227804Y-12478767D01*
X13218281Y-12459719D01*
X13208757Y-12450195D01*
X13189709Y-12440672D01*
X13151614Y-12440672D01*
X13132566Y-12450195D01*
X13123042Y-12459719D01*
X13113519Y-12478767D01*
X13418281Y-12564481D02*
X13303995Y-12564481D01*
X13361138Y-12564481D02*
X13361138Y-12364481D01*
X13342090Y-12393053D01*
X13323042Y-12412100D01*
X13303995Y-12421624D01*
X13494471Y-12364481D02*
X13494471Y-12402576D01*
X13570661Y-12364481D02*
X13570661Y-12402576D01*
X13865900Y-12640672D02*
X13856376Y-12631148D01*
X13837328Y-12602576D01*
X13827804Y-12583529D01*
X13818281Y-12554957D01*
X13808757Y-12507338D01*
X13808757Y-12469243D01*
X13818281Y-12421624D01*
X13827804Y-12393053D01*
X13837328Y-12374005D01*
X13856376Y-12345434D01*
X13865900Y-12335910D01*
X13932566Y-12383529D02*
X13942090Y-12374005D01*
X13961138Y-12364481D01*
X14008757Y-12364481D01*
X14027804Y-12374005D01*
X14037328Y-12383529D01*
X14046852Y-12402576D01*
X14046852Y-12421624D01*
X14037328Y-12450195D01*
X13923042Y-12564481D01*
X14046852Y-12564481D01*
X14284947Y-12564481D02*
X14284947Y-12364481D01*
X14370661Y-12564481D02*
X14370661Y-12459719D01*
X14361138Y-12440672D01*
X14342090Y-12431148D01*
X14313519Y-12431148D01*
X14294471Y-12440672D01*
X14284947Y-12450195D01*
X14494471Y-12564481D02*
X14475423Y-12554957D01*
X14465900Y-12545434D01*
X14456376Y-12526386D01*
X14456376Y-12469243D01*
X14465900Y-12450195D01*
X14475423Y-12440672D01*
X14494471Y-12431148D01*
X14523042Y-12431148D01*
X14542090Y-12440672D01*
X14551614Y-12450195D01*
X14561138Y-12469243D01*
X14561138Y-12526386D01*
X14551614Y-12545434D01*
X14542090Y-12554957D01*
X14523042Y-12564481D01*
X14494471Y-12564481D01*
X14675423Y-12564481D02*
X14656376Y-12554957D01*
X14646852Y-12535910D01*
X14646852Y-12364481D01*
X14827804Y-12554957D02*
X14808757Y-12564481D01*
X14770661Y-12564481D01*
X14751614Y-12554957D01*
X14742090Y-12535910D01*
X14742090Y-12459719D01*
X14751614Y-12440672D01*
X14770661Y-12431148D01*
X14808757Y-12431148D01*
X14827804Y-12440672D01*
X14837328Y-12459719D01*
X14837328Y-12478767D01*
X14742090Y-12497815D01*
X14913519Y-12554957D02*
X14932566Y-12564481D01*
X14970661Y-12564481D01*
X14989709Y-12554957D01*
X14999233Y-12535910D01*
X14999233Y-12526386D01*
X14989709Y-12507338D01*
X14970661Y-12497815D01*
X14942090Y-12497815D01*
X14923042Y-12488291D01*
X14913519Y-12469243D01*
X14913519Y-12459719D01*
X14923042Y-12440672D01*
X14942090Y-12431148D01*
X14970661Y-12431148D01*
X14989709Y-12440672D01*
X15065900Y-12640672D02*
X15075423Y-12631148D01*
X15094471Y-12602576D01*
X15103995Y-12583529D01*
X15113519Y-12554957D01*
X15123042Y-12507338D01*
X15123042Y-12469243D01*
X15113519Y-12421624D01*
X15103995Y-12393053D01*
X15094471Y-12374005D01*
X15075423Y-12345434D01*
X15065900Y-12335910D01*
X10264706Y-12808716D02*
X10264706Y-12667294D01*
X10123284Y-12667294D01*
X10123284Y-12808716D01*
X10264706Y-12808716D01*
X10637328Y-12695148D02*
X10637328Y-12828481D01*
X10589709Y-12618957D02*
X10542090Y-12761815D01*
X10665900Y-12761815D01*
X10742090Y-12809434D02*
X10751614Y-12818957D01*
X10742090Y-12828481D01*
X10732566Y-12818957D01*
X10742090Y-12809434D01*
X10742090Y-12828481D01*
X10818281Y-12628481D02*
X10942090Y-12628481D01*
X10875423Y-12704672D01*
X10903995Y-12704672D01*
X10923043Y-12714195D01*
X10932566Y-12723719D01*
X10942090Y-12742767D01*
X10942090Y-12790386D01*
X10932566Y-12809434D01*
X10923043Y-12818957D01*
X10903995Y-12828481D01*
X10846852Y-12828481D01*
X10827804Y-12818957D01*
X10818281Y-12809434D01*
X11065900Y-12628481D02*
X11084947Y-12628481D01*
X11103995Y-12638005D01*
X11113519Y-12647529D01*
X11123043Y-12666576D01*
X11132566Y-12704672D01*
X11132566Y-12752291D01*
X11123043Y-12790386D01*
X11113519Y-12809434D01*
X11103995Y-12818957D01*
X11084947Y-12828481D01*
X11065900Y-12828481D01*
X11046852Y-12818957D01*
X11037328Y-12809434D01*
X11027804Y-12790386D01*
X11018281Y-12752291D01*
X11018281Y-12704672D01*
X11027804Y-12666576D01*
X11037328Y-12647529D01*
X11046852Y-12638005D01*
X11065900Y-12628481D01*
X11256376Y-12628481D02*
X11275423Y-12628481D01*
X11294471Y-12638005D01*
X11303995Y-12647529D01*
X11313519Y-12666576D01*
X11323042Y-12704672D01*
X11323042Y-12752291D01*
X11313519Y-12790386D01*
X11303995Y-12809434D01*
X11294471Y-12818957D01*
X11275423Y-12828481D01*
X11256376Y-12828481D01*
X11237328Y-12818957D01*
X11227804Y-12809434D01*
X11218281Y-12790386D01*
X11208757Y-12752291D01*
X11208757Y-12704672D01*
X11218281Y-12666576D01*
X11227804Y-12647529D01*
X11237328Y-12638005D01*
X11256376Y-12628481D01*
X11408757Y-12828481D02*
X11408757Y-12695148D01*
X11408757Y-12714195D02*
X11418281Y-12704672D01*
X11437328Y-12695148D01*
X11465900Y-12695148D01*
X11484947Y-12704672D01*
X11494471Y-12723719D01*
X11494471Y-12828481D01*
X11494471Y-12723719D02*
X11503995Y-12704672D01*
X11523042Y-12695148D01*
X11551614Y-12695148D01*
X11570661Y-12704672D01*
X11580185Y-12723719D01*
X11580185Y-12828481D01*
X11675423Y-12828481D02*
X11675423Y-12695148D01*
X11675423Y-12714195D02*
X11684947Y-12704672D01*
X11703995Y-12695148D01*
X11732566Y-12695148D01*
X11751614Y-12704672D01*
X11761138Y-12723719D01*
X11761138Y-12828481D01*
X11761138Y-12723719D02*
X11770661Y-12704672D01*
X11789709Y-12695148D01*
X11818281Y-12695148D01*
X11837328Y-12704672D01*
X11846852Y-12723719D01*
X11846852Y-12828481D01*
X12237328Y-12618957D02*
X12065900Y-12876100D01*
X12494471Y-12628481D02*
X12513519Y-12628481D01*
X12532566Y-12638005D01*
X12542090Y-12647529D01*
X12551614Y-12666576D01*
X12561138Y-12704672D01*
X12561138Y-12752291D01*
X12551614Y-12790386D01*
X12542090Y-12809434D01*
X12532566Y-12818957D01*
X12513519Y-12828481D01*
X12494471Y-12828481D01*
X12475423Y-12818957D01*
X12465900Y-12809434D01*
X12456376Y-12790386D01*
X12446852Y-12752291D01*
X12446852Y-12704672D01*
X12456376Y-12666576D01*
X12465900Y-12647529D01*
X12475423Y-12638005D01*
X12494471Y-12628481D01*
X12646852Y-12809434D02*
X12656376Y-12818957D01*
X12646852Y-12828481D01*
X12637328Y-12818957D01*
X12646852Y-12809434D01*
X12646852Y-12828481D01*
X12846852Y-12828481D02*
X12732566Y-12828481D01*
X12789709Y-12828481D02*
X12789709Y-12628481D01*
X12770661Y-12657053D01*
X12751614Y-12676100D01*
X12732566Y-12685624D01*
X13018281Y-12628481D02*
X12980185Y-12628481D01*
X12961138Y-12638005D01*
X12951614Y-12647529D01*
X12932566Y-12676100D01*
X12923042Y-12714195D01*
X12923042Y-12790386D01*
X12932566Y-12809434D01*
X12942090Y-12818957D01*
X12961138Y-12828481D01*
X12999233Y-12828481D01*
X13018281Y-12818957D01*
X13027804Y-12809434D01*
X13037328Y-12790386D01*
X13037328Y-12742767D01*
X13027804Y-12723719D01*
X13018281Y-12714195D01*
X12999233Y-12704672D01*
X12961138Y-12704672D01*
X12942090Y-12714195D01*
X12932566Y-12723719D01*
X12923042Y-12742767D01*
X13132566Y-12828481D02*
X13170661Y-12828481D01*
X13189709Y-12818957D01*
X13199233Y-12809434D01*
X13218281Y-12780862D01*
X13227804Y-12742767D01*
X13227804Y-12666576D01*
X13218281Y-12647529D01*
X13208757Y-12638005D01*
X13189709Y-12628481D01*
X13151614Y-12628481D01*
X13132566Y-12638005D01*
X13123042Y-12647529D01*
X13113519Y-12666576D01*
X13113519Y-12714195D01*
X13123042Y-12733243D01*
X13132566Y-12742767D01*
X13151614Y-12752291D01*
X13189709Y-12752291D01*
X13208757Y-12742767D01*
X13218281Y-12733243D01*
X13227804Y-12714195D01*
X13294471Y-12628481D02*
X13418281Y-12628481D01*
X13351614Y-12704672D01*
X13380185Y-12704672D01*
X13399233Y-12714195D01*
X13408757Y-12723719D01*
X13418281Y-12742767D01*
X13418281Y-12790386D01*
X13408757Y-12809434D01*
X13399233Y-12818957D01*
X13380185Y-12828481D01*
X13323042Y-12828481D01*
X13303995Y-12818957D01*
X13294471Y-12809434D01*
X13494471Y-12628481D02*
X13494471Y-12666576D01*
X13570661Y-12628481D02*
X13570661Y-12666576D01*
X13865900Y-12904672D02*
X13856376Y-12895148D01*
X13837328Y-12866576D01*
X13827804Y-12847529D01*
X13818281Y-12818957D01*
X13808757Y-12771338D01*
X13808757Y-12733243D01*
X13818281Y-12685624D01*
X13827804Y-12657053D01*
X13837328Y-12638005D01*
X13856376Y-12609434D01*
X13865900Y-12599910D01*
X14027804Y-12695148D02*
X14027804Y-12828481D01*
X13980185Y-12618957D02*
X13932566Y-12761815D01*
X14056376Y-12761815D01*
X14284947Y-12828481D02*
X14284947Y-12628481D01*
X14370661Y-12828481D02*
X14370661Y-12723719D01*
X14361138Y-12704672D01*
X14342090Y-12695148D01*
X14313519Y-12695148D01*
X14294471Y-12704672D01*
X14284947Y-12714195D01*
X14494471Y-12828481D02*
X14475423Y-12818957D01*
X14465900Y-12809434D01*
X14456376Y-12790386D01*
X14456376Y-12733243D01*
X14465900Y-12714195D01*
X14475423Y-12704672D01*
X14494471Y-12695148D01*
X14523042Y-12695148D01*
X14542090Y-12704672D01*
X14551614Y-12714195D01*
X14561138Y-12733243D01*
X14561138Y-12790386D01*
X14551614Y-12809434D01*
X14542090Y-12818957D01*
X14523042Y-12828481D01*
X14494471Y-12828481D01*
X14675423Y-12828481D02*
X14656376Y-12818957D01*
X14646852Y-12799910D01*
X14646852Y-12628481D01*
X14827804Y-12818957D02*
X14808757Y-12828481D01*
X14770661Y-12828481D01*
X14751614Y-12818957D01*
X14742090Y-12799910D01*
X14742090Y-12723719D01*
X14751614Y-12704672D01*
X14770661Y-12695148D01*
X14808757Y-12695148D01*
X14827804Y-12704672D01*
X14837328Y-12723719D01*
X14837328Y-12742767D01*
X14742090Y-12761815D01*
X14913519Y-12818957D02*
X14932566Y-12828481D01*
X14970661Y-12828481D01*
X14989709Y-12818957D01*
X14999233Y-12799910D01*
X14999233Y-12790386D01*
X14989709Y-12771338D01*
X14970661Y-12761815D01*
X14942090Y-12761815D01*
X14923042Y-12752291D01*
X14913519Y-12733243D01*
X14913519Y-12723719D01*
X14923042Y-12704672D01*
X14942090Y-12695148D01*
X14970661Y-12695148D01*
X14989709Y-12704672D01*
X15065900Y-12904672D02*
X15075423Y-12895148D01*
X15094471Y-12866576D01*
X15103995Y-12847529D01*
X15113519Y-12818957D01*
X15123042Y-12771338D01*
X15123042Y-12733243D01*
X15113519Y-12685624D01*
X15103995Y-12657053D01*
X15094471Y-12638005D01*
X15075423Y-12609434D01*
X15065900Y-12599910D01*
M02*
