%TF.GenerationSoftware,KiCad,Pcbnew,(6.0.2)*%
%TF.CreationDate,2022-08-27T15:51:37-07:00*%
%TF.ProjectId,TxBoard,5478426f-6172-4642-9e6b-696361645f70,5*%
%TF.SameCoordinates,Original*%
%TF.FileFunction,Copper,L2,Bot*%
%TF.FilePolarity,Positive*%
%FSLAX46Y46*%
G04 Gerber Fmt 4.6, Leading zero omitted, Abs format (unit mm)*
G04 Created by KiCad (PCBNEW (6.0.2)) date 2022-08-27 15:51:37*
%MOMM*%
%LPD*%
G01*
G04 APERTURE LIST*
G04 Aperture macros list*
%AMRoundRect*
0 Rectangle with rounded corners*
0 $1 Rounding radius*
0 $2 $3 $4 $5 $6 $7 $8 $9 X,Y pos of 4 corners*
0 Add a 4 corners polygon primitive as box body*
4,1,4,$2,$3,$4,$5,$6,$7,$8,$9,$2,$3,0*
0 Add four circle primitives for the rounded corners*
1,1,$1+$1,$2,$3*
1,1,$1+$1,$4,$5*
1,1,$1+$1,$6,$7*
1,1,$1+$1,$8,$9*
0 Add four rect primitives between the rounded corners*
20,1,$1+$1,$2,$3,$4,$5,0*
20,1,$1+$1,$4,$5,$6,$7,0*
20,1,$1+$1,$6,$7,$8,$9,0*
20,1,$1+$1,$8,$9,$2,$3,0*%
G04 Aperture macros list end*
%TA.AperFunction,SMDPad,CuDef*%
%ADD10RoundRect,0.200000X0.200000X0.275000X-0.200000X0.275000X-0.200000X-0.275000X0.200000X-0.275000X0*%
%TD*%
%TA.AperFunction,SMDPad,CuDef*%
%ADD11RoundRect,0.200000X-0.200000X-0.275000X0.200000X-0.275000X0.200000X0.275000X-0.200000X0.275000X0*%
%TD*%
%TA.AperFunction,SMDPad,CuDef*%
%ADD12R,0.700000X0.450000*%
%TD*%
%TA.AperFunction,SMDPad,CuDef*%
%ADD13RoundRect,0.250000X0.250000X0.475000X-0.250000X0.475000X-0.250000X-0.475000X0.250000X-0.475000X0*%
%TD*%
%TA.AperFunction,SMDPad,CuDef*%
%ADD14RoundRect,0.250000X0.475000X-0.250000X0.475000X0.250000X-0.475000X0.250000X-0.475000X-0.250000X0*%
%TD*%
%TA.AperFunction,ComponentPad*%
%ADD15C,7.000000*%
%TD*%
%TA.AperFunction,ComponentPad*%
%ADD16O,2.717800X1.501800*%
%TD*%
%TA.AperFunction,ComponentPad*%
%ADD17O,1.501800X2.717800*%
%TD*%
%TA.AperFunction,SMDPad,CuDef*%
%ADD18R,1.500000X1.500000*%
%TD*%
%TA.AperFunction,ComponentPad*%
%ADD19C,1.755000*%
%TD*%
%TA.AperFunction,ViaPad*%
%ADD20C,0.800000*%
%TD*%
%TA.AperFunction,Conductor*%
%ADD21C,0.381000*%
%TD*%
G04 APERTURE END LIST*
D10*
X175219500Y-103505000D03*
X173569500Y-103505000D03*
X175299500Y-100330000D03*
X173649500Y-100330000D03*
D11*
X179007000Y-100076000D03*
X180657000Y-100076000D03*
D12*
X183372000Y-102220000D03*
X183372000Y-103520000D03*
X181372000Y-102870000D03*
D13*
X184650000Y-90600000D03*
X182750000Y-90600000D03*
D14*
X183700000Y-97250000D03*
X183700000Y-95350000D03*
D15*
X108077000Y-86360000D03*
X189200000Y-86360000D03*
X189300000Y-107950000D03*
X108077000Y-107950000D03*
D16*
X188099999Y-97155000D03*
D17*
X192600000Y-97155000D03*
D18*
X173600000Y-88500000D03*
D19*
X115572000Y-103795000D03*
X115572000Y-90205000D03*
D18*
X173500000Y-85400000D03*
D20*
X180467000Y-97155000D03*
X175600000Y-90600000D03*
X175545000Y-97155000D03*
X165850000Y-94650000D03*
X127900000Y-99700000D03*
X127900000Y-94700000D03*
X180400000Y-90600000D03*
D21*
X165850000Y-94650000D02*
X167969500Y-94650000D01*
X167969500Y-94650000D02*
X173649500Y-100330000D01*
X175545000Y-100084500D02*
X175299500Y-100330000D01*
X175545000Y-97155000D02*
X175545000Y-100084500D01*
X183795000Y-97155000D02*
X183700000Y-97250000D01*
X188099999Y-97155000D02*
X183795000Y-97155000D01*
X179007000Y-98615000D02*
X180467000Y-97155000D01*
X179007000Y-100076000D02*
X179007000Y-98615000D01*
X180657000Y-100076000D02*
X180657000Y-102155000D01*
X180657000Y-102155000D02*
X181372000Y-102870000D01*
X183372000Y-97578000D02*
X183700000Y-97250000D01*
X183372000Y-102220000D02*
X183372000Y-97578000D01*
X183702000Y-97339500D02*
X183700000Y-97337500D01*
X183700000Y-97337500D02*
X183882500Y-97155000D01*
X115572000Y-98550000D02*
X115572000Y-103795000D01*
X172212000Y-97155000D02*
X172212000Y-93345000D01*
X175387000Y-100330000D02*
X172212000Y-97155000D01*
X172212000Y-93345000D02*
X167132000Y-88265000D01*
X173600000Y-90600000D02*
X175600000Y-90600000D01*
X120200000Y-94000000D02*
X120161000Y-93961000D01*
X172212000Y-93345000D02*
X172212000Y-91988000D01*
X125857000Y-88265000D02*
X120161000Y-93961000D01*
X167132000Y-88265000D02*
X125857000Y-88265000D01*
X172212000Y-91988000D02*
X173600000Y-90600000D01*
X120161000Y-93961000D02*
X115572000Y-98550000D01*
X173600000Y-90600000D02*
X173600000Y-88500000D01*
X173562000Y-100330000D02*
X173482000Y-100330000D01*
X134112000Y-103505000D02*
X130302000Y-99695000D01*
X127900000Y-99700000D02*
X130297000Y-99700000D01*
X173482000Y-103505000D02*
X134112000Y-103505000D01*
X130297000Y-99700000D02*
X130302000Y-99695000D01*
X135000000Y-101800000D02*
X127900000Y-94700000D01*
X176650000Y-94350000D02*
X176650000Y-101250000D01*
X176100000Y-101800000D02*
X135000000Y-101800000D01*
X182662500Y-90600000D02*
X180400000Y-90600000D01*
X176650000Y-101250000D02*
X176100000Y-101800000D01*
X180400000Y-90600000D02*
X176650000Y-94350000D01*
%TA.AperFunction,Conductor*%
G36*
X194270057Y-81809500D02*
G01*
X194284858Y-81811805D01*
X194284861Y-81811805D01*
X194293730Y-81813186D01*
X194310899Y-81810941D01*
X194334838Y-81810108D01*
X194556608Y-81823522D01*
X194571713Y-81825356D01*
X194817082Y-81870322D01*
X194831855Y-81873963D01*
X195070025Y-81948180D01*
X195084243Y-81953572D01*
X195311721Y-82055952D01*
X195325194Y-82063023D01*
X195538674Y-82192076D01*
X195551195Y-82200718D01*
X195738808Y-82347704D01*
X195747571Y-82354569D01*
X195758959Y-82364659D01*
X195935341Y-82541041D01*
X195945431Y-82552429D01*
X196065959Y-82706271D01*
X196099281Y-82748804D01*
X196107924Y-82761326D01*
X196236977Y-82974806D01*
X196244047Y-82988277D01*
X196252615Y-83007313D01*
X196346426Y-83215753D01*
X196351822Y-83229980D01*
X196426037Y-83468145D01*
X196429678Y-83482918D01*
X196474644Y-83728287D01*
X196476478Y-83743391D01*
X196489455Y-83957929D01*
X196488198Y-83984639D01*
X196488195Y-83984859D01*
X196486814Y-83993730D01*
X196487978Y-84002632D01*
X196487978Y-84002635D01*
X196490936Y-84025251D01*
X196492000Y-84041589D01*
X196492000Y-110250672D01*
X196490500Y-110270056D01*
X196486814Y-110293730D01*
X196489059Y-110310897D01*
X196489892Y-110334838D01*
X196476478Y-110556608D01*
X196474644Y-110571713D01*
X196429678Y-110817082D01*
X196426037Y-110831855D01*
X196351822Y-111070020D01*
X196346428Y-111084243D01*
X196244048Y-111311721D01*
X196236977Y-111325194D01*
X196107924Y-111538674D01*
X196099282Y-111551195D01*
X196072871Y-111584906D01*
X195945431Y-111747571D01*
X195935341Y-111758959D01*
X195758959Y-111935341D01*
X195747571Y-111945431D01*
X195551196Y-112099281D01*
X195538674Y-112107924D01*
X195325194Y-112236977D01*
X195311723Y-112244047D01*
X195084243Y-112346428D01*
X195070025Y-112351820D01*
X194841990Y-112422879D01*
X194831855Y-112426037D01*
X194817082Y-112429678D01*
X194571713Y-112474644D01*
X194556609Y-112476478D01*
X194342071Y-112489455D01*
X194315361Y-112488198D01*
X194315141Y-112488195D01*
X194306270Y-112486814D01*
X194297368Y-112487978D01*
X194297366Y-112487978D01*
X194286073Y-112489455D01*
X194274707Y-112490941D01*
X194258388Y-112492005D01*
X104439252Y-112502045D01*
X104419859Y-112500545D01*
X104412011Y-112499324D01*
X104405092Y-112498246D01*
X104405090Y-112498246D01*
X104396220Y-112496865D01*
X104385222Y-112498303D01*
X104356539Y-112498760D01*
X104298201Y-112493014D01*
X104228278Y-112486127D01*
X104204056Y-112481309D01*
X104060466Y-112437752D01*
X104037653Y-112428302D01*
X103905326Y-112357571D01*
X103884789Y-112343848D01*
X103768804Y-112248662D01*
X103751338Y-112231196D01*
X103656152Y-112115211D01*
X103642429Y-112094674D01*
X103571698Y-111962347D01*
X103562248Y-111939534D01*
X103518691Y-111795944D01*
X103513873Y-111771722D01*
X103501905Y-111650216D01*
X103502358Y-111634174D01*
X103501644Y-111634165D01*
X103501754Y-111625192D01*
X103503135Y-111616320D01*
X103501971Y-111607419D01*
X103501971Y-111607414D01*
X103499027Y-111584906D01*
X103497963Y-111568524D01*
X103500678Y-103761021D01*
X114181665Y-103761021D01*
X114181962Y-103766173D01*
X114181962Y-103766177D01*
X114182593Y-103777115D01*
X114194785Y-103988555D01*
X114195920Y-103993592D01*
X114195921Y-103993598D01*
X114239732Y-104188004D01*
X114244890Y-104210891D01*
X114246834Y-104215677D01*
X114246835Y-104215682D01*
X114283903Y-104306969D01*
X114330636Y-104422058D01*
X114449720Y-104616385D01*
X114598943Y-104788653D01*
X114774299Y-104934236D01*
X114778751Y-104936838D01*
X114778756Y-104936841D01*
X114966619Y-105046619D01*
X114971077Y-105049224D01*
X115183993Y-105130528D01*
X115189061Y-105131559D01*
X115189064Y-105131560D01*
X115298741Y-105153874D01*
X115407330Y-105175967D01*
X115412503Y-105176157D01*
X115412506Y-105176157D01*
X115629925Y-105184129D01*
X115629929Y-105184129D01*
X115635089Y-105184318D01*
X115640209Y-105183662D01*
X115640211Y-105183662D01*
X115856025Y-105156016D01*
X115856026Y-105156016D01*
X115861153Y-105155359D01*
X115866103Y-105153874D01*
X116074497Y-105091353D01*
X116074502Y-105091351D01*
X116079452Y-105089866D01*
X116085548Y-105086880D01*
X116279473Y-104991877D01*
X116279478Y-104991874D01*
X116284124Y-104989598D01*
X116288334Y-104986595D01*
X116288339Y-104986592D01*
X116465458Y-104860254D01*
X116465463Y-104860250D01*
X116469670Y-104857249D01*
X116631109Y-104696373D01*
X116685782Y-104620288D01*
X116761087Y-104515489D01*
X116764105Y-104511289D01*
X116776153Y-104486913D01*
X116862793Y-104311611D01*
X116862794Y-104311609D01*
X116865087Y-104306969D01*
X116931341Y-104088900D01*
X116961090Y-103862938D01*
X116962750Y-103795000D01*
X116944075Y-103567854D01*
X116888552Y-103346809D01*
X116821522Y-103192649D01*
X116799733Y-103142537D01*
X116799731Y-103142534D01*
X116797673Y-103137800D01*
X116673877Y-102946441D01*
X116664651Y-102936301D01*
X116523967Y-102781692D01*
X116523965Y-102781691D01*
X116520489Y-102777870D01*
X116516438Y-102774671D01*
X116516434Y-102774667D01*
X116345684Y-102639817D01*
X116345680Y-102639815D01*
X116341629Y-102636615D01*
X116336111Y-102633569D01*
X116335787Y-102633242D01*
X116332795Y-102631254D01*
X116333205Y-102630637D01*
X116286138Y-102583139D01*
X116271000Y-102523258D01*
X116271000Y-98891725D01*
X116291002Y-98823604D01*
X116307905Y-98802630D01*
X120437218Y-94673317D01*
X120475061Y-94647307D01*
X120479141Y-94645490D01*
X120486397Y-94643258D01*
X120631569Y-94556375D01*
X120751825Y-94437371D01*
X120766906Y-94412761D01*
X120836252Y-94299598D01*
X120836254Y-94299595D01*
X120840223Y-94293117D01*
X120842534Y-94285877D01*
X120845694Y-94278974D01*
X120847168Y-94279649D01*
X120872550Y-94237985D01*
X126109630Y-89000905D01*
X126171942Y-88966879D01*
X126198725Y-88964000D01*
X166790275Y-88964000D01*
X166858396Y-88984002D01*
X166879370Y-89000905D01*
X171476095Y-93597630D01*
X171510121Y-93659942D01*
X171513000Y-93686725D01*
X171513000Y-96900775D01*
X171492998Y-96968896D01*
X171439342Y-97015389D01*
X171369068Y-97025493D01*
X171304488Y-96995999D01*
X171297905Y-96989870D01*
X168483997Y-94175962D01*
X168478143Y-94169696D01*
X168467627Y-94157641D01*
X168440658Y-94126726D01*
X168389122Y-94090506D01*
X168383826Y-94086573D01*
X168340237Y-94052394D01*
X168340234Y-94052392D01*
X168334260Y-94047708D01*
X168327336Y-94044582D01*
X168324301Y-94042744D01*
X168311602Y-94035500D01*
X168308454Y-94033812D01*
X168302239Y-94029444D01*
X168243550Y-94006562D01*
X168237505Y-94004022D01*
X168180065Y-93978087D01*
X168172592Y-93976702D01*
X168169174Y-93975631D01*
X168155185Y-93971646D01*
X168151693Y-93970749D01*
X168144611Y-93967988D01*
X168137078Y-93966996D01*
X168137077Y-93966996D01*
X168082170Y-93959767D01*
X168075657Y-93958735D01*
X168021182Y-93948639D01*
X168021180Y-93948639D01*
X168013713Y-93947255D01*
X168006133Y-93947692D01*
X168006132Y-93947692D01*
X167952388Y-93950791D01*
X167945135Y-93951000D01*
X166474481Y-93951000D01*
X166406360Y-93930998D01*
X166400420Y-93926936D01*
X166312094Y-93862763D01*
X166312093Y-93862762D01*
X166306752Y-93858882D01*
X166300724Y-93856198D01*
X166300722Y-93856197D01*
X166138319Y-93783891D01*
X166138318Y-93783891D01*
X166132288Y-93781206D01*
X166038888Y-93761353D01*
X165951944Y-93742872D01*
X165951939Y-93742872D01*
X165945487Y-93741500D01*
X165754513Y-93741500D01*
X165748061Y-93742872D01*
X165748056Y-93742872D01*
X165661112Y-93761353D01*
X165567712Y-93781206D01*
X165561682Y-93783891D01*
X165561681Y-93783891D01*
X165399278Y-93856197D01*
X165399276Y-93856198D01*
X165393248Y-93858882D01*
X165387907Y-93862762D01*
X165387906Y-93862763D01*
X165357223Y-93885056D01*
X165238747Y-93971134D01*
X165234326Y-93976044D01*
X165234325Y-93976045D01*
X165169800Y-94047708D01*
X165110960Y-94113056D01*
X165015473Y-94278444D01*
X164956458Y-94460072D01*
X164955768Y-94466633D01*
X164955768Y-94466635D01*
X164952465Y-94498063D01*
X164936496Y-94650000D01*
X164956458Y-94839928D01*
X165015473Y-95021556D01*
X165018776Y-95027278D01*
X165018777Y-95027279D01*
X165033572Y-95052905D01*
X165110960Y-95186944D01*
X165115378Y-95191851D01*
X165115379Y-95191852D01*
X165225094Y-95313703D01*
X165238747Y-95328866D01*
X165393248Y-95441118D01*
X165399276Y-95443802D01*
X165399278Y-95443803D01*
X165487750Y-95483193D01*
X165567712Y-95518794D01*
X165661112Y-95538647D01*
X165748056Y-95557128D01*
X165748061Y-95557128D01*
X165754513Y-95558500D01*
X165945487Y-95558500D01*
X165951939Y-95557128D01*
X165951944Y-95557128D01*
X166038887Y-95538647D01*
X166132288Y-95518794D01*
X166212250Y-95483193D01*
X166300722Y-95443803D01*
X166300724Y-95443802D01*
X166306752Y-95441118D01*
X166400420Y-95373064D01*
X166467288Y-95349206D01*
X166474481Y-95349000D01*
X167627775Y-95349000D01*
X167695896Y-95369002D01*
X167716870Y-95385905D01*
X172704096Y-100373131D01*
X172738122Y-100435443D01*
X172741001Y-100462226D01*
X172741001Y-100661634D01*
X172747747Y-100735062D01*
X172749746Y-100741440D01*
X172749746Y-100741441D01*
X172777719Y-100830701D01*
X172799028Y-100898699D01*
X172805708Y-100909729D01*
X172823887Y-100978358D01*
X172802077Y-101045922D01*
X172747201Y-101090968D01*
X172697932Y-101101000D01*
X135341726Y-101101000D01*
X135273605Y-101080998D01*
X135252631Y-101064095D01*
X128836243Y-94647708D01*
X128802217Y-94585396D01*
X128800028Y-94571783D01*
X128794232Y-94516637D01*
X128794232Y-94516635D01*
X128793542Y-94510072D01*
X128734527Y-94328444D01*
X128639040Y-94163056D01*
X128606329Y-94126726D01*
X128515675Y-94026045D01*
X128515674Y-94026044D01*
X128511253Y-94021134D01*
X128356752Y-93908882D01*
X128350724Y-93906198D01*
X128350722Y-93906197D01*
X128188319Y-93833891D01*
X128188318Y-93833891D01*
X128182288Y-93831206D01*
X128088888Y-93811353D01*
X128001944Y-93792872D01*
X128001939Y-93792872D01*
X127995487Y-93791500D01*
X127804513Y-93791500D01*
X127798061Y-93792872D01*
X127798056Y-93792872D01*
X127711112Y-93811353D01*
X127617712Y-93831206D01*
X127611682Y-93833891D01*
X127611681Y-93833891D01*
X127449278Y-93906197D01*
X127449276Y-93906198D01*
X127443248Y-93908882D01*
X127288747Y-94021134D01*
X127284326Y-94026044D01*
X127284325Y-94026045D01*
X127193672Y-94126726D01*
X127160960Y-94163056D01*
X127065473Y-94328444D01*
X127006458Y-94510072D01*
X126986496Y-94700000D01*
X127006458Y-94889928D01*
X127065473Y-95071556D01*
X127068776Y-95077278D01*
X127068777Y-95077279D01*
X127077002Y-95091525D01*
X127160960Y-95236944D01*
X127165378Y-95241851D01*
X127165379Y-95241852D01*
X127279865Y-95369002D01*
X127288747Y-95378866D01*
X127374429Y-95441118D01*
X127424103Y-95477208D01*
X127443248Y-95491118D01*
X127449276Y-95493802D01*
X127449278Y-95493803D01*
X127611681Y-95566109D01*
X127617712Y-95568794D01*
X127787631Y-95604912D01*
X127850528Y-95639063D01*
X134485503Y-102274038D01*
X134491356Y-102280303D01*
X134528842Y-102323274D01*
X134580389Y-102359502D01*
X134585684Y-102363435D01*
X134635239Y-102402291D01*
X134642163Y-102405417D01*
X134645212Y-102407264D01*
X134657878Y-102414489D01*
X134661043Y-102416186D01*
X134667261Y-102420556D01*
X134725996Y-102443456D01*
X134732009Y-102445983D01*
X134789435Y-102471912D01*
X134796903Y-102473296D01*
X134800311Y-102474364D01*
X134814358Y-102478366D01*
X134817813Y-102479253D01*
X134824889Y-102482012D01*
X134887353Y-102490235D01*
X134893845Y-102491263D01*
X134955787Y-102502744D01*
X134963367Y-102502307D01*
X134963368Y-102502307D01*
X135017094Y-102499209D01*
X135024347Y-102499000D01*
X172794290Y-102499000D01*
X172862411Y-102519002D01*
X172908904Y-102572658D01*
X172919008Y-102642932D01*
X172889514Y-102707512D01*
X172883385Y-102714095D01*
X172828385Y-102769095D01*
X172766073Y-102803121D01*
X172739290Y-102806000D01*
X134453725Y-102806000D01*
X134385604Y-102785998D01*
X134364630Y-102769095D01*
X130802616Y-99207081D01*
X130802150Y-99206614D01*
X130764704Y-99168774D01*
X130739372Y-99143175D01*
X130732898Y-99139208D01*
X130732892Y-99139203D01*
X130707801Y-99123827D01*
X130695890Y-99115549D01*
X130672736Y-99097394D01*
X130666760Y-99092708D01*
X130636963Y-99079255D01*
X130622991Y-99071857D01*
X130595118Y-99054776D01*
X130559842Y-99043518D01*
X130546315Y-99038325D01*
X130512565Y-99023087D01*
X130505097Y-99021703D01*
X130505091Y-99021701D01*
X130480429Y-99017131D01*
X130465091Y-99013279D01*
X130433942Y-99003338D01*
X130407569Y-99001540D01*
X130397008Y-99000820D01*
X130382617Y-98999002D01*
X130353680Y-98993639D01*
X130346213Y-98992255D01*
X130338634Y-98992692D01*
X130335625Y-98992866D01*
X130313578Y-98994137D01*
X130297766Y-98994054D01*
X130265148Y-98991830D01*
X130257674Y-98993135D01*
X130257665Y-98993135D01*
X130228673Y-98998196D01*
X130214260Y-98999863D01*
X130204720Y-99000414D01*
X130198170Y-99000791D01*
X130190921Y-99001000D01*
X128524481Y-99001000D01*
X128456360Y-98980998D01*
X128450420Y-98976936D01*
X128362094Y-98912763D01*
X128362093Y-98912762D01*
X128356752Y-98908882D01*
X128350724Y-98906198D01*
X128350722Y-98906197D01*
X128188319Y-98833891D01*
X128188318Y-98833891D01*
X128182288Y-98831206D01*
X128088887Y-98811353D01*
X128001944Y-98792872D01*
X128001939Y-98792872D01*
X127995487Y-98791500D01*
X127804513Y-98791500D01*
X127798061Y-98792872D01*
X127798056Y-98792872D01*
X127711113Y-98811353D01*
X127617712Y-98831206D01*
X127611682Y-98833891D01*
X127611681Y-98833891D01*
X127449278Y-98906197D01*
X127449276Y-98906198D01*
X127443248Y-98908882D01*
X127288747Y-99021134D01*
X127284326Y-99026044D01*
X127284325Y-99026045D01*
X127224302Y-99092708D01*
X127160960Y-99163056D01*
X127157659Y-99168774D01*
X127073864Y-99313911D01*
X127065473Y-99328444D01*
X127006458Y-99510072D01*
X127005768Y-99516633D01*
X127005768Y-99516635D01*
X126988851Y-99677592D01*
X126986496Y-99700000D01*
X127006458Y-99889928D01*
X127065473Y-100071556D01*
X127160960Y-100236944D01*
X127288747Y-100378866D01*
X127443248Y-100491118D01*
X127449276Y-100493802D01*
X127449278Y-100493803D01*
X127611681Y-100566109D01*
X127617712Y-100568794D01*
X127711112Y-100588647D01*
X127798056Y-100607128D01*
X127798061Y-100607128D01*
X127804513Y-100608500D01*
X127995487Y-100608500D01*
X128001939Y-100607128D01*
X128001944Y-100607128D01*
X128088888Y-100588647D01*
X128182288Y-100568794D01*
X128188319Y-100566109D01*
X128350722Y-100493803D01*
X128350724Y-100493802D01*
X128356752Y-100491118D01*
X128450420Y-100423064D01*
X128517288Y-100399206D01*
X128524481Y-100399000D01*
X129965275Y-100399000D01*
X130033396Y-100419002D01*
X130054370Y-100435905D01*
X131872388Y-102253924D01*
X133597510Y-103979046D01*
X133603363Y-103985311D01*
X133640842Y-104028274D01*
X133692383Y-104064498D01*
X133697668Y-104068423D01*
X133747240Y-104107292D01*
X133754158Y-104110416D01*
X133757179Y-104112245D01*
X133769898Y-104119500D01*
X133773046Y-104121188D01*
X133779261Y-104125556D01*
X133837950Y-104148438D01*
X133843995Y-104150978D01*
X133901435Y-104176913D01*
X133908908Y-104178298D01*
X133912326Y-104179369D01*
X133926315Y-104183354D01*
X133929807Y-104184251D01*
X133936889Y-104187012D01*
X133944422Y-104188004D01*
X133944423Y-104188004D01*
X133999330Y-104195233D01*
X134005843Y-104196265D01*
X134060318Y-104206361D01*
X134060320Y-104206361D01*
X134067787Y-104207745D01*
X134075367Y-104207308D01*
X134075368Y-104207308D01*
X134129112Y-104204209D01*
X134136365Y-104204000D01*
X172739290Y-104204000D01*
X172807411Y-104224002D01*
X172828385Y-104240905D01*
X172929119Y-104341639D01*
X173075801Y-104430472D01*
X173083048Y-104432743D01*
X173083050Y-104432744D01*
X173149336Y-104453517D01*
X173239438Y-104481753D01*
X173312865Y-104488500D01*
X173315763Y-104488500D01*
X173570165Y-104488499D01*
X173826134Y-104488499D01*
X173828992Y-104488236D01*
X173829001Y-104488236D01*
X173864504Y-104484974D01*
X173899562Y-104481753D01*
X173907530Y-104479256D01*
X174055950Y-104432744D01*
X174055952Y-104432743D01*
X174063199Y-104430472D01*
X174209881Y-104341639D01*
X174305759Y-104245761D01*
X174368071Y-104211735D01*
X174438886Y-104216800D01*
X174483949Y-104245761D01*
X174574057Y-104335869D01*
X174585926Y-104345176D01*
X174719512Y-104426079D01*
X174733257Y-104432285D01*
X174883144Y-104479256D01*
X174896194Y-104481869D01*
X174951086Y-104486913D01*
X174962624Y-104483525D01*
X174963829Y-104482135D01*
X174965500Y-104474452D01*
X174965500Y-104469884D01*
X175473500Y-104469884D01*
X175477975Y-104485123D01*
X175479365Y-104486328D01*
X175483794Y-104487291D01*
X175542815Y-104481868D01*
X175555851Y-104479257D01*
X175705743Y-104432285D01*
X175719488Y-104426079D01*
X175853074Y-104345176D01*
X175864943Y-104335869D01*
X175975369Y-104225443D01*
X175984676Y-104213574D01*
X176065579Y-104079988D01*
X176071785Y-104066243D01*
X176118756Y-103916356D01*
X176121369Y-103903306D01*
X176127234Y-103839479D01*
X176127500Y-103833691D01*
X176127500Y-103789669D01*
X182514001Y-103789669D01*
X182514371Y-103796490D01*
X182519895Y-103847352D01*
X182523521Y-103862604D01*
X182568676Y-103983054D01*
X182577214Y-103998649D01*
X182653715Y-104100724D01*
X182666276Y-104113285D01*
X182768351Y-104189786D01*
X182783946Y-104198324D01*
X182904394Y-104243478D01*
X182919649Y-104247105D01*
X182970514Y-104252631D01*
X182977328Y-104253000D01*
X183128885Y-104253000D01*
X183144124Y-104248525D01*
X183145329Y-104247135D01*
X183147000Y-104239452D01*
X183147000Y-104234884D01*
X183597000Y-104234884D01*
X183601475Y-104250123D01*
X183602865Y-104251328D01*
X183610548Y-104252999D01*
X183766669Y-104252999D01*
X183773490Y-104252629D01*
X183824352Y-104247105D01*
X183839604Y-104243479D01*
X183960054Y-104198324D01*
X183975649Y-104189786D01*
X184077724Y-104113285D01*
X184090285Y-104100724D01*
X184166786Y-103998649D01*
X184175324Y-103983054D01*
X184220478Y-103862606D01*
X184224105Y-103847351D01*
X184229631Y-103796486D01*
X184230000Y-103789672D01*
X184230000Y-103763115D01*
X184225525Y-103747876D01*
X184224135Y-103746671D01*
X184216452Y-103745000D01*
X183615115Y-103745000D01*
X183599876Y-103749475D01*
X183598671Y-103750865D01*
X183597000Y-103758548D01*
X183597000Y-104234884D01*
X183147000Y-104234884D01*
X183147000Y-103763115D01*
X183142525Y-103747876D01*
X183141135Y-103746671D01*
X183133452Y-103745000D01*
X182532116Y-103745000D01*
X182516877Y-103749475D01*
X182515672Y-103750865D01*
X182514001Y-103758548D01*
X182514001Y-103789669D01*
X176127500Y-103789669D01*
X176127500Y-103777115D01*
X176123025Y-103761876D01*
X176121635Y-103760671D01*
X176113952Y-103759000D01*
X175491615Y-103759000D01*
X175476376Y-103763475D01*
X175475171Y-103764865D01*
X175473500Y-103772548D01*
X175473500Y-104469884D01*
X174965500Y-104469884D01*
X174965500Y-103377000D01*
X174985502Y-103308879D01*
X175039158Y-103262386D01*
X175091500Y-103251000D01*
X176109384Y-103251000D01*
X176124623Y-103246525D01*
X176125828Y-103245135D01*
X176127499Y-103237452D01*
X176127499Y-103176295D01*
X176127236Y-103170546D01*
X176121368Y-103106685D01*
X176118757Y-103093649D01*
X176071785Y-102943757D01*
X176065579Y-102930012D01*
X175984676Y-102796426D01*
X175975369Y-102784557D01*
X175904907Y-102714095D01*
X175870881Y-102651783D01*
X175875946Y-102580968D01*
X175918493Y-102524132D01*
X175985013Y-102499321D01*
X175994002Y-102499000D01*
X176071401Y-102499000D01*
X176079971Y-102499292D01*
X176129277Y-102502654D01*
X176129281Y-102502654D01*
X176136852Y-102503170D01*
X176144328Y-102501865D01*
X176144332Y-102501865D01*
X176198924Y-102492337D01*
X176205449Y-102491374D01*
X176260418Y-102484722D01*
X176260420Y-102484721D01*
X176267960Y-102483809D01*
X176275062Y-102481125D01*
X176278500Y-102480281D01*
X176292623Y-102476417D01*
X176296034Y-102475387D01*
X176303517Y-102474081D01*
X176361197Y-102448761D01*
X176367304Y-102446270D01*
X176419117Y-102426691D01*
X176419118Y-102426690D01*
X176426222Y-102424006D01*
X176432477Y-102419707D01*
X176435618Y-102418065D01*
X176448372Y-102410967D01*
X176451478Y-102409130D01*
X176458433Y-102406077D01*
X176464460Y-102401452D01*
X176464464Y-102401450D01*
X176508402Y-102367735D01*
X176513720Y-102363871D01*
X176565652Y-102328179D01*
X176606519Y-102282311D01*
X176611499Y-102277036D01*
X177124038Y-101764497D01*
X177130304Y-101758643D01*
X177167549Y-101726152D01*
X177173274Y-101721158D01*
X177209502Y-101669610D01*
X177213435Y-101664316D01*
X177233398Y-101638856D01*
X177252291Y-101614761D01*
X177255417Y-101607837D01*
X177257264Y-101604788D01*
X177264489Y-101592122D01*
X177266186Y-101588957D01*
X177270556Y-101582739D01*
X177293456Y-101524004D01*
X177295983Y-101517991D01*
X177321912Y-101460565D01*
X177323296Y-101453097D01*
X177324364Y-101449689D01*
X177328364Y-101435650D01*
X177329253Y-101432186D01*
X177332012Y-101425111D01*
X177340235Y-101362655D01*
X177341267Y-101356141D01*
X177351360Y-101301683D01*
X177351360Y-101301680D01*
X177352744Y-101294214D01*
X177349209Y-101232905D01*
X177349000Y-101225653D01*
X177349000Y-99744365D01*
X178098500Y-99744365D01*
X178098501Y-100407634D01*
X178098764Y-100410492D01*
X178098764Y-100410501D01*
X178101056Y-100435443D01*
X178105247Y-100481062D01*
X178107246Y-100487440D01*
X178107246Y-100487441D01*
X178133171Y-100570166D01*
X178156528Y-100644699D01*
X178245361Y-100791381D01*
X178366619Y-100912639D01*
X178513301Y-101001472D01*
X178520548Y-101003743D01*
X178520550Y-101003744D01*
X178586836Y-101024517D01*
X178676938Y-101052753D01*
X178750365Y-101059500D01*
X178753263Y-101059500D01*
X179007665Y-101059499D01*
X179263634Y-101059499D01*
X179266492Y-101059236D01*
X179266501Y-101059236D01*
X179302004Y-101055974D01*
X179337062Y-101052753D01*
X179360586Y-101045381D01*
X179493450Y-101003744D01*
X179493452Y-101003743D01*
X179500699Y-101001472D01*
X179647381Y-100912639D01*
X179742905Y-100817115D01*
X179805217Y-100783089D01*
X179876032Y-100788154D01*
X179932868Y-100830701D01*
X179957679Y-100897221D01*
X179958000Y-100906210D01*
X179958000Y-102126401D01*
X179957708Y-102134971D01*
X179953830Y-102191852D01*
X179955135Y-102199328D01*
X179955135Y-102199332D01*
X179964663Y-102253924D01*
X179965626Y-102260449D01*
X179969072Y-102288919D01*
X179973191Y-102322960D01*
X179975875Y-102330062D01*
X179976719Y-102333500D01*
X179980583Y-102347623D01*
X179981613Y-102351034D01*
X179982919Y-102358517D01*
X179985972Y-102365472D01*
X180008239Y-102416198D01*
X180010730Y-102422304D01*
X180030296Y-102474081D01*
X180032994Y-102481222D01*
X180037293Y-102487477D01*
X180038935Y-102490618D01*
X180046033Y-102503372D01*
X180047870Y-102506478D01*
X180050923Y-102513433D01*
X180055548Y-102519460D01*
X180055550Y-102519464D01*
X180089265Y-102563402D01*
X180093129Y-102568720D01*
X180128821Y-102620652D01*
X180174707Y-102661535D01*
X180179963Y-102666498D01*
X180476595Y-102963130D01*
X180510621Y-103025442D01*
X180513500Y-103052225D01*
X180513500Y-103143134D01*
X180520255Y-103205316D01*
X180571385Y-103341705D01*
X180658739Y-103458261D01*
X180775295Y-103545615D01*
X180911684Y-103596745D01*
X180973866Y-103603500D01*
X181770134Y-103603500D01*
X181832316Y-103596745D01*
X181968705Y-103545615D01*
X182085261Y-103458261D01*
X182172615Y-103341705D01*
X182223745Y-103205316D01*
X182230500Y-103143134D01*
X182230500Y-102596866D01*
X182223745Y-102534684D01*
X182172615Y-102398295D01*
X182085261Y-102281739D01*
X181968705Y-102194385D01*
X181832316Y-102143255D01*
X181770134Y-102136500D01*
X181679225Y-102136500D01*
X181611104Y-102116498D01*
X181590130Y-102099595D01*
X181392905Y-101902370D01*
X181358879Y-101840058D01*
X181356000Y-101813275D01*
X181356000Y-100906210D01*
X181376002Y-100838089D01*
X181392905Y-100817115D01*
X181418639Y-100791381D01*
X181507472Y-100644699D01*
X181558753Y-100481062D01*
X181565500Y-100407635D01*
X181565499Y-99744366D01*
X181565234Y-99741474D01*
X181559364Y-99677592D01*
X181558753Y-99670938D01*
X181507472Y-99507301D01*
X181418639Y-99360619D01*
X181297381Y-99239361D01*
X181150699Y-99150528D01*
X181143452Y-99148257D01*
X181143450Y-99148256D01*
X181039081Y-99115549D01*
X180987062Y-99099247D01*
X180913635Y-99092500D01*
X180910737Y-99092500D01*
X180656335Y-99092501D01*
X180400366Y-99092501D01*
X180397508Y-99092764D01*
X180397499Y-99092764D01*
X180361996Y-99096026D01*
X180326938Y-99099247D01*
X180320560Y-99101246D01*
X180320559Y-99101246D01*
X180170550Y-99148256D01*
X180170548Y-99148257D01*
X180163301Y-99150528D01*
X180016619Y-99239361D01*
X179921095Y-99334885D01*
X179858783Y-99368911D01*
X179787968Y-99363846D01*
X179731132Y-99321299D01*
X179706321Y-99254779D01*
X179706000Y-99245790D01*
X179706000Y-98956725D01*
X179726002Y-98888604D01*
X179742905Y-98867630D01*
X180516472Y-98094063D01*
X180579369Y-98059912D01*
X180749288Y-98023794D01*
X180755319Y-98021109D01*
X180917722Y-97948803D01*
X180917724Y-97948802D01*
X180923752Y-97946118D01*
X180968120Y-97913883D01*
X181023011Y-97874002D01*
X181078253Y-97833866D01*
X181206040Y-97691944D01*
X181280219Y-97563463D01*
X181287761Y-97550400D01*
X182466500Y-97550400D01*
X182477474Y-97656166D01*
X182479655Y-97662702D01*
X182479655Y-97662704D01*
X182511793Y-97759033D01*
X182533450Y-97823946D01*
X182626522Y-97974348D01*
X182631703Y-97979520D01*
X182636016Y-97983825D01*
X182670096Y-98046106D01*
X182673000Y-98073000D01*
X182673000Y-101570735D01*
X182652998Y-101638856D01*
X182647826Y-101646300D01*
X182571385Y-101748295D01*
X182520255Y-101884684D01*
X182513500Y-101946866D01*
X182513500Y-102493134D01*
X182520255Y-102555316D01*
X182571385Y-102691705D01*
X182576770Y-102698890D01*
X182576771Y-102698892D01*
X182648689Y-102794852D01*
X182673537Y-102861359D01*
X182658484Y-102930741D01*
X182648689Y-102945982D01*
X182577214Y-103041351D01*
X182568676Y-103056946D01*
X182523522Y-103177394D01*
X182519895Y-103192649D01*
X182514369Y-103243514D01*
X182514000Y-103250328D01*
X182514000Y-103276885D01*
X182518475Y-103292124D01*
X182519865Y-103293329D01*
X182527548Y-103295000D01*
X184211884Y-103295000D01*
X184227123Y-103290525D01*
X184228328Y-103289135D01*
X184229999Y-103281452D01*
X184229999Y-103250331D01*
X184229629Y-103243510D01*
X184224105Y-103192648D01*
X184220479Y-103177396D01*
X184175324Y-103056946D01*
X184166786Y-103041351D01*
X184095311Y-102945982D01*
X184070463Y-102879475D01*
X184085516Y-102810093D01*
X184095311Y-102794852D01*
X184167229Y-102698892D01*
X184167230Y-102698890D01*
X184172615Y-102691705D01*
X184223745Y-102555316D01*
X184230500Y-102493134D01*
X184230500Y-101946866D01*
X184223745Y-101884684D01*
X184172615Y-101748295D01*
X184096174Y-101646300D01*
X184071326Y-101579794D01*
X184071000Y-101570735D01*
X184071000Y-98384500D01*
X184091002Y-98316379D01*
X184144658Y-98269886D01*
X184197000Y-98258500D01*
X184225400Y-98258500D01*
X184228646Y-98258163D01*
X184228650Y-98258163D01*
X184324308Y-98248238D01*
X184324312Y-98248237D01*
X184331166Y-98247526D01*
X184337702Y-98245345D01*
X184337704Y-98245345D01*
X184471598Y-98200674D01*
X184498946Y-98191550D01*
X184649348Y-98098478D01*
X184774305Y-97973303D01*
X184778148Y-97967069D01*
X184810933Y-97913883D01*
X184863705Y-97866390D01*
X184918192Y-97854000D01*
X186378680Y-97854000D01*
X186446801Y-97874002D01*
X186478642Y-97903296D01*
X186561212Y-98010903D01*
X186565357Y-98014674D01*
X186565360Y-98014678D01*
X186711908Y-98148026D01*
X186727489Y-98162204D01*
X186917933Y-98281669D01*
X187126521Y-98365521D01*
X187132012Y-98366658D01*
X187132015Y-98366659D01*
X187218167Y-98384500D01*
X187346662Y-98411110D01*
X187351273Y-98411376D01*
X187351274Y-98411376D01*
X187401899Y-98414295D01*
X187401903Y-98414295D01*
X187403722Y-98414400D01*
X188765033Y-98414400D01*
X188767819Y-98414151D01*
X188767827Y-98414151D01*
X188849803Y-98406835D01*
X188931921Y-98399506D01*
X188937337Y-98398024D01*
X188937339Y-98398024D01*
X189060557Y-98364315D01*
X189148765Y-98340184D01*
X189153823Y-98337772D01*
X189153827Y-98337770D01*
X189277006Y-98279016D01*
X189351677Y-98243400D01*
X189534243Y-98112213D01*
X189690692Y-97950769D01*
X189780442Y-97817207D01*
X191341100Y-97817207D01*
X191341349Y-97822802D01*
X191355490Y-97981237D01*
X191357472Y-97992252D01*
X191413807Y-98198180D01*
X191417701Y-98208653D01*
X191509618Y-98401360D01*
X191515304Y-98410975D01*
X191639891Y-98584357D01*
X191647199Y-98592823D01*
X191800514Y-98741394D01*
X191809211Y-98748437D01*
X191986409Y-98867509D01*
X191996209Y-98872897D01*
X192191697Y-98958711D01*
X192202296Y-98962278D01*
X192328384Y-98992549D01*
X192342470Y-98991844D01*
X192346000Y-98982965D01*
X192346000Y-98982317D01*
X192854000Y-98982317D01*
X192858105Y-98996297D01*
X192867778Y-98997799D01*
X192868160Y-98997717D01*
X193072224Y-98934938D01*
X193082570Y-98930717D01*
X193272296Y-98832792D01*
X193281727Y-98826807D01*
X193451118Y-98696828D01*
X193459335Y-98689272D01*
X193603030Y-98531353D01*
X193609783Y-98522457D01*
X193723242Y-98341589D01*
X193728313Y-98331638D01*
X193807949Y-98133535D01*
X193811178Y-98122840D01*
X193854674Y-97912803D01*
X193855877Y-97903666D01*
X193858795Y-97853062D01*
X193858900Y-97849415D01*
X193858900Y-97427115D01*
X193854425Y-97411876D01*
X193853035Y-97410671D01*
X193845352Y-97409000D01*
X192872115Y-97409000D01*
X192856876Y-97413475D01*
X192855671Y-97414865D01*
X192854000Y-97422548D01*
X192854000Y-98982317D01*
X192346000Y-98982317D01*
X192346000Y-97427115D01*
X192341525Y-97411876D01*
X192340135Y-97410671D01*
X192332452Y-97409000D01*
X191359215Y-97409000D01*
X191343976Y-97413475D01*
X191342771Y-97414865D01*
X191341100Y-97422548D01*
X191341100Y-97817207D01*
X189780442Y-97817207D01*
X189816080Y-97764173D01*
X189906443Y-97558321D01*
X189941601Y-97411876D01*
X189957614Y-97345178D01*
X189957614Y-97345177D01*
X189958924Y-97339721D01*
X189967450Y-97191852D01*
X189971542Y-97120888D01*
X189971542Y-97120885D01*
X189971865Y-97115281D01*
X189944857Y-96892098D01*
X189942023Y-96882885D01*
X191341100Y-96882885D01*
X191345575Y-96898124D01*
X191346965Y-96899329D01*
X191354648Y-96901000D01*
X192327885Y-96901000D01*
X192343124Y-96896525D01*
X192344329Y-96895135D01*
X192346000Y-96887452D01*
X192346000Y-96882885D01*
X192854000Y-96882885D01*
X192858475Y-96898124D01*
X192859865Y-96899329D01*
X192867548Y-96901000D01*
X193840785Y-96901000D01*
X193856024Y-96896525D01*
X193857229Y-96895135D01*
X193858900Y-96887452D01*
X193858900Y-96492793D01*
X193858651Y-96487198D01*
X193844510Y-96328763D01*
X193842528Y-96317748D01*
X193786193Y-96111820D01*
X193782299Y-96101347D01*
X193690382Y-95908640D01*
X193684696Y-95899025D01*
X193560109Y-95725643D01*
X193552801Y-95717177D01*
X193399486Y-95568606D01*
X193390789Y-95561563D01*
X193213591Y-95442491D01*
X193203791Y-95437103D01*
X193008303Y-95351289D01*
X192997704Y-95347722D01*
X192871616Y-95317451D01*
X192857530Y-95318156D01*
X192854000Y-95327035D01*
X192854000Y-96882885D01*
X192346000Y-96882885D01*
X192346000Y-95327683D01*
X192341895Y-95313703D01*
X192332222Y-95312201D01*
X192331840Y-95312283D01*
X192127776Y-95375062D01*
X192117430Y-95379283D01*
X191927704Y-95477208D01*
X191918273Y-95483193D01*
X191748882Y-95613172D01*
X191740665Y-95620728D01*
X191596970Y-95778647D01*
X191590217Y-95787543D01*
X191476758Y-95968411D01*
X191471687Y-95978362D01*
X191392051Y-96176465D01*
X191388822Y-96187160D01*
X191345326Y-96397197D01*
X191344123Y-96406334D01*
X191341205Y-96456938D01*
X191341100Y-96460581D01*
X191341100Y-96882885D01*
X189942023Y-96882885D01*
X189878753Y-96677224D01*
X189875558Y-96671032D01*
X189778214Y-96482433D01*
X189778213Y-96482432D01*
X189775643Y-96477452D01*
X189638786Y-96299097D01*
X189634641Y-96295326D01*
X189634638Y-96295322D01*
X189488090Y-96161974D01*
X189472509Y-96147796D01*
X189282065Y-96028331D01*
X189073477Y-95944479D01*
X189067986Y-95943342D01*
X189067983Y-95943341D01*
X188916526Y-95911976D01*
X188853336Y-95898890D01*
X188848725Y-95898624D01*
X188848724Y-95898624D01*
X188798099Y-95895705D01*
X188798095Y-95895705D01*
X188796276Y-95895600D01*
X187434965Y-95895600D01*
X187432179Y-95895849D01*
X187432171Y-95895849D01*
X187350195Y-95903165D01*
X187268077Y-95910494D01*
X187262661Y-95911976D01*
X187262659Y-95911976D01*
X187201319Y-95928757D01*
X187051233Y-95969816D01*
X187046175Y-95972228D01*
X187046171Y-95972230D01*
X186949777Y-96018208D01*
X186848321Y-96066600D01*
X186665755Y-96197787D01*
X186509306Y-96359231D01*
X186482875Y-96398565D01*
X186481725Y-96400276D01*
X186427129Y-96445661D01*
X186377143Y-96456000D01*
X184755831Y-96456000D01*
X184687710Y-96435998D01*
X184666813Y-96419173D01*
X184653485Y-96405868D01*
X184648303Y-96400695D01*
X184643765Y-96397898D01*
X184603176Y-96340647D01*
X184599946Y-96269724D01*
X184635572Y-96208313D01*
X184644068Y-96200938D01*
X184654207Y-96192902D01*
X184768739Y-96078171D01*
X184777751Y-96066760D01*
X184862816Y-95928757D01*
X184868963Y-95915576D01*
X184920138Y-95761290D01*
X184923005Y-95747914D01*
X184932672Y-95653562D01*
X184933000Y-95647146D01*
X184933000Y-95622115D01*
X184928525Y-95606876D01*
X184927135Y-95605671D01*
X184919452Y-95604000D01*
X182485116Y-95604000D01*
X182469877Y-95608475D01*
X182468672Y-95609865D01*
X182467001Y-95617548D01*
X182467001Y-95647095D01*
X182467338Y-95653614D01*
X182477257Y-95749206D01*
X182480149Y-95762600D01*
X182531588Y-95916784D01*
X182537761Y-95929962D01*
X182623063Y-96067807D01*
X182632099Y-96079208D01*
X182746828Y-96193738D01*
X182755762Y-96200794D01*
X182796823Y-96258712D01*
X182800053Y-96329635D01*
X182764426Y-96391046D01*
X182756593Y-96397846D01*
X182750652Y-96401522D01*
X182625695Y-96526697D01*
X182621855Y-96532927D01*
X182621854Y-96532928D01*
X182565856Y-96623774D01*
X182532885Y-96677262D01*
X182530581Y-96684209D01*
X182495582Y-96789729D01*
X182477203Y-96845139D01*
X182476503Y-96851975D01*
X182476502Y-96851978D01*
X182472941Y-96886736D01*
X182466500Y-96949600D01*
X182466500Y-97550400D01*
X181287761Y-97550400D01*
X181298223Y-97532279D01*
X181298224Y-97532278D01*
X181301527Y-97526556D01*
X181360542Y-97344928D01*
X181361679Y-97334116D01*
X181379814Y-97161565D01*
X181380504Y-97155000D01*
X181367028Y-97026783D01*
X181361232Y-96971635D01*
X181361232Y-96971633D01*
X181360542Y-96965072D01*
X181301527Y-96783444D01*
X181206040Y-96618056D01*
X181129391Y-96532928D01*
X181082675Y-96481045D01*
X181082674Y-96481044D01*
X181078253Y-96476134D01*
X180923752Y-96363882D01*
X180917724Y-96361198D01*
X180917722Y-96361197D01*
X180755319Y-96288891D01*
X180755318Y-96288891D01*
X180749288Y-96286206D01*
X180655888Y-96266353D01*
X180568944Y-96247872D01*
X180568939Y-96247872D01*
X180562487Y-96246500D01*
X180371513Y-96246500D01*
X180365061Y-96247872D01*
X180365056Y-96247872D01*
X180278112Y-96266353D01*
X180184712Y-96286206D01*
X180178682Y-96288891D01*
X180178681Y-96288891D01*
X180016278Y-96361197D01*
X180016276Y-96361198D01*
X180010248Y-96363882D01*
X179855747Y-96476134D01*
X179851326Y-96481044D01*
X179851325Y-96481045D01*
X179804610Y-96532928D01*
X179727960Y-96618056D01*
X179632473Y-96783444D01*
X179630431Y-96789729D01*
X179594350Y-96900775D01*
X179573458Y-96965072D01*
X179567108Y-97025493D01*
X179566972Y-97026783D01*
X179539959Y-97092440D01*
X179530757Y-97102708D01*
X178532962Y-98100503D01*
X178526697Y-98106356D01*
X178483726Y-98143842D01*
X178479359Y-98150056D01*
X178447506Y-98195378D01*
X178443573Y-98200674D01*
X178409394Y-98244263D01*
X178409392Y-98244266D01*
X178404708Y-98250240D01*
X178401582Y-98257164D01*
X178399744Y-98260199D01*
X178392500Y-98272898D01*
X178390812Y-98276046D01*
X178386444Y-98282261D01*
X178364803Y-98337770D01*
X178363567Y-98340939D01*
X178361022Y-98346995D01*
X178335087Y-98404435D01*
X178333702Y-98411908D01*
X178332631Y-98415326D01*
X178328646Y-98429315D01*
X178327749Y-98432807D01*
X178324988Y-98439889D01*
X178323996Y-98447422D01*
X178323996Y-98447423D01*
X178316767Y-98502330D01*
X178315735Y-98508843D01*
X178305639Y-98563318D01*
X178304255Y-98570787D01*
X178304692Y-98578367D01*
X178304692Y-98578368D01*
X178307791Y-98632112D01*
X178308000Y-98639365D01*
X178308000Y-99245790D01*
X178287998Y-99313911D01*
X178271095Y-99334885D01*
X178245361Y-99360619D01*
X178156528Y-99507301D01*
X178105247Y-99670938D01*
X178098500Y-99744365D01*
X177349000Y-99744365D01*
X177349000Y-95077885D01*
X182467000Y-95077885D01*
X182471475Y-95093124D01*
X182472865Y-95094329D01*
X182480548Y-95096000D01*
X183427885Y-95096000D01*
X183443124Y-95091525D01*
X183444329Y-95090135D01*
X183446000Y-95082452D01*
X183446000Y-95077885D01*
X183954000Y-95077885D01*
X183958475Y-95093124D01*
X183959865Y-95094329D01*
X183967548Y-95096000D01*
X184914884Y-95096000D01*
X184930123Y-95091525D01*
X184931328Y-95090135D01*
X184932999Y-95082452D01*
X184932999Y-95052905D01*
X184932662Y-95046386D01*
X184922743Y-94950794D01*
X184919851Y-94937400D01*
X184868412Y-94783216D01*
X184862239Y-94770038D01*
X184776937Y-94632193D01*
X184767901Y-94620792D01*
X184653171Y-94506261D01*
X184641760Y-94497249D01*
X184503757Y-94412184D01*
X184490576Y-94406037D01*
X184336290Y-94354862D01*
X184322914Y-94351995D01*
X184228562Y-94342328D01*
X184222145Y-94342000D01*
X183972115Y-94342000D01*
X183956876Y-94346475D01*
X183955671Y-94347865D01*
X183954000Y-94355548D01*
X183954000Y-95077885D01*
X183446000Y-95077885D01*
X183446000Y-94360116D01*
X183441525Y-94344877D01*
X183440135Y-94343672D01*
X183432452Y-94342001D01*
X183177905Y-94342001D01*
X183171386Y-94342338D01*
X183075794Y-94352257D01*
X183062400Y-94355149D01*
X182908216Y-94406588D01*
X182895038Y-94412761D01*
X182757193Y-94498063D01*
X182745792Y-94507099D01*
X182631261Y-94621829D01*
X182622249Y-94633240D01*
X182537184Y-94771243D01*
X182531037Y-94784424D01*
X182479862Y-94938710D01*
X182476995Y-94952086D01*
X182467328Y-95046438D01*
X182467000Y-95052855D01*
X182467000Y-95077885D01*
X177349000Y-95077885D01*
X177349000Y-94691725D01*
X177369002Y-94623604D01*
X177385905Y-94602630D01*
X180449472Y-91539063D01*
X180512369Y-91504912D01*
X180682288Y-91468794D01*
X180710651Y-91456166D01*
X180850722Y-91393803D01*
X180850724Y-91393802D01*
X180856752Y-91391118D01*
X180916457Y-91347740D01*
X180950420Y-91323064D01*
X181017288Y-91299206D01*
X181024481Y-91299000D01*
X181684315Y-91299000D01*
X181752436Y-91319002D01*
X181798929Y-91372658D01*
X181803837Y-91385120D01*
X181808450Y-91398946D01*
X181901522Y-91549348D01*
X182026697Y-91674305D01*
X182032927Y-91678145D01*
X182032928Y-91678146D01*
X182170288Y-91762816D01*
X182177262Y-91767115D01*
X182257005Y-91793564D01*
X182338611Y-91820632D01*
X182338613Y-91820632D01*
X182345139Y-91822797D01*
X182351975Y-91823497D01*
X182351978Y-91823498D01*
X182395031Y-91827909D01*
X182449600Y-91833500D01*
X183050400Y-91833500D01*
X183053646Y-91833163D01*
X183053650Y-91833163D01*
X183149308Y-91823238D01*
X183149312Y-91823237D01*
X183156166Y-91822526D01*
X183162702Y-91820345D01*
X183162704Y-91820345D01*
X183294806Y-91776272D01*
X183323946Y-91766550D01*
X183474348Y-91673478D01*
X183599305Y-91548303D01*
X183602102Y-91543765D01*
X183659353Y-91503176D01*
X183730276Y-91499946D01*
X183791687Y-91535572D01*
X183799062Y-91544068D01*
X183807098Y-91554207D01*
X183921829Y-91668739D01*
X183933240Y-91677751D01*
X184071243Y-91762816D01*
X184084424Y-91768963D01*
X184238710Y-91820138D01*
X184252086Y-91823005D01*
X184346438Y-91832672D01*
X184352854Y-91833000D01*
X184377885Y-91833000D01*
X184393124Y-91828525D01*
X184394329Y-91827135D01*
X184396000Y-91819452D01*
X184396000Y-91814884D01*
X184904000Y-91814884D01*
X184908475Y-91830123D01*
X184909865Y-91831328D01*
X184917548Y-91832999D01*
X184947095Y-91832999D01*
X184953614Y-91832662D01*
X185049206Y-91822743D01*
X185062600Y-91819851D01*
X185216784Y-91768412D01*
X185229962Y-91762239D01*
X185367807Y-91676937D01*
X185379208Y-91667901D01*
X185493739Y-91553171D01*
X185502751Y-91541760D01*
X185587816Y-91403757D01*
X185593963Y-91390576D01*
X185645138Y-91236290D01*
X185648005Y-91222914D01*
X185657672Y-91128562D01*
X185658000Y-91122146D01*
X185658000Y-90872115D01*
X185653525Y-90856876D01*
X185652135Y-90855671D01*
X185644452Y-90854000D01*
X184922115Y-90854000D01*
X184906876Y-90858475D01*
X184905671Y-90859865D01*
X184904000Y-90867548D01*
X184904000Y-91814884D01*
X184396000Y-91814884D01*
X184396000Y-90327885D01*
X184904000Y-90327885D01*
X184908475Y-90343124D01*
X184909865Y-90344329D01*
X184917548Y-90346000D01*
X185639884Y-90346000D01*
X185655123Y-90341525D01*
X185656328Y-90340135D01*
X185657999Y-90332452D01*
X185657999Y-90077905D01*
X185657662Y-90071386D01*
X185647743Y-89975794D01*
X185644851Y-89962400D01*
X185593412Y-89808216D01*
X185587239Y-89795038D01*
X185501937Y-89657193D01*
X185492901Y-89645792D01*
X185378171Y-89531261D01*
X185366760Y-89522249D01*
X185228757Y-89437184D01*
X185215576Y-89431037D01*
X185061290Y-89379862D01*
X185047914Y-89376995D01*
X184953562Y-89367328D01*
X184947145Y-89367000D01*
X184922115Y-89367000D01*
X184906876Y-89371475D01*
X184905671Y-89372865D01*
X184904000Y-89380548D01*
X184904000Y-90327885D01*
X184396000Y-90327885D01*
X184396000Y-89385116D01*
X184391525Y-89369877D01*
X184390135Y-89368672D01*
X184382452Y-89367001D01*
X184352905Y-89367001D01*
X184346386Y-89367338D01*
X184250794Y-89377257D01*
X184237400Y-89380149D01*
X184083216Y-89431588D01*
X184070038Y-89437761D01*
X183932193Y-89523063D01*
X183920792Y-89532099D01*
X183806262Y-89646828D01*
X183799206Y-89655762D01*
X183741288Y-89696823D01*
X183670365Y-89700053D01*
X183608954Y-89664426D01*
X183602154Y-89656593D01*
X183598478Y-89650652D01*
X183473303Y-89525695D01*
X183467072Y-89521854D01*
X183328968Y-89436725D01*
X183328966Y-89436724D01*
X183322738Y-89432885D01*
X183242995Y-89406436D01*
X183161389Y-89379368D01*
X183161387Y-89379368D01*
X183154861Y-89377203D01*
X183148025Y-89376503D01*
X183148022Y-89376502D01*
X183104969Y-89372091D01*
X183050400Y-89366500D01*
X182449600Y-89366500D01*
X182446354Y-89366837D01*
X182446350Y-89366837D01*
X182350692Y-89376762D01*
X182350688Y-89376763D01*
X182343834Y-89377474D01*
X182337298Y-89379655D01*
X182337296Y-89379655D01*
X182320928Y-89385116D01*
X182176054Y-89433450D01*
X182025652Y-89526522D01*
X181900695Y-89651697D01*
X181896855Y-89657927D01*
X181896854Y-89657928D01*
X181850030Y-89733891D01*
X181807885Y-89802262D01*
X181805581Y-89809209D01*
X181803769Y-89814671D01*
X181763336Y-89873030D01*
X181697771Y-89900265D01*
X181684177Y-89901000D01*
X181024481Y-89901000D01*
X180956360Y-89880998D01*
X180950420Y-89876936D01*
X180862094Y-89812763D01*
X180862093Y-89812762D01*
X180856752Y-89808882D01*
X180850724Y-89806198D01*
X180850722Y-89806197D01*
X180688319Y-89733891D01*
X180688318Y-89733891D01*
X180682288Y-89731206D01*
X180588888Y-89711353D01*
X180501944Y-89692872D01*
X180501939Y-89692872D01*
X180495487Y-89691500D01*
X180304513Y-89691500D01*
X180298061Y-89692872D01*
X180298056Y-89692872D01*
X180211113Y-89711353D01*
X180117712Y-89731206D01*
X180111682Y-89733891D01*
X180111681Y-89733891D01*
X179949278Y-89806197D01*
X179949276Y-89806198D01*
X179943248Y-89808882D01*
X179788747Y-89921134D01*
X179660960Y-90063056D01*
X179657659Y-90068774D01*
X179577297Y-90207965D01*
X179565473Y-90228444D01*
X179549945Y-90276235D01*
X179533647Y-90326395D01*
X179506458Y-90410072D01*
X179505768Y-90416635D01*
X179505768Y-90416637D01*
X179499972Y-90471783D01*
X179472959Y-90537440D01*
X179463757Y-90547708D01*
X176175962Y-93835503D01*
X176169697Y-93841356D01*
X176126726Y-93878842D01*
X176122359Y-93885056D01*
X176090506Y-93930378D01*
X176086573Y-93935674D01*
X176052394Y-93979263D01*
X176052392Y-93979266D01*
X176047708Y-93985240D01*
X176044582Y-93992164D01*
X176042744Y-93995199D01*
X176035500Y-94007898D01*
X176033812Y-94011046D01*
X176029444Y-94017261D01*
X176015747Y-94052394D01*
X176006567Y-94075939D01*
X176004022Y-94081995D01*
X175978087Y-94139435D01*
X175976702Y-94146908D01*
X175975631Y-94150326D01*
X175971646Y-94164315D01*
X175970749Y-94167807D01*
X175967988Y-94174889D01*
X175966996Y-94182422D01*
X175966996Y-94182423D01*
X175959767Y-94237330D01*
X175958735Y-94243843D01*
X175949603Y-94293117D01*
X175947255Y-94305787D01*
X175947692Y-94313367D01*
X175947692Y-94313368D01*
X175950791Y-94367112D01*
X175951000Y-94374365D01*
X175951000Y-96156904D01*
X175930998Y-96225025D01*
X175877342Y-96271518D01*
X175807068Y-96281622D01*
X175798803Y-96280151D01*
X175646944Y-96247872D01*
X175646939Y-96247872D01*
X175640487Y-96246500D01*
X175449513Y-96246500D01*
X175443061Y-96247872D01*
X175443056Y-96247872D01*
X175356112Y-96266353D01*
X175262712Y-96286206D01*
X175256682Y-96288891D01*
X175256681Y-96288891D01*
X175094278Y-96361197D01*
X175094276Y-96361198D01*
X175088248Y-96363882D01*
X174933747Y-96476134D01*
X174929326Y-96481044D01*
X174929325Y-96481045D01*
X174882610Y-96532928D01*
X174805960Y-96618056D01*
X174710473Y-96783444D01*
X174651458Y-96965072D01*
X174650768Y-96971633D01*
X174650768Y-96971635D01*
X174644972Y-97026783D01*
X174631496Y-97155000D01*
X174632186Y-97161565D01*
X174650322Y-97334116D01*
X174651458Y-97344928D01*
X174710473Y-97526556D01*
X174713776Y-97532278D01*
X174713777Y-97532279D01*
X174731781Y-97563463D01*
X174805960Y-97691944D01*
X174813637Y-97700470D01*
X174844353Y-97764476D01*
X174846000Y-97784779D01*
X174846000Y-98496275D01*
X174825998Y-98564396D01*
X174772342Y-98610889D01*
X174702068Y-98620993D01*
X174637488Y-98591499D01*
X174630905Y-98585370D01*
X172947905Y-96902370D01*
X172913879Y-96840058D01*
X172911000Y-96813275D01*
X172911000Y-93373599D01*
X172911292Y-93365029D01*
X172914654Y-93315723D01*
X172914654Y-93315719D01*
X172915170Y-93308148D01*
X172913866Y-93300674D01*
X172913865Y-93300664D01*
X172912877Y-93295006D01*
X172911000Y-93273341D01*
X172911000Y-92329725D01*
X172931002Y-92261604D01*
X172947905Y-92240630D01*
X173852630Y-91335905D01*
X173914942Y-91301879D01*
X173941725Y-91299000D01*
X174975519Y-91299000D01*
X175043640Y-91319002D01*
X175049580Y-91323064D01*
X175083544Y-91347740D01*
X175143248Y-91391118D01*
X175149276Y-91393802D01*
X175149278Y-91393803D01*
X175289349Y-91456166D01*
X175317712Y-91468794D01*
X175411113Y-91488647D01*
X175498056Y-91507128D01*
X175498061Y-91507128D01*
X175504513Y-91508500D01*
X175695487Y-91508500D01*
X175701939Y-91507128D01*
X175701944Y-91507128D01*
X175788888Y-91488647D01*
X175882288Y-91468794D01*
X175910651Y-91456166D01*
X176050722Y-91393803D01*
X176050724Y-91393802D01*
X176056752Y-91391118D01*
X176211253Y-91278866D01*
X176339040Y-91136944D01*
X176434527Y-90971556D01*
X176493542Y-90789928D01*
X176513504Y-90600000D01*
X176493542Y-90410072D01*
X176434527Y-90228444D01*
X176422704Y-90207965D01*
X176342341Y-90068774D01*
X176339040Y-90063056D01*
X176211253Y-89921134D01*
X176056752Y-89808882D01*
X176050724Y-89806198D01*
X176050722Y-89806197D01*
X175888319Y-89733891D01*
X175888318Y-89733891D01*
X175882288Y-89731206D01*
X175788888Y-89711353D01*
X175701944Y-89692872D01*
X175701939Y-89692872D01*
X175695487Y-89691500D01*
X175504513Y-89691500D01*
X175498061Y-89692872D01*
X175498056Y-89692872D01*
X175411113Y-89711353D01*
X175317712Y-89731206D01*
X175311682Y-89733891D01*
X175311681Y-89733891D01*
X175149278Y-89806197D01*
X175149276Y-89806198D01*
X175143248Y-89808882D01*
X175137907Y-89812762D01*
X175137906Y-89812763D01*
X175049580Y-89876936D01*
X174982712Y-89900794D01*
X174975519Y-89901000D01*
X174707550Y-89901000D01*
X174639429Y-89880998D01*
X174592936Y-89827342D01*
X174582832Y-89757068D01*
X174612326Y-89692488D01*
X174631985Y-89674174D01*
X174706081Y-89618642D01*
X174713261Y-89613261D01*
X174800615Y-89496705D01*
X174851745Y-89360316D01*
X174858500Y-89298134D01*
X174858500Y-87701866D01*
X174851745Y-87639684D01*
X174800615Y-87503295D01*
X174713261Y-87386739D01*
X174596705Y-87299385D01*
X174460316Y-87248255D01*
X174398134Y-87241500D01*
X172801866Y-87241500D01*
X172739684Y-87248255D01*
X172603295Y-87299385D01*
X172486739Y-87386739D01*
X172399385Y-87503295D01*
X172348255Y-87639684D01*
X172341500Y-87701866D01*
X172341500Y-89298134D01*
X172348255Y-89360316D01*
X172399385Y-89496705D01*
X172486739Y-89613261D01*
X172603295Y-89700615D01*
X172739684Y-89751745D01*
X172773152Y-89755381D01*
X172788608Y-89757060D01*
X172854170Y-89784302D01*
X172894596Y-89842665D01*
X172901000Y-89882323D01*
X172901000Y-90258274D01*
X172880998Y-90326395D01*
X172864095Y-90347369D01*
X171737961Y-91473504D01*
X171731696Y-91479357D01*
X171688726Y-91516842D01*
X171663194Y-91553171D01*
X171652506Y-91568378D01*
X171648576Y-91573669D01*
X171639889Y-91584749D01*
X171582118Y-91626016D01*
X171511207Y-91629499D01*
X171451637Y-91596102D01*
X167646496Y-87790961D01*
X167640642Y-87784695D01*
X167603158Y-87741726D01*
X167551622Y-87705506D01*
X167546326Y-87701573D01*
X167502737Y-87667394D01*
X167502734Y-87667392D01*
X167496760Y-87662708D01*
X167489836Y-87659582D01*
X167486801Y-87657744D01*
X167474102Y-87650500D01*
X167470954Y-87648812D01*
X167464739Y-87644444D01*
X167406050Y-87621562D01*
X167400005Y-87619022D01*
X167342565Y-87593087D01*
X167335092Y-87591702D01*
X167331674Y-87590631D01*
X167317685Y-87586646D01*
X167314193Y-87585749D01*
X167307111Y-87582988D01*
X167299578Y-87581996D01*
X167299577Y-87581996D01*
X167244670Y-87574767D01*
X167238157Y-87573735D01*
X167183682Y-87563639D01*
X167183680Y-87563639D01*
X167176213Y-87562255D01*
X167168633Y-87562692D01*
X167168632Y-87562692D01*
X167114888Y-87565791D01*
X167107635Y-87566000D01*
X125885589Y-87566000D01*
X125877019Y-87565708D01*
X125827724Y-87562347D01*
X125827720Y-87562347D01*
X125820148Y-87561831D01*
X125812671Y-87563136D01*
X125812670Y-87563136D01*
X125785380Y-87567899D01*
X125758085Y-87572663D01*
X125751568Y-87573624D01*
X125742126Y-87574767D01*
X125696582Y-87580278D01*
X125696579Y-87580279D01*
X125689040Y-87581191D01*
X125681931Y-87583877D01*
X125678488Y-87584723D01*
X125664363Y-87588586D01*
X125660958Y-87589614D01*
X125653482Y-87590919D01*
X125595810Y-87616235D01*
X125589715Y-87618723D01*
X125537880Y-87638310D01*
X125537878Y-87638311D01*
X125530778Y-87640994D01*
X125524526Y-87645291D01*
X125521383Y-87646934D01*
X125508635Y-87654029D01*
X125505523Y-87655870D01*
X125498567Y-87658923D01*
X125492539Y-87663549D01*
X125492538Y-87663549D01*
X125448602Y-87697262D01*
X125443275Y-87701133D01*
X125391348Y-87736821D01*
X125386296Y-87742491D01*
X125386295Y-87742492D01*
X125350490Y-87782679D01*
X125345509Y-87787955D01*
X119699312Y-93434153D01*
X119673081Y-93460384D01*
X119672614Y-93460850D01*
X119609175Y-93523628D01*
X119608370Y-93524942D01*
X119607115Y-93526350D01*
X115097962Y-98035503D01*
X115091697Y-98041356D01*
X115048726Y-98078842D01*
X115032217Y-98102332D01*
X115012506Y-98130378D01*
X115008573Y-98135674D01*
X114974394Y-98179263D01*
X114974392Y-98179266D01*
X114969708Y-98185240D01*
X114966582Y-98192164D01*
X114964744Y-98195199D01*
X114957500Y-98207898D01*
X114955812Y-98211046D01*
X114951444Y-98217261D01*
X114929753Y-98272898D01*
X114928567Y-98275939D01*
X114926022Y-98281995D01*
X114900087Y-98339435D01*
X114898702Y-98346908D01*
X114897631Y-98350326D01*
X114893646Y-98364315D01*
X114892749Y-98367807D01*
X114889988Y-98374889D01*
X114888996Y-98382422D01*
X114888996Y-98382423D01*
X114881767Y-98437330D01*
X114880735Y-98443843D01*
X114880072Y-98447423D01*
X114869255Y-98505787D01*
X114869692Y-98513367D01*
X114869692Y-98513368D01*
X114872791Y-98567112D01*
X114873000Y-98574365D01*
X114873000Y-102523591D01*
X114852998Y-102591712D01*
X114822654Y-102624350D01*
X114648645Y-102755000D01*
X114491184Y-102919773D01*
X114362750Y-103108050D01*
X114317601Y-103205316D01*
X114269529Y-103308879D01*
X114266791Y-103314777D01*
X114205884Y-103534399D01*
X114181665Y-103761021D01*
X103500678Y-103761021D01*
X103504994Y-91349957D01*
X114791873Y-91349957D01*
X114797154Y-91357011D01*
X114966836Y-91456166D01*
X114976119Y-91460613D01*
X115179302Y-91538201D01*
X115189200Y-91541077D01*
X115402328Y-91584438D01*
X115412556Y-91585657D01*
X115629902Y-91593628D01*
X115640188Y-91593161D01*
X115855921Y-91565525D01*
X115865999Y-91563383D01*
X116074316Y-91500884D01*
X116083914Y-91497122D01*
X116279229Y-91401439D01*
X116288074Y-91396166D01*
X116340964Y-91358440D01*
X116349365Y-91347740D01*
X116342377Y-91334587D01*
X115584812Y-90577022D01*
X115570868Y-90569408D01*
X115569035Y-90569539D01*
X115562420Y-90573790D01*
X114798633Y-91337577D01*
X114791873Y-91349957D01*
X103504994Y-91349957D01*
X103505402Y-90176189D01*
X114182464Y-90176189D01*
X114194985Y-90393326D01*
X114196418Y-90403528D01*
X114244231Y-90615692D01*
X114247314Y-90625532D01*
X114329140Y-90827045D01*
X114333783Y-90836236D01*
X114418461Y-90974419D01*
X114428917Y-90983879D01*
X114437695Y-90980095D01*
X115199978Y-90217812D01*
X115206356Y-90206132D01*
X115936408Y-90206132D01*
X115936539Y-90207965D01*
X115940790Y-90214580D01*
X116702179Y-90975969D01*
X116714190Y-90982528D01*
X116725929Y-90973560D01*
X116760655Y-90925234D01*
X116765969Y-90916389D01*
X116862326Y-90721426D01*
X116866124Y-90711833D01*
X116929348Y-90503738D01*
X116931525Y-90493668D01*
X116960151Y-90276235D01*
X116960670Y-90269560D01*
X116962166Y-90208364D01*
X116961972Y-90201646D01*
X116944004Y-89983097D01*
X116942319Y-89972917D01*
X116889336Y-89761983D01*
X116886016Y-89752232D01*
X116799290Y-89552774D01*
X116794424Y-89543699D01*
X116724951Y-89436312D01*
X116714264Y-89427108D01*
X116704699Y-89431511D01*
X115944022Y-90192188D01*
X115936408Y-90206132D01*
X115206356Y-90206132D01*
X115207592Y-90203868D01*
X115207461Y-90202035D01*
X115203210Y-90195420D01*
X114442059Y-89434269D01*
X114430523Y-89427969D01*
X114418240Y-89437592D01*
X114366098Y-89514029D01*
X114361010Y-89522985D01*
X114269441Y-89720255D01*
X114265878Y-89729942D01*
X114207759Y-89939511D01*
X114205828Y-89949631D01*
X114182716Y-90165900D01*
X114182464Y-90176189D01*
X103505402Y-90176189D01*
X103505789Y-89061784D01*
X114793580Y-89061784D01*
X114800325Y-89074115D01*
X115559188Y-89832978D01*
X115573132Y-89840592D01*
X115574965Y-89840461D01*
X115581580Y-89836210D01*
X116344969Y-89072821D01*
X116351990Y-89059964D01*
X116344429Y-89049587D01*
X116336820Y-89044532D01*
X116146429Y-88939430D01*
X116137017Y-88935200D01*
X115932008Y-88862602D01*
X115922037Y-88859968D01*
X115707923Y-88821828D01*
X115697671Y-88820859D01*
X115480191Y-88818202D01*
X115469907Y-88818922D01*
X115254922Y-88851818D01*
X115244903Y-88854205D01*
X115038170Y-88921776D01*
X115028668Y-88925771D01*
X114835759Y-89026193D01*
X114827034Y-89031687D01*
X114802033Y-89050459D01*
X114793580Y-89061784D01*
X103505789Y-89061784D01*
X103506786Y-86194669D01*
X172242001Y-86194669D01*
X172242371Y-86201490D01*
X172247895Y-86252352D01*
X172251521Y-86267604D01*
X172296676Y-86388054D01*
X172305214Y-86403649D01*
X172381715Y-86505724D01*
X172394276Y-86518285D01*
X172496351Y-86594786D01*
X172511946Y-86603324D01*
X172632394Y-86648478D01*
X172647649Y-86652105D01*
X172698514Y-86657631D01*
X172705328Y-86658000D01*
X173227885Y-86658000D01*
X173243124Y-86653525D01*
X173244329Y-86652135D01*
X173246000Y-86644452D01*
X173246000Y-86639884D01*
X173754000Y-86639884D01*
X173758475Y-86655123D01*
X173759865Y-86656328D01*
X173767548Y-86657999D01*
X174294669Y-86657999D01*
X174301490Y-86657629D01*
X174352352Y-86652105D01*
X174367604Y-86648479D01*
X174488054Y-86603324D01*
X174503649Y-86594786D01*
X174605724Y-86518285D01*
X174618285Y-86505724D01*
X174694786Y-86403649D01*
X174703324Y-86388054D01*
X174748478Y-86267606D01*
X174752105Y-86252351D01*
X174757631Y-86201486D01*
X174758000Y-86194672D01*
X174758000Y-85672115D01*
X174753525Y-85656876D01*
X174752135Y-85655671D01*
X174744452Y-85654000D01*
X173772115Y-85654000D01*
X173756876Y-85658475D01*
X173755671Y-85659865D01*
X173754000Y-85667548D01*
X173754000Y-86639884D01*
X173246000Y-86639884D01*
X173246000Y-85672115D01*
X173241525Y-85656876D01*
X173240135Y-85655671D01*
X173232452Y-85654000D01*
X172260116Y-85654000D01*
X172244877Y-85658475D01*
X172243672Y-85659865D01*
X172242001Y-85667548D01*
X172242001Y-86194669D01*
X103506786Y-86194669D01*
X103507157Y-85127885D01*
X172242000Y-85127885D01*
X172246475Y-85143124D01*
X172247865Y-85144329D01*
X172255548Y-85146000D01*
X173227885Y-85146000D01*
X173243124Y-85141525D01*
X173244329Y-85140135D01*
X173246000Y-85132452D01*
X173246000Y-85127885D01*
X173754000Y-85127885D01*
X173758475Y-85143124D01*
X173759865Y-85144329D01*
X173767548Y-85146000D01*
X174739884Y-85146000D01*
X174755123Y-85141525D01*
X174756328Y-85140135D01*
X174757999Y-85132452D01*
X174757999Y-84605331D01*
X174757629Y-84598510D01*
X174752105Y-84547648D01*
X174748479Y-84532396D01*
X174703324Y-84411946D01*
X174694786Y-84396351D01*
X174618285Y-84294276D01*
X174605724Y-84281715D01*
X174503649Y-84205214D01*
X174488054Y-84196676D01*
X174367606Y-84151522D01*
X174352351Y-84147895D01*
X174301486Y-84142369D01*
X174294672Y-84142000D01*
X173772115Y-84142000D01*
X173756876Y-84146475D01*
X173755671Y-84147865D01*
X173754000Y-84155548D01*
X173754000Y-85127885D01*
X173246000Y-85127885D01*
X173246000Y-84160116D01*
X173241525Y-84144877D01*
X173240135Y-84143672D01*
X173232452Y-84142001D01*
X172705331Y-84142001D01*
X172698510Y-84142371D01*
X172647648Y-84147895D01*
X172632396Y-84151521D01*
X172511946Y-84196676D01*
X172496351Y-84205214D01*
X172394276Y-84281715D01*
X172381715Y-84294276D01*
X172305214Y-84396351D01*
X172296676Y-84411946D01*
X172251522Y-84532394D01*
X172247895Y-84547649D01*
X172242369Y-84598514D01*
X172242000Y-84605328D01*
X172242000Y-85127885D01*
X103507157Y-85127885D01*
X103507984Y-82749391D01*
X103509483Y-82730054D01*
X103511805Y-82715141D01*
X103513186Y-82706271D01*
X103511748Y-82695273D01*
X103511291Y-82666588D01*
X103523924Y-82538329D01*
X103528742Y-82514105D01*
X103572299Y-82370517D01*
X103581749Y-82347704D01*
X103652480Y-82215377D01*
X103666203Y-82194840D01*
X103761389Y-82078855D01*
X103778855Y-82061389D01*
X103894840Y-81966203D01*
X103915377Y-81952480D01*
X104047704Y-81881749D01*
X104070517Y-81872299D01*
X104214107Y-81828742D01*
X104238329Y-81823924D01*
X104289101Y-81818923D01*
X104359838Y-81811956D01*
X104375877Y-81812409D01*
X104375886Y-81811695D01*
X104384859Y-81811805D01*
X104393731Y-81813186D01*
X104402633Y-81812022D01*
X104402636Y-81812022D01*
X104425252Y-81809064D01*
X104441590Y-81808000D01*
X194250672Y-81808000D01*
X194270057Y-81809500D01*
G37*
%TD.AperFunction*%
M02*
