%FSLAX45Y45*%
G04 Gerber Fmt 4.5, Leading zero omitted, Abs format (unit mm)*
G04 Created by KiCad (PCBNEW (6.0.2)) date 2022-08-27 15:51:44*
%MOMM*%
%LPD*%
G01*
G04 APERTURE LIST*
%TA.AperFunction,Profile*%
%ADD10C,0.100000*%
%TD*%
%ADD11C,0.200000*%
G04 APERTURE END LIST*
D10*
X10438995Y-11301005D02*
X19430000Y-11300000D01*
X10300000Y-8270000D02*
X10298995Y-11161005D01*
X19700000Y-11030000D02*
X19700000Y-8400000D01*
X19700000Y-8400000D02*
G75*
G03*
X19430000Y-8130000I-270000J0D01*
G01*
X10298995Y-11161005D02*
G75*
G03*
X10438995Y-11301005I140000J0D01*
G01*
X10440000Y-8130000D02*
G75*
G03*
X10300000Y-8270000I0J-140000D01*
G01*
X19430000Y-8130000D02*
X10440000Y-8130000D01*
X19430000Y-11300000D02*
G75*
G03*
X19700000Y-11030000I0J270000D01*
G01*
D11*
X10551614Y-11616481D02*
X10551614Y-11416481D01*
X10599233Y-11416481D01*
X10627804Y-11426005D01*
X10646852Y-11445053D01*
X10656376Y-11464100D01*
X10665900Y-11502195D01*
X10665900Y-11530767D01*
X10656376Y-11568862D01*
X10646852Y-11587910D01*
X10627804Y-11606957D01*
X10599233Y-11616481D01*
X10551614Y-11616481D01*
X10751614Y-11616481D02*
X10751614Y-11483148D01*
X10751614Y-11521243D02*
X10761138Y-11502195D01*
X10770662Y-11492672D01*
X10789709Y-11483148D01*
X10808757Y-11483148D01*
X10875423Y-11616481D02*
X10875423Y-11483148D01*
X10875423Y-11416481D02*
X10865900Y-11426005D01*
X10875423Y-11435529D01*
X10884947Y-11426005D01*
X10875423Y-11416481D01*
X10875423Y-11435529D01*
X10999233Y-11616481D02*
X10980185Y-11606957D01*
X10970662Y-11587910D01*
X10970662Y-11416481D01*
X11103995Y-11616481D02*
X11084947Y-11606957D01*
X11075423Y-11587910D01*
X11075423Y-11416481D01*
X11332566Y-11616481D02*
X11332566Y-11416481D01*
X11399233Y-11559338D01*
X11465900Y-11416481D01*
X11465900Y-11616481D01*
X11646852Y-11616481D02*
X11646852Y-11511719D01*
X11637328Y-11492672D01*
X11618281Y-11483148D01*
X11580185Y-11483148D01*
X11561138Y-11492672D01*
X11646852Y-11606957D02*
X11627804Y-11616481D01*
X11580185Y-11616481D01*
X11561138Y-11606957D01*
X11551614Y-11587910D01*
X11551614Y-11568862D01*
X11561138Y-11549815D01*
X11580185Y-11540291D01*
X11627804Y-11540291D01*
X11646852Y-11530767D01*
X11742090Y-11483148D02*
X11742090Y-11683148D01*
X11742090Y-11492672D02*
X11761138Y-11483148D01*
X11799233Y-11483148D01*
X11818281Y-11492672D01*
X11827804Y-11502195D01*
X11837328Y-11521243D01*
X11837328Y-11578386D01*
X11827804Y-11597434D01*
X11818281Y-11606957D01*
X11799233Y-11616481D01*
X11761138Y-11616481D01*
X11742090Y-11606957D01*
X11923042Y-11597434D02*
X11932566Y-11606957D01*
X11923042Y-11616481D01*
X11913519Y-11606957D01*
X11923042Y-11597434D01*
X11923042Y-11616481D01*
X11923042Y-11492672D02*
X11932566Y-11502195D01*
X11923042Y-11511719D01*
X11913519Y-11502195D01*
X11923042Y-11492672D01*
X11923042Y-11511719D01*
M02*
